<?xml version="1.0" standalone="no"?>
<!DOCTYPE svg PUBLIC "-//W3C//DTD SVG 1.1//EN" "http://www.w3.org/Graphics/SVG/1.1/DTD/svg11.dtd" >
<svg xmlns="http://www.w3.org/2000/svg" xmlns:xlink="http://www.w3.org/1999/xlink" version="1.1">
<metadata>
Created by FontForge 20201107 at Mon Mar  7 19:20:31 2011
 By 
Copyright (c) 2005 Dalton Maag Ltd. All rights reserved. This font is for exclusive use by Vodafone only. This font may not be altered in any way without prior consent of Dalton Maag Ltd. DaMa is a trademark of Dalton Maag Ltd
</metadata>
<defs>
<font id="VodafoneRg-Regular" horiz-adv-x="513" >
  <font-face 
    font-family="Vodafone Rg"
    font-weight="400"
    font-stretch="normal"
    units-per-em="1000"
    panose-1="2 11 6 6 8 2 2 2 2 4"
    ascent="800"
    descent="-200"
    x-height="477"
    cap-height="667"
    bbox="-227 -220 1018 899"
    underline-thickness="70"
    underline-position="-185"
    unicode-range="U+000D-FB02"
  />
<missing-glyph horiz-adv-x="190" 
 />
    <glyph glyph-name="fi" unicode="fi" horiz-adv-x="485" 
d="M86 0v414h-67v63h67v35q0 62 28 102.5t67.5 53t75.5 12.5q46 0 85.5 -15.5t61.5 -30.5l-29 -55q-21 15 -53 27.5t-65 12.5q-49 0 -73.5 -24t-24.5 -84v-34h108v-63h-107v-414h-74zM347 0v477h73v-477h-73z" />
    <glyph glyph-name="fl" unicode="fl" horiz-adv-x="539" 
d="M454 -9q-59 0 -80.5 33t-21.5 102v481q-22 5 -51 5q-47 0 -78.5 -13t-45.5 -41t-14 -61v-20h101v-63h-100v-414h-74v414h-61v63h61v16q0 70 32.5 112t82 56.5t95.5 14.5q41 0 72.5 -5t51.5 -11v-546q0 -33 10 -47.5t31 -14.5q19 0 47 14l17 -57q-13 -7 -32.5 -12.5
t-42.5 -5.5z" />
    <glyph glyph-name=".notdef" horiz-adv-x="190" 
 />
    <glyph glyph-name=".null" horiz-adv-x="0" 
 />
    <glyph glyph-name=".null" horiz-adv-x="0" 
 />
    <glyph glyph-name="nonmarkingreturn" unicode="&#xd;" horiz-adv-x="223" 
 />
    <glyph glyph-name="space" unicode=" " horiz-adv-x="190" 
 />
    <glyph glyph-name="exclam" unicode="!" horiz-adv-x="188" 
d="M94 -11q-22 0 -36.5 14.5t-14.5 39.5t14.5 40t36.5 15q23 0 37 -15t14 -40t-14 -39.5t-37 -14.5zM59 204v463h72v-463h-72z" />
    <glyph glyph-name="quotedbl" unicode="&#x22;" horiz-adv-x="303" 
d="M48 371v296h68v-296h-68zM187 371v296h69v-296h-69z" />
    <glyph glyph-name="numbersign" unicode="#" horiz-adv-x="562" 
d="M160 74v168h-160v68h160v121h-160v67h160v169h64v-169h114v169h65v-169h159v-67h-159v-121h159v-68h-159v-168h-65v168h-114v-168h-64zM224 310h114v121h-114v-121z" />
    <glyph glyph-name="dollar" unicode="$" 
d="M224 -147v135q-60 1 -109.5 27t-77.5 67l49 54q23 -34 58 -56.5t80 -24.5v270q-56 25 -95 53.5t-54.5 63.5t-15.5 74q0 51 26.5 90t65.5 55t73 18v132h61v-132q71 -8 112 -41t56 -62l-48 -43q-22 33 -49.5 53.5t-70.5 25.5v-230q72 -37 108.5 -65t51 -64.5t14.5 -74.5
q0 -42 -13.5 -75.5t-36.5 -57.5t-55 -38.5t-69 -18.5v-135h-61zM285 54q41 4 70.5 34.5t29.5 84.5q0 45 -25.5 74t-74.5 55v-248zM224 403v210q-39 -3 -66 -26.5t-27 -65.5q0 -47 24.5 -71.5t68.5 -46.5z" />
    <glyph glyph-name="percent" unicode="%" horiz-adv-x="703" 
d="M71 -7l-46 52l602 626l45 -48zM533 -7q-30 0 -56.5 12t-46 33t-30.5 48.5t-11 59.5q0 44 23.5 83.5t57 54.5t63.5 15q44 0 78.5 -24.5t50.5 -61t16 -67.5q0 -48 -25.5 -86t-57.5 -52.5t-62 -14.5zM532 56q43 0 63.5 31t20.5 60q0 18 -6.5 34.5t-18 29t-27 20t-32.5 7.5
q-26 0 -47 -16.5t-28.5 -36.5t-7.5 -38q0 -28 15.5 -52t33 -31.5t34.5 -7.5zM177 367q-30 0 -56.5 12t-46 33t-31 48.5t-11.5 59.5q0 46 24.5 84.5t57.5 53.5t63 15q44 0 78.5 -24.5t50.5 -61t16 -67.5q0 -48 -25.5 -86t-57.5 -52.5t-62 -14.5zM176 430q40 0 61.5 30.5
t21.5 60.5q0 27 -14 48.5t-33 32t-36 10.5q-26 0 -47 -16.5t-28.5 -36.5t-7.5 -38q0 -28 15.5 -52t33 -31.5t34.5 -7.5z" />
    <glyph glyph-name="ampersand" unicode="&#x26;" horiz-adv-x="614" 
d="M224 -11q-55 0 -92.5 16t-60.5 42t-33 58.5t-10 64.5q0 53 23.5 96t59.5 70.5t67 43.5l25 13l-13 15q-35 40 -47.5 68t-12.5 63q0 41 23.5 74t61.5 46t76 13q40 0 69 -11t49 -27.5t32.5 -36t20.5 -35.5l-56 -43q-33 55 -60 73.5t-56 18.5q-42 0 -62.5 -20t-20.5 -53
q0 -26 13 -47.5t36 -50.5l180 -233l105 146l51 -43l-113 -156l109 -154h-83l-70 97q-34 -39 -69 -64t-70.5 -34.5t-71.5 -9.5zM227 51q34 0 67 16.5t56.5 40t38.5 42.5l-147 196l-17 -9q-72 -39 -97.5 -80t-25.5 -87q0 -34 15.5 -63t45 -42.5t64.5 -13.5z" />
    <glyph glyph-name="quotesingle" unicode="'" horiz-adv-x="162" 
d="M48 371v296h66v-296h-66z" />
    <glyph glyph-name="parenleft" unicode="(" horiz-adv-x="273" 
d="M240 -65q-42 29 -78 68.5t-62.5 90t-42 112t-15.5 135.5q0 73 15 134.5t41 111t61 86t74 60.5l35 -45q-42 -33 -71.5 -67t-48 -75t-27 -91t-8.5 -114q0 -67 13 -121.5t35 -98t51 -77.5t61 -59z" />
    <glyph glyph-name="parenright" unicode=")" horiz-adv-x="274" 
d="M33 -65l-33 50q54 42 91.5 100.5t53 123.5t15.5 132q0 93 -19 159t-56.5 110.5t-79.5 77.5l35 45q64 -40 108.5 -104t63.5 -139.5t19 -148.5q0 -105 -33 -192t-78 -135.5t-87 -78.5z" />
    <glyph glyph-name="asterisk" unicode="*" horiz-adv-x="404" 
d="M174 339v140l-114 -81l-27 53l121 84l-121 87l30 50l111 -80v133h54v-133l113 79l30 -48l-122 -87l121 -87l-27 -52l-115 82v-140h-54z" />
    <glyph glyph-name="plus" unicode="+" 
d="M223 77v220h-191v70h191v219h67v-219h191v-70h-191v-220h-67z" />
    <glyph glyph-name="comma" unicode="," horiz-adv-x="183" 
d="M55 -117l-22 31q17 15 33 35t18 38q-17 2 -32.5 16.5t-15.5 40.5q0 22 13.5 40t40.5 18q26 0 39.5 -20t13.5 -47q0 -49 -31 -91t-57 -61z" />
    <glyph glyph-name="hyphen" unicode="-" horiz-adv-x="277" 
d="M41 225v71h196v-71h-196z" />
    <glyph glyph-name="period" unicode="." horiz-adv-x="188" 
d="M94 -11q-23 0 -38 15t-15 41t15 41.5t38 15.5q24 0 38.5 -15.5t14.5 -41.5t-14.5 -41t-38.5 -15z" />
    <glyph glyph-name="slash" unicode="/" horiz-adv-x="456" 
d="M58 -23l-58 36l400 745l56 -33z" />
    <glyph glyph-name="zero" unicode="0" 
d="M257 -14q-59 0 -101.5 30t-70.5 78.5t-41.5 110t-13.5 125.5q0 103 31.5 186.5t83.5 120t112 36.5q82 0 135.5 -59.5t72 -139.5t18.5 -144q0 -104 -32 -187t-84 -120t-110 -37zM257 57q53 0 87 47t46 112t12 115q0 80 -20 144.5t-54 95t-71 30.5q-39 0 -67 -23.5
t-45.5 -61.5t-26 -86.5t-8.5 -98.5t8.5 -99t26.5 -88t45.5 -63t66.5 -24z" />
    <glyph glyph-name="one" unicode="1" 
d="M255 0v569l-143 -96l-37 55l190 132h67v-660h-77z" />
    <glyph glyph-name="two" unicode="2" 
d="M56 0v44q0 59 18.5 93t68.5 80l88 80q87 79 105 113.5t18 75.5q0 57 -28.5 86.5t-81.5 29.5q-38 0 -74.5 -18t-82.5 -64l-38 57q29 30 62.5 53t69 33t71.5 10q64 0 107.5 -29t60 -69t16.5 -79q0 -64 -28.5 -113t-92.5 -105l-96 -84q-47 -40 -64 -67t-17 -59h314v-68h-396
z" />
    <glyph glyph-name="three" unicode="3" 
d="M228 -13q-65 0 -113 18.5t-80 48.5l33 65q37 -32 73 -47t85 -15q42 0 75 17.5t48 51t15 72.5q0 56 -24.5 88t-61 41.5t-70.5 9.5q-26 0 -68 -5v55q34 50 91.5 114t93.5 90h-280v68h367v-78q-42 -26 -96 -82.5t-90 -104.5q4 1 19 1q65 0 111.5 -26t66.5 -71t20 -95
q0 -73 -35.5 -125.5t-86 -71.5t-93.5 -19z" />
    <glyph glyph-name="four" unicode="4" 
d="M326 0v168h-289v71l312 420h48v-424h69v-67h-69v-168h-71zM110 235h216v289z" />
    <glyph glyph-name="five" unicode="5" 
d="M232 -13q-47 0 -88 12t-67 27t-35 26l31 68q27 -24 68 -43.5t92 -19.5q46 0 79.5 19.5t47 53.5t13.5 73q0 72 -43.5 113.5t-131.5 41.5q-35 0 -59 -3.5t-41 -7.5v312h327v-68h-256v-172q29 4 48 4q109 0 170.5 -56.5t61.5 -159.5q0 -82 -36.5 -135t-86 -69t-94.5 -16z
" />
    <glyph glyph-name="six" unicode="6" 
d="M270 -13q-54 0 -93 22.5t-64 59.5t-36.5 84.5t-11.5 97.5q0 102 27.5 181.5t75.5 133.5t115 77.5t139 23.5l15 -60q-93 0 -170 -48.5t-106 -165.5q25 17 54 27t62 10q64 0 108 -37t61.5 -89t17.5 -97t-13.5 -85t-38.5 -70t-61 -47.5t-81 -17.5zM271 54q40 0 69.5 26
t39 61.5t9.5 63.5q0 49 -18 86t-48.5 53.5t-60.5 16.5q-33 0 -62 -11t-52 -29q-5 -29 -5 -70q0 -32 6 -67t21 -64t39.5 -47.5t61.5 -18.5z" />
    <glyph glyph-name="seven" unicode="7" 
d="M152 0q8 106 45 223.5t89 209.5t103 158h-333v68h414v-68q-107 -141 -165.5 -290t-72.5 -301h-80z" />
    <glyph glyph-name="eight" unicode="8" 
d="M257 -13q-37 0 -73 12t-64 36.5t-45.5 61t-17.5 84.5q0 52 22.5 95t68.5 68q-37 26 -59 66t-22 85q0 64 35 107t77.5 57t77.5 14q57 0 102.5 -26t65.5 -65t20 -82q0 -48 -21.5 -87.5t-57.5 -67.5q44 -23 66.5 -67.5t22.5 -95.5q0 -72 -36 -118.5t-80.5 -61.5t-81.5 -15z
M257 56q38 0 68 17.5t43.5 46t13.5 60.5q0 44 -22.5 75.5t-52 43.5t-51.5 12q-38 0 -69 -20.5t-44 -49.5t-13 -59q0 -45 23 -75.5t51.5 -40.5t52.5 -10zM256 376q34 0 62.5 19t40.5 45t12 55q0 40 -20 66t-47 35.5t-47 9.5q-35 0 -64 -17t-40.5 -41.5t-11.5 -52.5
q0 -29 10 -51.5t26.5 -37.5t37 -22.5t41.5 -7.5z" />
    <glyph glyph-name="nine" unicode="9" 
d="M125 -9q-18 0 -24 1l9 66q5 0 8.5 -0.5t8.5 -0.5q60 0 110 25t80.5 75.5t44.5 109.5q-25 -17 -54 -27t-62 -10q-45 0 -79.5 18t-58.5 49t-36.5 71t-12.5 85q0 70 30 122.5t74.5 75t89.5 22.5q75 0 123.5 -44.5t65 -107.5t16.5 -112q0 -102 -25.5 -180.5t-70 -131
t-105.5 -79.5t-132 -27zM261 299q33 0 62 11t52 29q5 28 5 70q0 56 -14.5 101.5t-46 70.5t-67.5 25q-44 0 -72.5 -28.5t-37 -61.5t-8.5 -61q0 -32 8 -60t24 -49.5t39.5 -34t55.5 -12.5z" />
    <glyph glyph-name="colon" unicode=":" horiz-adv-x="188" 
d="M94 364q-23 0 -38 15t-15 41t15 41.5t38 15.5q24 0 38.5 -15.5t14.5 -41.5t-14.5 -41t-38.5 -15zM94 -11q-23 0 -38 15t-15 41t15 41.5t38 15.5q24 0 38.5 -15.5t14.5 -41.5t-14.5 -41t-38.5 -15z" />
    <glyph glyph-name="semicolon" unicode=";" horiz-adv-x="194" 
d="M55 -117l-22 31q17 15 33 35t18 38q-17 2 -32.5 16.5t-15.5 40.5q0 22 13.5 40t40.5 18q26 0 39.5 -20t13.5 -47q0 -49 -31 -91t-57 -61zM106 364q-23 0 -38 15t-15 41t15 41.5t38 15.5q24 0 38.5 -15.5t14.5 -41.5t-14.5 -41t-38.5 -15z" />
    <glyph glyph-name="less" unicode="&#x3c;" 
d="M452 138l-401 166v58l388 156l27 -67l-294 -116l307 -125z" />
    <glyph glyph-name="equal" unicode="=" 
d="M32 148v70h449v-70h-449zM32 373v69h449v-69h-449z" />
    <glyph glyph-name="greater" unicode="&#x3e;" 
d="M77 138l-26 72l307 125l-295 116l28 67l388 -156v-58z" />
    <glyph glyph-name="question" unicode="?" horiz-adv-x="352" 
d="M166 -11q-22 0 -36.5 14.5t-14.5 39.5t14.5 40t36.5 15q23 0 37 -15t14 -40t-14 -39.5t-37 -14.5zM131 184v42q0 47 22 81t48 63q33 36 51.5 64t18.5 70q0 51 -26 78t-74 27q-43 0 -75 -26.5t-57 -64.5l-50 38q35 62 84.5 89.5t100.5 27.5q85 0 128.5 -45.5t43.5 -120.5
q0 -51 -20 -86t-53 -71q-45 -49 -58.5 -75t-13.5 -55v-36h-70z" />
    <glyph glyph-name="at" unicode="@" horiz-adv-x="737" 
d="M437 -157q-82 0 -142 19t-103 51t-70.5 73t-43.5 84t-22 86t-6 78q0 85 23 161t67.5 132.5t111 89.5t153.5 33q102 0 159.5 -40t74 -89t16.5 -85v-403h-73v29q-20 -17 -53 -28.5t-69 -11.5q-39 0 -71.5 15.5t-56 44t-37 68t-13.5 87.5q0 71 28.5 120.5t70 68.5t79.5 19
q40 0 70 -10.5t52 -24.5v21q0 72 -43 114t-134 42q-73 0 -126 -29.5t-87 -78t-50 -112.5t-16 -133q0 -55 14.5 -114t55.5 -109t107.5 -74t144.5 -25q82 0 138 14.5t94 30.5l17 -70q-47 -21 -125 -32.5t-135 -11.5zM460 84q39 0 69 10t52 27v231q-57 31 -116 31
q-52 0 -80.5 -38t-28.5 -104q0 -32 7 -60t20.5 -50t33 -34.5t43.5 -12.5z" />
    <glyph glyph-name="A" unicode="A" horiz-adv-x="540" 
d="M0 0l237 667h62l241 -667h-83l-75 206h-232l-70 -206h-80zM175 277h182l-92 276z" />
    <glyph glyph-name="B" unicode="B" horiz-adv-x="510" 
d="M77 0v667h180q96 0 144 -46t48 -124q0 -64 -34.5 -98.5t-88.5 -44.5q46 -6 82 -27.5t55 -58.5t19 -82q0 -65 -29 -109t-72.5 -60.5t-83.5 -16.5h-220zM153 69h141q48 0 77.5 29.5t29.5 89.5q0 127 -147 127h-101v-246zM153 384h98q57 0 88 32t31 84q0 98 -110 98h-107
v-214z" />
    <glyph glyph-name="C" unicode="C" horiz-adv-x="541" 
d="M311 -13q-56 0 -104 19.5t-83.5 61t-56 106.5t-20.5 157q0 129 45 213t105.5 110t109.5 26q69 0 118 -29t86 -92l-56 -46q-26 36 -45 54t-48 29t-57 11q-84 0 -131 -72t-47 -205q0 -65 14.5 -115.5t39 -85t58.5 -52t73 -17.5q58 0 94 18t69 50l28 -72q-37 -37 -93.5 -53
t-98.5 -16z" />
    <glyph glyph-name="D" unicode="D" horiz-adv-x="581" 
d="M77 0v667h163q38 0 77.5 -6.5t73.5 -23.5q52 -27 88 -71.5t52 -105t16 -117.5q0 -97 -28.5 -167t-77 -111t-96.5 -53t-105 -12h-163zM153 69h78q60 0 96 14q42 19 76.5 56.5t48.5 90.5t14 109q0 87 -25 140t-69 83q-28 19 -65 27.5t-72 8.5h-82v-529z" />
    <glyph glyph-name="E" unicode="E" horiz-adv-x="488" 
d="M77 0v667h370v-69h-294v-214h210v-69h-211v-246h317v-69h-392z" />
    <glyph glyph-name="F" unicode="F" horiz-adv-x="438" 
d="M77 0v667h359v-69h-283v-225h209v-69h-210v-304h-75z" />
    <glyph glyph-name="G" unicode="G" horiz-adv-x="567" 
d="M317 -13q-56 0 -105 19.5t-85.5 61t-58 106.5t-21.5 157q0 133 44 215.5t102.5 108t108.5 25.5q43 0 75 -9t57 -25t43.5 -38t33.5 -48l-56 -47q-29 44 -62 70t-84 26q-60 0 -104 -38.5t-61 -103t-17 -137.5q0 -65 15.5 -116t41.5 -86t60.5 -53t73.5 -18q43 0 74.5 5.5
t51.5 12.5v174h-105v70h181v-294q-28 -13 -82.5 -25.5t-120.5 -12.5z" />
    <glyph glyph-name="H" unicode="H" horiz-adv-x="622" 
d="M77 0v667h76v-289h317v289h75v-667h-75v307h-317v-307h-76z" />
    <glyph glyph-name="I" unicode="I" horiz-adv-x="230" 
d="M77 0v667h76v-667h-76z" />
    <glyph glyph-name="J" unicode="J" horiz-adv-x="348" 
d="M120 -11q-48 0 -78.5 10.5t-45.5 20.5l25 68q9 -10 37 -20.5t58 -10.5q44 0 67.5 24t23.5 86v500h76v-507q0 -87 -42 -129t-121 -42z" />
    <glyph glyph-name="K" unicode="K" horiz-adv-x="541" 
d="M435 0l-85 207q-25 57 -36 72.5t-29 23.5t-39 8h-93v-310h-76v666h76v-291h81q28 0 48.5 13.5t41.5 60.5l95 217h82l-101 -226q-16 -35 -33 -55.5t-37 -28.5q29 -8 45.5 -27t30.5 -54l110 -276h-81z" />
    <glyph glyph-name="L" unicode="L" horiz-adv-x="466" 
d="M77 0v667h76v-598h294v-69h-370z" />
    <glyph glyph-name="M" unicode="M" horiz-adv-x="714" 
d="M327 -11l-174 529l-23 -518h-66l29 667h89l174 -545l181 545h88l28 -667h-73l-23 515l-180 -526h-50z" />
    <glyph glyph-name="N" unicode="N" horiz-adv-x="625" 
d="M77 0v667h77l319 -497v497h75v-667h-56l-340 529v-529h-75z" />
    <glyph glyph-name="O" unicode="O" horiz-adv-x="628" 
d="M314 -13q-70 0 -120.5 30t-83 78.5t-48 111t-15.5 127.5q0 104 36 188t98 121t133 37q99 0 162 -60t84 -140.5t21 -145.5t-15.5 -127.5t-48 -111t-83 -78.5t-120.5 -30zM314 58q68 0 114 49t60 112t14 115q0 82 -25 147.5t-69.5 96.5t-93.5 31q-70 0 -115 -48.5t-59 -112
t-14 -114.5q0 -52 11.5 -101.5t34.5 -88.5t58.5 -62.5t83.5 -23.5z" />
    <glyph glyph-name="P" unicode="P" horiz-adv-x="507" 
d="M77 0v667h198q109 0 161.5 -51t52.5 -151q0 -97 -55.5 -147t-161.5 -50h-119v-268h-76zM153 338h124q58 0 94.5 30t36.5 99t-34.5 100t-97.5 31h-123v-260z" />
    <glyph glyph-name="Q" unicode="Q" horiz-adv-x="628" 
d="M599 -33q-42 54 -101 103q-32 -38 -78 -60.5t-106 -22.5q-70 0 -120.5 30t-83 78.5t-48 111t-15.5 127.5q0 104 36 188t98 121t133 37q99 0 162 -60t84 -140.5t21 -145.5q0 -55 -10.5 -107.5t-33.5 -97.5q61 -46 114 -117zM314 58q38 0 67.5 14.5t52.5 40.5
q-52 29 -122 52l22 66q79 -25 137 -59q16 35 23.5 76.5t7.5 85.5q0 82 -25 147.5t-69.5 96.5t-93.5 31q-70 0 -115 -48.5t-59 -112t-14 -114.5q0 -52 11.5 -101.5t34.5 -88.5t58.5 -62.5t83.5 -23.5z" />
    <glyph glyph-name="R" unicode="R" horiz-adv-x="551" 
d="M77 0v667h203q106 0 156.5 -50t50.5 -132q0 -52 -21.5 -90t-47 -53.5t-39.5 -19.5q34 -12 51 -40.5t29 -72.5q6 -22 14 -49.5t16 -56.5l27 -103h-78l-27 104q-19 72 -42 127q-13 27 -23 38t-29.5 17t-39.5 6h-124v-292h-76zM153 361h123q132 0 132 124q0 57 -32.5 85
t-93.5 28h-129v-237z" />
    <glyph glyph-name="S" unicode="S" horiz-adv-x="490" 
d="M237 -14q-33 0 -63.5 6t-56 16t-45.5 21.5t-34 23.5l33 71q37 -31 78 -49t91 -18q42 0 74 15t46 42.5t14 58.5q0 49 -34.5 78t-114.5 60q-59 21 -100 49t-58.5 63.5t-17.5 77.5q0 63 35.5 106.5t81.5 57.5t86 14q62 0 115 -23.5t88 -65.5l-37 -58q-71 76 -170 76
q-56 0 -87 -26.5t-31 -73.5q0 -38 21 -62.5t56 -41t72 -30.5q68 -28 105 -53t54 -61t17 -79q0 -74 -36 -120.5t-87 -60t-95 -14.5z" />
    <glyph glyph-name="T" unicode="T" horiz-adv-x="485" 
d="M205 0v598h-196v69h468v-69h-197v-598h-75z" />
    <glyph glyph-name="U" unicode="U" horiz-adv-x="615" 
d="M305 -13q-76 0 -132 34t-78 88.5t-22 113.5v444h76v-429q0 -85 41.5 -132.5t116.5 -47.5t117 46t42 134v429h76v-444q0 -84 -40 -141t-95.5 -75.5t-101.5 -19.5z" />
    <glyph glyph-name="V" unicode="V" horiz-adv-x="527" 
d="M230 0l-230 667h84l182 -550l181 550h80l-227 -667h-70z" />
    <glyph glyph-name="W" unicode="W" horiz-adv-x="713" 
d="M148 0l-148 667h77l108 -521l151 521h56l135 -517l109 517h77l-154 -667h-58l-141 517l-152 -517h-60z" />
    <glyph glyph-name="X" unicode="X" horiz-adv-x="490" 
d="M0 0l197 342l-180 325h92l136 -262l139 262h87l-180 -319l199 -348h-95l-152 286l-156 -286h-87z" />
    <glyph glyph-name="Y" unicode="Y" horiz-adv-x="516" 
d="M216 0v320l-216 347h86l170 -270l177 270h83l-224 -346v-321h-76z" />
    <glyph glyph-name="Z" unicode="Z" horiz-adv-x="508" 
d="M36 0v74l357 524h-341v69h411v-86l-348 -512h362v-69h-441z" />
    <glyph glyph-name="bracketleft" unicode="[" horiz-adv-x="217" 
d="M67 -143v879h140v-63h-72v-752h72v-64h-140z" />
    <glyph glyph-name="backslash" unicode="\" horiz-adv-x="449" 
d="M390 -11l-390 736l62 36l387 -731z" />
    <glyph glyph-name="bracketright" unicode="]" horiz-adv-x="217" 
d="M10 -143v64h72v752h-72v63h140v-879h-140z" />
    <glyph glyph-name="asciicircum" unicode="^" horiz-adv-x="477" 
d="M125 292l-67 26l151 351h55l155 -337l-65 -29l-118 257z" />
    <glyph glyph-name="underscore" unicode="_" horiz-adv-x="500" 
d="M0 -220v70h500v-70h-500z" />
    <glyph glyph-name="grave" unicode="`" horiz-adv-x="420" 
d="M279 544l-173 124l49 52l159 -139z" />
    <glyph glyph-name="a" unicode="a" horiz-adv-x="447" 
d="M191 -11q-30 0 -57.5 9.5t-49.5 28t-35 46.5t-13 65q0 70 51 110.5t115 51t109 10.5v6q0 60 -24.5 86t-69.5 26q-32 0 -65 -12.5t-64 -37.5l-24 56q26 20 64 37.5t95 17.5q76 0 118.5 -41t42.5 -137v-311h-67l-3 41q-24 -25 -55 -38.5t-68 -13.5zM200 52q33 0 60.5 14.5
t50.5 34.5v148q-64 -2 -110.5 -13.5t-68.5 -37t-22 -61.5q0 -32 18.5 -54t37.5 -26.5t34 -4.5z" />
    <glyph glyph-name="b" unicode="b" horiz-adv-x="498" 
d="M228 -11q-52 0 -93 11.5t-69 24.5v642h73v-205q29 14 56.5 20t53.5 6q65 0 114.5 -36t70 -94.5t20.5 -119.5q0 -86 -37.5 -146t-89 -81.5t-99.5 -21.5zM218 50q77 0 121 51.5t44 138.5q0 64 -24 107t-58 60.5t-65 17.5q-23 0 -47.5 -6.5t-49.5 -23.5v-327q17 -8 38 -13
t41 -5z" />
    <glyph glyph-name="c" unicode="c" horiz-adv-x="450" 
d="M255 -11q-41 0 -79 15t-67 46t-47 77.5t-18 109.5q0 95 37 155.5t84 78.5t85 18q50 0 88 -19.5t55.5 -42.5t25.5 -37l-51 -38q-22 34 -47.5 54.5t-69.5 20.5q-42 0 -75 -28.5t-46.5 -71.5t-13.5 -88t11.5 -80t31 -59t45.5 -36.5t55 -12.5q46 0 76.5 14t54.5 37l21 -63
q-26 -23 -67.5 -36.5t-88.5 -13.5z" />
    <glyph glyph-name="d" unicode="d" horiz-adv-x="498" 
d="M245 -11q-48 0 -85.5 19.5t-63 53.5t-39 80.5t-13.5 100.5q0 75 32 135t81 85.5t104 25.5q35 0 59.5 -5.5t41.5 -12.5v196h73v-667h-67l-6 39q-25 -27 -53.5 -38.5t-63.5 -11.5zM257 51q29 0 56 12.5t49 41.5v299q-18 10 -45 16.5t-44 6.5q-56 0 -95 -33t-50.5 -76.5
t-11.5 -78.5q0 -63 20.5 -109t52.5 -62.5t68 -16.5z" />
    <glyph glyph-name="e" unicode="e" horiz-adv-x="483" 
d="M266 -11q-102 0 -162 64.5t-60 187.5q0 82 30.5 142t77.5 83t94 23q71 0 118 -37t64.5 -96t17.5 -113h-330q0 -90 39 -141t113 -51q44 0 78 15t61 38l19 -63q-22 -22 -67.5 -37t-92.5 -15zM123 304h240q-2 41 -21.5 71t-47.5 41.5t-48 11.5q-45 0 -78 -28.5t-45 -95.5z
" />
    <glyph glyph-name="f" unicode="f" horiz-adv-x="278" 
d="M86 0v414h-67v63h67v35q0 64 21.5 104t54 52t62.5 12q42 0 80 -14l-7 -64q-14 7 -32 10.5t-35 3.5q-47 0 -59 -29t-12 -76v-34h108v-63h-107v-414h-74z" />
    <glyph glyph-name="g" unicode="g" horiz-adv-x="498" 
d="M226 -198q-41 0 -91 12t-69 24l17 67q27 -16 62 -27.5t80 -11.5q72 0 104.5 35.5t32.5 96.5v47q-25 -27 -53.5 -38.5t-63.5 -11.5q-48 0 -85.5 18.5t-63 51.5t-39 78.5t-13.5 99.5q0 46 14 90.5t42.5 79t71.5 55.5t102 21q38 0 80.5 -7.5t80.5 -22.5v-461
q0 -67 -29.5 -112t-79 -64.5t-100.5 -19.5zM257 57q29 0 56 12.5t49 41.5v301q-39 15 -89 15q-56 0 -95 -33t-50.5 -76.5t-11.5 -78.5q0 -61 20 -106t52 -60.5t69 -15.5z" />
    <glyph glyph-name="h" unicode="h" horiz-adv-x="512" 
d="M66 0v667h73v-228q28 21 62.5 35.5t78.5 14.5q92 0 130.5 -49t38.5 -143v-297h-74v298q0 66 -25.5 97.5t-82.5 31.5q-36 0 -69.5 -17.5t-58.5 -36.5v-373h-73z" />
    <glyph glyph-name="i" unicode="i" horiz-adv-x="205" 
d="M66 0v477h74v-477h-74zM103 561q-20 0 -34.5 12.5t-14.5 36.5q0 23 14.5 36t34.5 13t34 -13t14 -36q0 -24 -14 -36.5t-34 -12.5z" />
    <glyph glyph-name="j" unicode="j" horiz-adv-x="205" 
d="M31 -197l-29 60q46 33 55 58.5t9 61.5v494h74v-492q0 -70 -27.5 -111.5t-81.5 -70.5zM103 561q-20 0 -34.5 12.5t-14.5 36.5q0 23 14.5 36t34.5 13t34 -13t14 -36q0 -24 -14 -36.5t-34 -12.5z" />
    <glyph glyph-name="k" unicode="k" horiz-adv-x="450" 
d="M66 0v667h73v-367h49q28 0 50 14.5t43 61.5l44 101h79l-50 -110q-16 -35 -33 -58t-37 -31q28 -8 45 -24.5t31 -51.5l80 -202h-81l-54 133q-23 52 -34 69.5t-30 25.5t-41 8h-61v-236h-73z" />
    <glyph glyph-name="l" unicode="l" horiz-adv-x="248" 
d="M163 -9q-59 0 -81 33t-22 102v541h73v-553q0 -33 10 -47.5t31 -14.5q19 0 47 14l17 -57q-13 -7 -32.5 -12.5t-42.5 -5.5z" />
    <glyph glyph-name="m" unicode="m" horiz-adv-x="787" 
d="M66 0v477h67l5 -38q23 17 59 33.5t79 16.5q36 0 69.5 -13t56.5 -48q29 25 69.5 43t89.5 18q70 0 106 -29t46.5 -76.5t10.5 -95.5v-288h-74v298q0 60 -22 93.5t-80 33.5q-36 0 -72 -18t-55 -35q9 -31 9 -84v-288h-73v298q0 41 -11 71t-34 43t-50 13q-33 0 -65.5 -17.5
t-57.5 -35.5v-372h-73z" />
    <glyph glyph-name="n" unicode="n" horiz-adv-x="514" 
d="M66 0v477h67l5 -38q28 22 65 36t78 14q94 0 132 -48t38 -144v-297h-73v299q0 60 -25.5 94t-83.5 34q-37 0 -71 -16.5t-59 -36.5v-374h-73z" />
    <glyph glyph-name="o" unicode="o" horiz-adv-x="509" 
d="M255 -11q-53 0 -92.5 21.5t-65.5 57t-39.5 81t-13.5 92.5q0 71 29 133t79 88.5t103 26.5q74 0 124 -42.5t68.5 -101.5t18.5 -106q0 -74 -31.5 -137t-79.5 -88t-100 -25zM255 51q47 0 81 32t46 77t12 80q0 55 -20.5 101.5t-52.5 66.5t-66 20q-51 0 -85 -34t-44 -76
t-10 -77q0 -57 20 -104.5t52 -66.5t67 -19z" />
    <glyph glyph-name="p" unicode="p" horiz-adv-x="498" 
d="M66 -189v666h66l6 -35q29 25 61.5 36t69.5 11q72 0 115.5 -42t56.5 -98.5t13 -104.5q0 -86 -36.5 -148t-88.5 -84t-101 -23q-54 0 -89 16v-194h-73zM214 51q54 0 94 27.5t56.5 72.5t16.5 90q0 55 -16.5 99.5t-47 65.5t-67.5 21q-31 0 -59.5 -14t-51.5 -37v-304
q11 -8 30.5 -14.5t44.5 -6.5z" />
    <glyph glyph-name="q" unicode="q" horiz-adv-x="501" 
d="M362 -189v204q-22 -12 -49.5 -19.5t-59.5 -7.5q-44 0 -82 17.5t-66.5 50t-44.5 79t-16 104.5q0 83 38 144t92.5 83.5t107.5 22.5q69 0 153 -13v-665h-73zM269 52q26 0 51 9t42 20v339q-33 7 -79 7q-49 0 -90 -28t-58.5 -71.5t-17.5 -90.5q0 -41 12 -75t33 -58.5t48.5 -38
t58.5 -13.5z" />
    <glyph glyph-name="r" unicode="r" horiz-adv-x="295" 
d="M66 0v477h66l7 -48q27 25 56.5 42.5t63.5 17.5q18 0 41 -5l-9 -71q-19 4 -36 4q-32 0 -62.5 -18.5t-53.5 -41.5v-357h-73z" />
    <glyph glyph-name="s" unicode="s" horiz-adv-x="391" 
d="M200 -11q-42 0 -75 10t-55 23t-30 21l26 62q22 -19 55.5 -36.5t78.5 -17.5q46 0 69.5 18t23.5 57q0 50 -118 96q-68 25 -96 55.5t-28 80.5q0 58 40.5 94.5t107.5 36.5q53 0 91 -16.5t62 -39.5l-31 -55q-24 23 -54 36t-67 13q-42 0 -60.5 -20t-18.5 -44q0 -46 110 -86
q63 -23 96.5 -55.5t33.5 -90.5q0 -51 -25.5 -83.5t-63 -45.5t-72.5 -13z" />
    <glyph glyph-name="t" unicode="t" horiz-adv-x="312" 
d="M202 -11q-51 0 -78.5 27.5t-27.5 84.5v313h-78v63h78v130h73v-130h119v-63h-120v-305q0 -35 13 -46.5t33 -11.5q32 0 66 26l20 -58q-17 -12 -41.5 -21t-56.5 -9z" />
    <glyph glyph-name="u" unicode="u" horiz-adv-x="511" 
d="M233 -11q-90 0 -130 46t-40 140v302h73v-306q0 -63 27.5 -91.5t81.5 -28.5q35 0 69.5 15.5t56.5 37.5v373h75v-477h-68l-5 37q-28 -22 -60 -35t-80 -13z" />
    <glyph glyph-name="v" unicode="v" horiz-adv-x="424" 
d="M165 0l-165 477h79l130 -395l141 395h74l-175 -477h-84z" />
    <glyph glyph-name="w" unicode="w" horiz-adv-x="628" 
d="M140 0l-140 477h79l99 -371l115 371h45l113 -370l99 370h78l-140 -477h-67l-107 346l-108 -346h-66z" />
    <glyph glyph-name="x" unicode="x" horiz-adv-x="383" 
d="M0 0l152 244l-145 233h81l103 -173l103 173h79l-143 -230l153 -247h-81l-111 183l-109 -183h-82z" />
    <glyph glyph-name="y" unicode="y" horiz-adv-x="453" 
d="M4 -193l-8 68q72 0 108.5 18t59.5 50q14 23 22 40l-178 494h82l143 -415q39 87 73.5 193.5t63.5 221.5h78q-47 -178 -90 -291.5t-76 -180.5q-19 -38 -39.5 -73.5t-50.5 -63t-75 -44t-113 -17.5z" />
    <glyph glyph-name="z" unicode="z" horiz-adv-x="429" 
d="M38 0v75l270 339h-260v63h335v-79l-271 -335h278v-63h-352z" />
    <glyph glyph-name="braceleft" unicode="{" horiz-adv-x="238" 
d="M222 -62q-62 1 -93 27.5t-31 94.5v149q0 49 -22.5 74t-57.5 30v43q35 5 57.5 30t22.5 74v149q0 68 31 94t93 28l6 -51q-44 -2 -55.5 -21.5t-11.5 -64.5v-134q0 -54 -18 -82.5t-61 -43.5q43 -14 61 -42.5t18 -82.5v-135q0 -60 16.5 -72t50.5 -14z" />
    <glyph glyph-name="bar" unicode="|" horiz-adv-x="201" 
d="M67 -74v812h68v-812h-68z" />
    <glyph glyph-name="braceright" unicode="}" horiz-adv-x="238" 
d="M16 -62l-6 50q43 2 55.5 23.5t12.5 62.5v135q0 54 17 82.5t60 42.5q-43 15 -60 43.5t-17 82.5v134q0 42 -12.5 63t-55.5 23l6 51q62 -2 93 -28t31 -94v-149q0 -49 22 -74t58 -30v-43q-36 -5 -58 -30t-22 -74v-149q0 -68 -31 -94.5t-93 -27.5z" />
    <glyph glyph-name="asciitilde" unicode="~" horiz-adv-x="423" 
d="M297 502q-29 0 -47.5 9t-35.5 22q-27 22 -41 33q-19 16 -39 16q-40 0 -55.5 -21.5t-19.5 -53.5h-61q8 67 41 105t93 38q32 0 51.5 -9t38.5 -23q14 -9 37 -29q21 -17 34 -17q39 0 52.5 23t17.5 57h62q-3 -53 -27.5 -90.5t-52 -48.5t-48.5 -11z" />
    <glyph glyph-name="uni00A0" unicode="&#xa0;" horiz-adv-x="281" 
 />
    <glyph glyph-name="exclamdown" unicode="&#xa1;" horiz-adv-x="188" 
d="M57 -189v463h72v-463h-72zM94 380q-23 0 -37 15t-14 40t14 39.5t37 14.5q22 0 36.5 -14.5t14.5 -39.5t-14.5 -40t-36.5 -15z" />
    <glyph glyph-name="cent" unicode="&#xa2;" 
d="M244 -4v145q-75 11 -116.5 64t-41.5 132q0 59 25.5 103.5t62 63.5t70.5 24v139h52v-139q38 -1 66.5 -15.5t45.5 -29.5l-30 -53q-19 17 -39 26t-43 9v-260q20 1 40 7.5t35 15.5l23 -58q-17 -12 -44.5 -21t-53.5 -10v-143h-52zM244 208v256q-38 -5 -61.5 -37.5t-23.5 -89.5
q0 -54 22 -84.5t63 -44.5z" />
    <glyph glyph-name="sterling" unicode="&#xa3;" 
d="M109 0v251h-65v68h65v150q0 100 46.5 152t132.5 52q64 0 104.5 -29.5t66.5 -79.5l-59 -46q-30 51 -57.5 66.5t-55.5 15.5q-52 0 -77.5 -31.5t-25.5 -103.5v-146h207v-68h-207v-183h278v-68h-353z" />
    <glyph glyph-name="currency" unicode="&#xa4;" horiz-adv-x="586" 
d="M78 93l-46 46l69 69q-22 29 -34.5 63.5t-12.5 73.5t12.5 73.5t34.5 63.5l-69 69l46 46l70 -69q29 20 63.5 31.5t72.5 11.5t72.5 -11.5t63.5 -32.5l70 70l46 -46l-69 -69q47 -59 47 -137t-47 -137l69 -69l-46 -46l-69 70q-29 -21 -63.5 -32.5t-73.5 -11.5
q-38 0 -72.5 11.5t-63.5 32.5zM284 177q50 0 91 28t57 66.5t16 73.5q0 52 -28 93.5t-65.5 58t-70.5 16.5q-52 0 -91 -27.5t-56 -66.5t-17 -74q0 -51 27.5 -93.5t65 -58.5t71.5 -16z" />
    <glyph glyph-name="yen" unicode="&#xa5;" 
d="M215 0v217h-136v68h136v27l-31 53h-105v68h66l-130 226h87l154 -270l161 270h83l-137 -226h64v-68h-105l-31 -52v-28h132v-68h-132v-217h-76z" />
    <glyph glyph-name="brokenbar" unicode="&#xa6;" horiz-adv-x="182" 
d="M57 -74v275h68v-275h-68zM57 462v276h68v-276h-68z" />
    <glyph glyph-name="section" unicode="&#xa7;" horiz-adv-x="400" 
d="M190 -144q-48 0 -81.5 15.5t-55.5 36.5l28 56q20 -22 47 -35.5t58 -13.5q40 0 63 19t23 52q0 40 -34.5 71.5t-81.5 65.5q-50 34 -78.5 69.5t-28.5 88.5q0 39 19.5 69.5t47 45.5t50.5 21q-61 52 -72.5 76.5t-11.5 67.5q0 55 38.5 87t98.5 32q48 0 80 -19.5t52 -41.5
l-37 -48q-19 24 -44.5 37.5t-51.5 13.5q-34 0 -53 -15t-19 -46q0 -30 26 -59t75 -73q54 -50 75 -73t29 -48t8 -50q0 -47 -26.5 -79t-73.5 -54q36 -27 58.5 -56t22.5 -75q0 -44 -24.5 -77.5t-60.5 -47t-65 -13.5zM214 158q36 14 57.5 39.5t21.5 57.5q0 46 -87 123
q-39 -7 -64 -30.5t-25 -65.5q0 -38 25.5 -64t71.5 -60z" />
    <glyph glyph-name="dieresis" unicode="&#xa8;" horiz-adv-x="420" 
d="M125 590q-20 0 -34.5 12.5t-14.5 36.5q0 23 14.5 36t34.5 13t34 -13t14 -36q0 -24 -14 -36.5t-34 -12.5zM296 590q-20 0 -34.5 12.5t-14.5 36.5q0 23 14.5 36t34.5 13t34 -13t14 -36q0 -24 -14 -36.5t-34 -12.5z" />
    <glyph glyph-name="copyright" unicode="&#xa9;" horiz-adv-x="776" 
d="M388 -77q-86 0 -150 32t-107 84.5t-64.5 119.5t-21.5 138q0 112 50.5 202.5t129 130t164.5 39.5q119 0 201.5 -64.5t111.5 -151t29 -156.5q0 -111 -49 -202.5t-129 -131.5t-165 -40zM389 -19q96 0 164.5 54t92 128.5t23.5 133.5q0 95 -41.5 171.5t-105.5 110t-133 33.5
q-70 0 -123 -27t-88 -71.5t-53 -101t-18 -115.5t18 -116t53.5 -101.5t88 -71.5t122.5 -27zM391 69q-39 0 -73 13t-58.5 40.5t-39 70t-14.5 102.5q0 85 30.5 140t73.5 73t82 18q56 0 90 -25.5t53 -59.5l-47 -30q-15 28 -37.5 44.5t-60.5 16.5q-54 0 -87.5 -44.5t-33.5 -132.5
q0 -85 35.5 -129t87.5 -44q33 0 56.5 17.5t42.5 45.5l46 -32q-23 -38 -57.5 -61t-88.5 -23z" />
    <glyph glyph-name="ordfeminine" unicode="&#xaa;" horiz-adv-x="325" 
d="M149 364q-22 0 -42.5 7t-37 21.5t-26.5 35.5t-10 49q0 53 36 83t82 38t80 8q0 42 -16.5 59.5t-47.5 17.5q-23 0 -46 -9.5t-45 -29.5l-24 46q20 17 49.5 31.5t70.5 14.5q57 0 88.5 -30.5t31.5 -102.5v-230h-56l-2 24q-14 -11 -36.5 -22t-48.5 -11zM155 419q23 0 42.5 9.5
t33.5 21.5v103q-42 0 -74 -9.5t-47.5 -27.5t-15.5 -40q0 -30 20 -43.5t41 -13.5z" />
    <glyph glyph-name="guillemotleft" unicode="&#xab;" horiz-adv-x="467" 
d="M216 54l-202 196l185 204l49 -39l-138 -160l151 -157zM400 54l-207 196l190 204l48 -37l-137 -162l150 -158z" />
    <glyph glyph-name="logicalnot" unicode="&#xac;" 
d="M407 146v297h-380v70h448v-367h-68z" />
    <glyph glyph-name="uni00AD" unicode="&#xad;" horiz-adv-x="277" 
d="M41 225v71h196v-71h-196z" />
    <glyph glyph-name="registered" unicode="&#xae;" horiz-adv-x="776" 
d="M388 -77q-86 0 -150 32t-107 84.5t-64.5 119.5t-21.5 138q0 112 50.5 202.5t129 130t164.5 39.5q119 0 201.5 -64.5t111.5 -151t29 -156.5q0 -111 -49 -202.5t-129 -131.5t-165 -40zM389 -19q96 0 164.5 54t92 128.5t23.5 133.5q0 95 -41.5 171.5t-105.5 110t-133 33.5
q-70 0 -123 -27t-88 -71.5t-53 -101t-18 -115.5t18 -116t53.5 -101.5t88 -71.5t122.5 -27zM249 80v441h143q75 0 110.5 -33.5t35.5 -88.5q0 -57 -30 -86.5t-75 -38.5l119 -194h-69l-117 189h-57v-189h-60zM309 323h80q86 0 86 76q0 69 -82 69h-84v-145z" />
    <glyph glyph-name="macron" unicode="&#xaf;" horiz-adv-x="420" 
d="M70 607v62h280v-62h-280z" />
    <glyph glyph-name="degree" unicode="&#xb0;" horiz-adv-x="345" 
d="M173 379q-28 0 -52.5 11.5t-43 31t-29 45.5t-10.5 56q0 28 10.5 54.5t29 46t43 31.5t52.5 12q42 0 73.5 -24t46 -58t14.5 -62q0 -43 -22.5 -79.5t-53 -50.5t-58.5 -14zM173 439q35 0 56.5 25.5t21.5 58.5t-21.5 58.5t-56.5 25.5q-34 0 -56 -24.5t-22 -59.5q0 -23 13 -46
t31 -30.5t34 -7.5z" />
    <glyph glyph-name="plusminus" unicode="&#xb1;" 
d="M29 0v67h455v-67h-455zM225 155v220h-191v70h191v219h67v-219h191v-70h-191v-220h-67z" />
    <glyph glyph-name="twosuperior" unicode="&#xb2;" horiz-adv-x="285" 
d="M39 336v29q0 26 7.5 46.5t31.5 40.5l46 40q59 52 59 86q0 21 -13 32.5t-34 11.5q-17 0 -37 -8.5t-43 -31.5l-25 43q18 17 45 32.5t67 15.5q49 0 76 -25t27 -64q0 -32 -14 -57t-46 -51l-51 -42q-30 -25 -30 -46h147v-52h-213z" />
    <glyph glyph-name="threesuperior" unicode="&#xb3;" horiz-adv-x="285" 
d="M139 332q-32 0 -60.5 10.5t-44.5 25.5l21 46q38 -32 84 -32q26 0 42.5 14t16.5 40q0 34 -23 47t-55 13q-19 0 -37 -3v40q15 22 38.5 46.5t44.5 38.5h-117v51h183v-56q-23 -15 -48 -35.5t-40 -40.5q58 0 84 -31t26 -65q0 -51 -33.5 -80t-81.5 -29z" />
    <glyph glyph-name="acute" unicode="&#xb4;" horiz-adv-x="420" 
d="M142 544l-36 37l159 139l49 -52z" />
    <glyph glyph-name="mu" unicode="&#xb5;" horiz-adv-x="545" 
d="M76 -189v666h74v-304q0 -66 28.5 -94t82.5 -28q44 0 73.5 18.5t41.5 44.5q9 18 9 69v294h74v-359q0 -34 6 -50t29 -16q14 0 26 4l11 -56q-25 -11 -49 -11q-32 0 -54 12.5t-33 46.5q-29 -31 -60 -45t-79 -14q-35 0 -63.5 11.5t-46.5 34.5v-224h-70z" />
    <glyph glyph-name="paragraph" unicode="&#xb6;" horiz-adv-x="481" 
d="M219 -145v421q-39 0 -72.5 15.5t-59 41.5t-40 61.5t-14.5 76.5q0 59 30.5 107t73.5 68.5t82 20.5h68v-812h-68zM350 -145v812h68v-812h-68z" />
    <glyph glyph-name="periodcentered" unicode="&#xb7;" horiz-adv-x="274" 
d="M137 312q-23 0 -38 15t-15 41t15 41.5t38 15.5q24 0 38.5 -15.5t14.5 -41.5t-14.5 -41t-38.5 -15z" />
    <glyph glyph-name="cedilla" unicode="&#xb8;" horiz-adv-x="420" 
d="M130 -174l48 130h78l-68 -130h-58z" />
    <glyph glyph-name="onesuperior" unicode="&#xb9;" horiz-adv-x="285" 
d="M130 337v262l-58 -34l-25 48l94 56h47v-332h-58z" />
    <glyph glyph-name="ordmasculine" unicode="&#xba;" horiz-adv-x="381" 
d="M190 368q-54 0 -93 32.5t-51.5 76.5t-12.5 79q0 56 22.5 101t58.5 64.5t76 19.5q55 0 93 -32t51.5 -76t13.5 -79q0 -54 -23.5 -101t-59.5 -66t-75 -19zM190 422q34 0 58 24t31.5 53.5t7.5 55.5q0 40 -14 72t-36.5 46t-46.5 14q-35 0 -58 -23t-30.5 -53t-7.5 -55
q0 -41 14 -74.5t36 -46.5t46 -13z" />
    <glyph glyph-name="guillemotright" unicode="&#xbb;" horiz-adv-x="467" 
d="M67 54l-44 43l150 158l-137 162l48 37l190 -204zM251 54l-45 44l151 157l-138 160l49 39l185 -204z" />
    <glyph glyph-name="onequarter" unicode="&#xbc;" horiz-adv-x="703" 
d="M61 -16l-36 44l606 642l42 -46zM130 337v262l-58 -34l-25 48l94 56h47v-332h-58zM543 0v67h-151v47l163 214h46v-217h39v-44h-39v-67h-58zM444 111h99v131z" />
    <glyph glyph-name="onehalf" unicode="&#xbd;" horiz-adv-x="703" 
d="M32 -16l-36 44l606 642l42 -46zM126 337v262l-58 -34l-25 48l94 56h47v-332h-58zM427 6v29q0 26 7.5 46.5t31.5 40.5l46 40q59 52 59 86q0 21 -13 32.5t-34 11.5q-17 0 -37 -8.5t-43 -31.5l-25 43q18 17 45 32.5t67 15.5q49 0 76 -25t27 -64q0 -32 -14 -57t-46 -51
l-51 -42q-30 -25 -30 -46h147v-52h-213z" />
    <glyph glyph-name="threequarters" unicode="&#xbe;" horiz-adv-x="703" 
d="M96 -16l-36 44l606 642l42 -46zM157 332q-32 0 -60.5 10.5t-44.5 25.5l21 46q38 -32 84 -32q26 0 42.5 14t16.5 40q0 34 -23 47t-55 13q-19 0 -37 -3v40q15 22 38.5 46.5t44.5 38.5h-117v51h183v-56q-23 -15 -48 -35.5t-40 -40.5q58 0 84 -31t26 -65q0 -51 -33.5 -80
t-81.5 -29zM576 0v67h-151v47l163 214h46v-217h39v-44h-39v-67h-58zM477 111h99v131z" />
    <glyph glyph-name="questiondown" unicode="&#xbf;" horiz-adv-x="352" 
d="M176 -195q-85 0 -128.5 45.5t-43.5 120.5q0 51 20 86t53 71q44 48 58 74t14 56v36h70v-42q0 -47 -22 -81t-48 -63q-70 -77 -70 -134q0 -51 26 -78t74 -27q43 0 75 26.5t57 64.5l50 -38q-40 -66 -89 -91.5t-96 -25.5zM184 380q-23 0 -37 15t-14 40t14 39.5t37 14.5
q22 0 36.5 -14.5t14.5 -39.5t-14.5 -40t-36.5 -15z" />
    <glyph glyph-name="Agrave" unicode="&#xc0;" horiz-adv-x="540" 
d="M0 0l237 667h62l241 -667h-83l-75 206h-232l-70 -206h-80zM175 277h182l-92 276zM331 710l-173 124l49 52l159 -139z" />
    <glyph glyph-name="Aacute" unicode="&#xc1;" horiz-adv-x="540" 
d="M0 0l237 667h62l241 -667h-83l-75 206h-232l-70 -206h-80zM175 277h182l-92 276zM210 710l-36 37l159 139l49 -52z" />
    <glyph glyph-name="Acircumflex" unicode="&#xc2;" horiz-adv-x="540" 
d="M0 0l237 667h62l241 -667h-83l-75 206h-232l-70 -206h-80zM175 277h182l-92 276zM168 710l-43 30l120 144h46l119 -144l-41 -30l-101 112z" />
    <glyph glyph-name="Atilde" unicode="&#xc3;" horiz-adv-x="540" 
d="M0 0l237 667h62l241 -667h-83l-75 206h-232l-70 -206h-80zM175 277h182l-92 276zM146 735l-46 23q14 45 39.5 72t58.5 27q21 0 41.5 -10.5t38.5 -24.5q28 -22 49 -22q14 0 28 13t28 46l46 -24q-15 -46 -40.5 -72t-58.5 -26q-18 0 -35 8t-34 20q-40 29 -60 29
q-17 0 -29 -13.5t-26 -45.5z" />
    <glyph glyph-name="Adieresis" unicode="&#xc4;" horiz-adv-x="540" 
d="M183 755q-20 0 -34.5 12.5t-14.5 36.5q0 23 14.5 36t34.5 13t34 -13t14 -36q0 -24 -14 -36.5t-34 -12.5zM354 755q-20 0 -34.5 12.5t-14.5 36.5q0 23 14.5 36t34.5 13t34 -13t14 -36q0 -24 -14 -36.5t-34 -12.5zM0 0l237 667h62l241 -667h-83l-75 206h-232l-70 -206h-80z
M175 277h182l-92 276z" />
    <glyph glyph-name="Aring" unicode="&#xc5;" horiz-adv-x="540" 
d="M0 0l237 667h62l241 -667h-83l-75 206h-232l-70 -206h-80zM175 277h182l-92 276zM265 700q-32 0 -55 17t-30.5 40t-7.5 42q0 30 13.5 54t35 35t44.5 11q31 0 54.5 -17.5t31.5 -40.5t8 -42q0 -29 -14 -54t-36 -35t-44 -10zM265 740q25 0 38 18.5t13 40.5q0 23 -13 41.5
t-38 18.5t-38 -18.5t-13 -41.5q0 -22 13 -40.5t38 -18.5z" />
    <glyph glyph-name="AE" unicode="&#xc6;" horiz-adv-x="817" 
d="M0 0l357 667h419v-69h-294v-214h210v-69h-210v-246h316v-69h-392v206h-211l-110 -206h-85zM233 277h173v328z" />
    <glyph glyph-name="Ccedilla" unicode="&#xc7;" horiz-adv-x="541" 
d="M311 -13q-56 0 -104 19.5t-83.5 61t-56 106.5t-20.5 157q0 129 45 213t105.5 110t109.5 26q69 0 118 -29t86 -92l-56 -46q-26 36 -45 54t-48 29t-57 11q-84 0 -131 -72t-47 -205q0 -65 14.5 -115.5t39 -85t58.5 -52t73 -17.5q58 0 94 18t69 50l28 -72q-37 -37 -93.5 -53
t-98.5 -16zM223 -174l48 130h78l-68 -130h-58z" />
    <glyph glyph-name="Egrave" unicode="&#xc8;" horiz-adv-x="488" 
d="M77 0v667h370v-69h-294v-214h210v-69h-211v-246h317v-69h-392zM324 710l-173 124l49 52l159 -139z" />
    <glyph glyph-name="Eacute" unicode="&#xc9;" horiz-adv-x="488" 
d="M77 0v667h370v-69h-294v-214h210v-69h-211v-246h317v-69h-392zM213 710l-36 37l159 139l49 -52z" />
    <glyph glyph-name="Ecircumflex" unicode="&#xca;" horiz-adv-x="488" 
d="M77 0v667h370v-69h-294v-214h210v-69h-211v-246h317v-69h-392zM170 710l-43 30l120 144h46l119 -144l-41 -30l-101 112z" />
    <glyph glyph-name="Edieresis" unicode="&#xcb;" horiz-adv-x="488" 
d="M77 0v667h370v-69h-294v-214h210v-69h-211v-246h317v-69h-392zM180 756q-20 0 -34.5 12.5t-14.5 36.5q0 23 14.5 36t34.5 13t34 -13t14 -36q0 -24 -14 -36.5t-34 -12.5zM351 756q-20 0 -34.5 12.5t-14.5 36.5q0 23 14.5 36t34.5 13t34 -13t14 -36q0 -24 -14 -36.5
t-34 -12.5z" />
    <glyph glyph-name="Igrave" unicode="&#xcc;" horiz-adv-x="230" 
d="M77 0v667h76v-667h-76zM180 710l-173 124l49 52l159 -139z" />
    <glyph glyph-name="Iacute" unicode="&#xcd;" horiz-adv-x="230" 
d="M77 0v667h76v-667h-76zM61 710l-36 37l159 139l49 -52z" />
    <glyph glyph-name="Icircumflex" unicode="&#xce;" horiz-adv-x="230" 
d="M77 0v667h76v-667h-76zM27 710l-43 30l120 144h46l119 -144l-41 -30l-101 112z" />
    <glyph glyph-name="Idieresis" unicode="&#xcf;" horiz-adv-x="230" 
d="M77 0v667h76v-667h-76zM39 756q-20 0 -34.5 12.5t-14.5 36.5q0 23 14.5 36t34.5 13t34 -13t14 -36q0 -24 -14 -36.5t-34 -12.5zM210 756q-20 0 -34.5 12.5t-14.5 36.5q0 23 14.5 36t34.5 13t34 -13t14 -36q0 -24 -14 -36.5t-34 -12.5z" />
    <glyph glyph-name="Eth" unicode="&#xd0;" horiz-adv-x="592" 
d="M77 0v316h-78v62h78v289h164q37 0 77 -6.5t73 -23.5q69 -34 112.5 -106.5t43.5 -187.5q0 -119 -42 -197t-108.5 -112t-155.5 -34h-164zM153 69h78q60 0 96 14q45 21 79 59t47.5 89.5t13.5 107.5q0 87 -25.5 140t-69.5 83q-28 19 -64.5 27.5t-71.5 8.5h-83v-220h152v-62
h-152v-247z" />
    <glyph glyph-name="Ntilde" unicode="&#xd1;" horiz-adv-x="625" 
d="M77 0v667h77l319 -497v497h75v-667h-56l-340 529v-529h-75zM206 735l-46 23q14 45 39.5 72t58.5 27q21 0 41.5 -10.5t38.5 -24.5q28 -22 49 -22q14 0 28 13t28 46l46 -24q-15 -46 -40.5 -72t-58.5 -26q-18 0 -35 8t-34 20q-40 29 -60 29q-17 0 -29 -13.5t-26 -45.5z" />
    <glyph glyph-name="Ograve" unicode="&#xd2;" horiz-adv-x="628" 
d="M314 -13q-70 0 -120.5 30t-83 78.5t-48 111t-15.5 127.5q0 104 36 188t98 121t133 37q99 0 162 -60t84 -140.5t21 -145.5t-15.5 -127.5t-48 -111t-83 -78.5t-120.5 -30zM314 58q68 0 114 49t60 112t14 115q0 82 -25 147.5t-69.5 96.5t-93.5 31q-70 0 -115 -48.5t-59 -112
t-14 -114.5q0 -52 11.5 -101.5t34.5 -88.5t58.5 -62.5t83.5 -23.5zM383 710l-173 124l49 52l159 -139z" />
    <glyph glyph-name="Oacute" unicode="&#xd3;" horiz-adv-x="628" 
d="M314 -13q-70 0 -120.5 30t-83 78.5t-48 111t-15.5 127.5q0 104 36 188t98 121t133 37q99 0 162 -60t84 -140.5t21 -145.5t-15.5 -127.5t-48 -111t-83 -78.5t-120.5 -30zM314 58q68 0 114 49t60 112t14 115q0 82 -25 147.5t-69.5 96.5t-93.5 31q-70 0 -115 -48.5t-59 -112
t-14 -114.5q0 -52 11.5 -101.5t34.5 -88.5t58.5 -62.5t83.5 -23.5zM254 710l-36 37l159 139l49 -52z" />
    <glyph glyph-name="Ocircumflex" unicode="&#xd4;" horiz-adv-x="628" 
d="M314 -13q-70 0 -120.5 30t-83 78.5t-48 111t-15.5 127.5q0 104 36 188t98 121t133 37q99 0 162 -60t84 -140.5t21 -145.5t-15.5 -127.5t-48 -111t-83 -78.5t-120.5 -30zM314 58q68 0 114 49t60 112t14 115q0 82 -25 147.5t-69.5 96.5t-93.5 31q-70 0 -115 -48.5t-59 -112
t-14 -114.5q0 -52 11.5 -101.5t34.5 -88.5t58.5 -62.5t83.5 -23.5zM215 710l-43 30l120 144h46l119 -144l-41 -30l-101 112z" />
    <glyph glyph-name="Otilde" unicode="&#xd5;" horiz-adv-x="628" 
d="M314 -13q-70 0 -120.5 30t-83 78.5t-48 111t-15.5 127.5q0 104 36 188t98 121t133 37q99 0 162 -60t84 -140.5t21 -145.5t-15.5 -127.5t-48 -111t-83 -78.5t-120.5 -30zM314 58q68 0 114 49t60 112t14 115q0 82 -25 147.5t-69.5 96.5t-93.5 31q-70 0 -115 -48.5t-59 -112
t-14 -114.5q0 -52 11.5 -101.5t34.5 -88.5t58.5 -62.5t83.5 -23.5zM192 735l-46 23q14 45 39.5 72t58.5 27q21 0 41.5 -10.5t38.5 -24.5q28 -22 49 -22q14 0 28 13t28 46l46 -24q-15 -46 -40.5 -72t-58.5 -26q-18 0 -35 8t-34 20q-40 29 -60 29q-17 0 -29 -13.5t-26 -45.5z
" />
    <glyph glyph-name="Odieresis" unicode="&#xd6;" horiz-adv-x="628" 
d="M314 -13q-70 0 -120.5 30t-83 78.5t-48 111t-15.5 127.5q0 104 36 188t98 121t133 37q99 0 162 -60t84 -140.5t21 -145.5t-15.5 -127.5t-48 -111t-83 -78.5t-120.5 -30zM314 58q68 0 114 49t60 112t14 115q0 82 -25 147.5t-69.5 96.5t-93.5 31q-70 0 -115 -48.5t-59 -112
t-14 -114.5q0 -52 11.5 -101.5t34.5 -88.5t58.5 -62.5t83.5 -23.5zM230 756q-20 0 -34.5 12.5t-14.5 36.5q0 23 14.5 36t34.5 13t34 -13t14 -36q0 -24 -14 -36.5t-34 -12.5zM401 756q-20 0 -34.5 12.5t-14.5 36.5q0 23 14.5 36t34.5 13t34 -13t14 -36q0 -24 -14 -36.5
t-34 -12.5z" />
    <glyph glyph-name="multiply" unicode="&#xd7;" 
d="M126 144l-47 55l128 135l-128 134l48 54l130 -136l130 136l47 -54l-128 -134l128 -135l-46 -55l-131 138z" />
    <glyph glyph-name="Oslash" unicode="&#xd8;" horiz-adv-x="628" 
d="M104 -24l-53 48l57 75q-31 49 -46 110t-15 125q0 104 36 188t98 121t133 37q57 0 100.5 -20t76.5 -55l59 78l52 -46l-69 -91q25 -48 36.5 -101.5t11.5 -110.5q0 -65 -15.5 -127.5t-48 -111t-83 -78.5t-120.5 -30q-49 0 -88 15t-71 42zM314 58q68 0 114 49t60 112t14 115
q0 36 -5.5 71.5t-16.5 68.5l-279 -368q46 -48 113 -48zM160 167l284 376q-23 31 -55 48.5t-75 17.5q-70 0 -115 -48.5t-59 -112t-14 -114.5q0 -92 34 -167z" />
    <glyph glyph-name="Ugrave" unicode="&#xd9;" horiz-adv-x="615" 
d="M305 -13q-76 0 -132 34t-78 88.5t-22 113.5v444h76v-429q0 -85 41.5 -132.5t116.5 -47.5t117 46t42 134v429h76v-444q0 -84 -40 -141t-95.5 -75.5t-101.5 -19.5zM355 710l-173 124l49 52l159 -139z" />
    <glyph glyph-name="Uacute" unicode="&#xda;" horiz-adv-x="615" 
d="M305 -13q-76 0 -132 34t-78 88.5t-22 113.5v444h76v-429q0 -85 41.5 -132.5t116.5 -47.5t117 46t42 134v429h76v-444q0 -84 -40 -141t-95.5 -75.5t-101.5 -19.5zM256 710l-36 37l159 139l49 -52z" />
    <glyph glyph-name="Ucircumflex" unicode="&#xdb;" horiz-adv-x="615" 
d="M305 -13q-76 0 -132 34t-78 88.5t-22 113.5v444h76v-429q0 -85 41.5 -132.5t116.5 -47.5t117 46t42 134v429h76v-444q0 -84 -40 -141t-95.5 -75.5t-101.5 -19.5zM215 710l-43 30l120 144h46l119 -144l-41 -30l-101 112z" />
    <glyph glyph-name="Udieresis" unicode="&#xdc;" horiz-adv-x="615" 
d="M305 -13q-76 0 -132 34t-78 88.5t-22 113.5v444h76v-429q0 -85 41.5 -132.5t116.5 -47.5t117 46t42 134v429h76v-444q0 -84 -40 -141t-95.5 -75.5t-101.5 -19.5zM228 756q-20 0 -34.5 12.5t-14.5 36.5q0 23 14.5 36t34.5 13t34 -13t14 -36q0 -24 -14 -36.5t-34 -12.5z
M399 756q-20 0 -34.5 12.5t-14.5 36.5q0 23 14.5 36t34.5 13t34 -13t14 -36q0 -24 -14 -36.5t-34 -12.5z" />
    <glyph glyph-name="Yacute" unicode="&#xdd;" horiz-adv-x="516" 
d="M216 0v320l-216 347h86l170 -270l177 270h83l-224 -346v-321h-76zM209 710l-36 37l159 139l49 -52z" />
    <glyph glyph-name="Thorn" unicode="&#xde;" horiz-adv-x="507" 
d="M77 0v667h76v-118h114q216 0 216 -201q0 -97 -56 -147.5t-162 -50.5h-112v-150h-76zM153 220h117q58 0 94 30.5t36 98.5q0 69 -34 100.5t-97 31.5h-116v-261z" />
    <glyph glyph-name="germandbls" unicode="&#xdf;" horiz-adv-x="529" 
d="M347 -11q-41 0 -74 10.5t-48.5 21.5t-22.5 18l26 62q22 -20 49.5 -35t69.5 -15q37 0 59.5 18t22.5 52t-20.5 59t-80.5 48q-54 20 -82.5 50.5t-28.5 84.5q0 42 25 72t60 40t66 10q0 67 -29 100.5t-77 33.5q-47 0 -75 -32.5t-28 -109.5v-477h-74v414h-66v63h66
q2 100 47.5 151.5t130.5 51.5q81 0 127.5 -49t46.5 -134v-73h-73q-39 0 -58 -16.5t-19 -43.5q0 -34 25 -52t69 -34q62 -24 90 -59.5t28 -87.5q0 -49 -24.5 -82.5t-60.5 -46.5t-67 -13z" />
    <glyph glyph-name="agrave" unicode="&#xe0;" horiz-adv-x="447" 
d="M191 -11q-30 0 -57.5 9.5t-49.5 28t-35 46.5t-13 65q0 70 51 110.5t115 51t109 10.5v6q0 60 -24.5 86t-69.5 26q-32 0 -65 -12.5t-64 -37.5l-24 56q26 20 64 37.5t95 17.5q76 0 118.5 -41t42.5 -137v-311h-67l-3 41q-24 -25 -55 -38.5t-68 -13.5zM200 52q33 0 60.5 14.5
t50.5 34.5v148q-64 -2 -110.5 -13.5t-68.5 -37t-22 -61.5q0 -32 18.5 -54t37.5 -26.5t34 -4.5zM279 544l-173 124l49 52l159 -139z" />
    <glyph glyph-name="aacute" unicode="&#xe1;" horiz-adv-x="447" 
d="M191 -11q-30 0 -57.5 9.5t-49.5 28t-35 46.5t-13 65q0 70 51 110.5t115 51t109 10.5v6q0 60 -24.5 86t-69.5 26q-32 0 -65 -12.5t-64 -37.5l-24 56q26 20 64 37.5t95 17.5q76 0 118.5 -41t42.5 -137v-311h-67l-3 41q-24 -25 -55 -38.5t-68 -13.5zM200 52q33 0 60.5 14.5
t50.5 34.5v148q-64 -2 -110.5 -13.5t-68.5 -37t-22 -61.5q0 -32 18.5 -54t37.5 -26.5t34 -4.5zM176 544l-36 37l159 139l49 -52z" />
    <glyph glyph-name="acircumflex" unicode="&#xe2;" horiz-adv-x="447" 
d="M191 -11q-30 0 -57.5 9.5t-49.5 28t-35 46.5t-13 65q0 70 51 110.5t115 51t109 10.5v6q0 60 -24.5 86t-69.5 26q-32 0 -65 -12.5t-64 -37.5l-24 56q26 20 64 37.5t95 17.5q76 0 118.5 -41t42.5 -137v-311h-67l-3 41q-24 -25 -55 -38.5t-68 -13.5zM200 52q33 0 60.5 14.5
t50.5 34.5v148q-64 -2 -110.5 -13.5t-68.5 -37t-22 -61.5q0 -32 18.5 -54t37.5 -26.5t34 -4.5zM122 544l-43 30l120 144h46l119 -144l-41 -30l-101 112z" />
    <glyph glyph-name="atilde" unicode="&#xe3;" horiz-adv-x="447" 
d="M191 -11q-30 0 -57.5 9.5t-49.5 28t-35 46.5t-13 65q0 70 51 110.5t115 51t109 10.5v6q0 60 -24.5 86t-69.5 26q-32 0 -65 -12.5t-64 -37.5l-24 56q26 20 64 37.5t95 17.5q76 0 118.5 -41t42.5 -137v-311h-67l-3 41q-24 -25 -55 -38.5t-68 -13.5zM200 52q33 0 60.5 14.5
t50.5 34.5v148q-64 -2 -110.5 -13.5t-68.5 -37t-22 -61.5q0 -32 18.5 -54t37.5 -26.5t34 -4.5zM107 569l-46 23q14 45 39.5 72t58.5 27q21 0 41.5 -10.5t38.5 -24.5q28 -22 49 -22q14 0 28 13t28 46l46 -24q-15 -46 -40.5 -72t-58.5 -26q-18 0 -35 8t-34 20q-40 29 -60 29
q-17 0 -29 -13.5t-26 -45.5z" />
    <glyph glyph-name="adieresis" unicode="&#xe4;" horiz-adv-x="447" 
d="M191 -11q-30 0 -57.5 9.5t-49.5 28t-35 46.5t-13 65q0 70 51 110.5t115 51t109 10.5v6q0 60 -24.5 86t-69.5 26q-32 0 -65 -12.5t-64 -37.5l-24 56q26 20 64 37.5t95 17.5q76 0 118.5 -41t42.5 -137v-311h-67l-3 41q-24 -25 -55 -38.5t-68 -13.5zM200 52q33 0 60.5 14.5
t50.5 34.5v148q-64 -2 -110.5 -13.5t-68.5 -37t-22 -61.5q0 -32 18.5 -54t37.5 -26.5t34 -4.5zM139 590q-20 0 -34.5 12.5t-14.5 36.5q0 23 14.5 36t34.5 13t34 -13t14 -36q0 -24 -14 -36.5t-34 -12.5zM310 590q-20 0 -34.5 12.5t-14.5 36.5q0 23 14.5 36t34.5 13t34 -13
t14 -36q0 -24 -14 -36.5t-34 -12.5z" />
    <glyph glyph-name="aring" unicode="&#xe5;" horiz-adv-x="447" 
d="M191 -11q-30 0 -57.5 9.5t-49.5 28t-35 46.5t-13 65q0 70 51 110.5t115 51t109 10.5v6q0 60 -24.5 86t-69.5 26q-32 0 -65 -12.5t-64 -37.5l-24 56q26 20 64 37.5t95 17.5q76 0 118.5 -41t42.5 -137v-311h-67l-3 41q-24 -25 -55 -38.5t-68 -13.5zM200 52q33 0 60.5 14.5
t50.5 34.5v148q-64 -2 -110.5 -13.5t-68.5 -37t-22 -61.5q0 -32 18.5 -54t37.5 -26.5t34 -4.5zM226 534q-32 0 -55 17t-30.5 40t-7.5 42q0 30 13.5 54t35 35t44.5 11q31 0 54.5 -17.5t31.5 -40.5t8 -42q0 -29 -14 -54t-36 -35t-44 -10zM226 574q25 0 38 18.5t13 40.5
q0 23 -13 41.5t-38 18.5t-38 -18.5t-13 -41.5q0 -22 13 -40.5t38 -18.5z" />
    <glyph glyph-name="ae" unicode="&#xe6;" horiz-adv-x="736" 
d="M199 -11q-33 0 -63 10t-52 29t-35 46.5t-13 63.5q0 66 42 105.5t98 50t99 10.5h36v15q0 57 -25.5 83t-68.5 26q-32 0 -65 -12.5t-64 -37.5l-24 56q26 20 64 37.5t95 17.5q51 0 85 -18.5t52 -60.5q23 36 61.5 57.5t91.5 21.5q69 0 113 -38t58.5 -96t14.5 -112h-322
q0 -90 39 -141t113 -51q44 0 74 15t57 38l19 -63q-19 -17 -58.5 -34.5t-93.5 -17.5q-60 0 -104.5 20.5t-71.5 63.5q-25 -45 -67.5 -64.5t-84.5 -19.5zM200 52q54 0 82.5 25t28.5 67v100h-28q-57 0 -97.5 -12t-58 -37t-17.5 -58q0 -42 23.5 -63.5t66.5 -21.5zM384 304h232
q-1 31 -10 54.5t-24 39t-34.5 23t-40.5 7.5q-45 0 -78 -28.5t-45 -95.5z" />
    <glyph glyph-name="ccedilla" unicode="&#xe7;" horiz-adv-x="450" 
d="M255 -11q-41 0 -79 15t-67 46t-47 77.5t-18 109.5q0 95 37 155.5t84 78.5t85 18q50 0 88 -19.5t55.5 -42.5t25.5 -37l-51 -38q-22 34 -47.5 54.5t-69.5 20.5q-42 0 -75 -28.5t-46.5 -71.5t-13.5 -88t11.5 -80t31 -59t45.5 -36.5t55 -12.5q46 0 76.5 14t54.5 37l21 -63
q-26 -23 -67.5 -36.5t-88.5 -13.5zM168 -174l48 130h78l-68 -130h-58z" />
    <glyph glyph-name="egrave" unicode="&#xe8;" horiz-adv-x="483" 
d="M266 -11q-102 0 -162 64.5t-60 187.5q0 82 30.5 142t77.5 83t94 23q71 0 118 -37t64.5 -96t17.5 -113h-330q0 -90 39 -141t113 -51q44 0 78 15t61 38l19 -63q-22 -22 -67.5 -37t-92.5 -15zM123 304h240q-2 41 -21.5 71t-47.5 41.5t-48 11.5q-45 0 -78 -28.5t-45 -95.5z
M305 544l-173 124l49 52l159 -139z" />
    <glyph glyph-name="eacute" unicode="&#xe9;" horiz-adv-x="483" 
d="M266 -11q-102 0 -162 64.5t-60 187.5q0 82 30.5 142t77.5 83t94 23q71 0 118 -37t64.5 -96t17.5 -113h-330q0 -90 39 -141t113 -51q44 0 78 15t61 38l19 -63q-22 -22 -67.5 -37t-92.5 -15zM123 304h240q-2 41 -21.5 71t-47.5 41.5t-48 11.5q-45 0 -78 -28.5t-45 -95.5z
M188 544l-36 37l159 139l49 -52z" />
    <glyph glyph-name="ecircumflex" unicode="&#xea;" horiz-adv-x="483" 
d="M266 -11q-102 0 -162 64.5t-60 187.5q0 82 30.5 142t77.5 83t94 23q71 0 118 -37t64.5 -96t17.5 -113h-330q0 -90 39 -141t113 -51q44 0 78 15t61 38l19 -63q-22 -22 -67.5 -37t-92.5 -15zM123 304h240q-2 41 -21.5 71t-47.5 41.5t-48 11.5q-45 0 -78 -28.5t-45 -95.5z
M151 544l-43 30l120 144h46l119 -144l-41 -30l-101 112z" />
    <glyph glyph-name="edieresis" unicode="&#xeb;" horiz-adv-x="483" 
d="M266 -11q-102 0 -162 64.5t-60 187.5q0 82 30.5 142t77.5 83t94 23q71 0 118 -37t64.5 -96t17.5 -113h-330q0 -90 39 -141t113 -51q44 0 78 15t61 38l19 -63q-22 -22 -67.5 -37t-92.5 -15zM123 304h240q-2 41 -21.5 71t-47.5 41.5t-48 11.5q-45 0 -78 -28.5t-45 -95.5z
M165 590q-20 0 -34.5 12.5t-14.5 36.5q0 23 14.5 36t34.5 13t34 -13t14 -36q0 -24 -14 -36.5t-34 -12.5zM336 590q-20 0 -34.5 12.5t-14.5 36.5q0 23 14.5 36t34.5 13t34 -13t14 -36q0 -24 -14 -36.5t-34 -12.5z" />
    <glyph glyph-name="igrave" unicode="&#xec;" horiz-adv-x="204" 
d="M66 0v477h73v-477h-73zM174 544l-173 124l49 52l159 -139z" />
    <glyph glyph-name="iacute" unicode="&#xed;" horiz-adv-x="204" 
d="M66 0v477h73v-477h-73zM48 544l-36 37l159 139l49 -52z" />
    <glyph glyph-name="icircumflex" unicode="&#xee;" horiz-adv-x="204" 
d="M66 0v477h73v-477h-73zM9 544l-43 30l120 144h46l119 -144l-41 -30l-101 112z" />
    <glyph glyph-name="idieresis" unicode="&#xef;" horiz-adv-x="204" 
d="M66 0v477h73v-477h-73zM24 590q-20 0 -34.5 12.5t-14.5 36.5q0 23 14.5 36t34.5 13t34 -13t14 -36q0 -24 -14 -36.5t-34 -12.5zM195 590q-20 0 -34.5 12.5t-14.5 36.5q0 23 14.5 36t34.5 13t34 -13t14 -36q0 -24 -14 -36.5t-34 -12.5z" />
    <glyph glyph-name="eth" unicode="&#xf0;" horiz-adv-x="510" 
d="M127 561l109 50q-40 29 -74 44l60 31q14 -8 34 -19t41 -28l105 49l35 -38l-100 -46q25 -25 48.5 -57.5t41.5 -74t28.5 -92.5t10.5 -113q0 -73 -17 -125.5t-45.5 -86.5t-66.5 -50t-80 -16q-45 0 -83.5 17t-67.5 49t-45.5 79t-16.5 107q0 58 15.5 104t43.5 78t67 49t86 17
q37 0 60.5 -8.5t40.5 -16.5q-12 31 -32.5 59.5t-46.5 52.5l-116 -53zM394 266q0 38 -6 72.5t-13 54.5q-23 13 -52 24t-66 11q-63 0 -101.5 -48.5t-38.5 -138.5q0 -91 40 -140.5t100 -49.5q28 0 53 12t44 38t29.5 66.5t10.5 98.5z" />
    <glyph glyph-name="ntilde" unicode="&#xf1;" horiz-adv-x="514" 
d="M66 0v477h67l5 -38q28 22 65 36t78 14q94 0 132 -48t38 -144v-297h-73v299q0 60 -25.5 94t-83.5 34q-37 0 -71 -16.5t-59 -36.5v-374h-73zM146 569l-46 23q14 45 39.5 72t58.5 27q21 0 41.5 -10.5t38.5 -24.5q28 -22 49 -22q14 0 28 13t28 46l46 -24q-15 -46 -40.5 -72
t-58.5 -26q-18 0 -35 8t-34 20q-40 29 -60 29q-17 0 -29 -13.5t-26 -45.5z" />
    <glyph glyph-name="ograve" unicode="&#xf2;" horiz-adv-x="509" 
d="M255 -11q-53 0 -92.5 21.5t-65.5 57t-39.5 81t-13.5 92.5q0 71 29 133t79 88.5t103 26.5q74 0 124 -42.5t68.5 -101.5t18.5 -106q0 -74 -31.5 -137t-79.5 -88t-100 -25zM255 51q47 0 81 32t46 77t12 80q0 55 -20.5 101.5t-52.5 66.5t-66 20q-51 0 -85 -34t-44 -76
t-10 -77q0 -57 20 -104.5t52 -66.5t67 -19zM303 544l-173 124l49 52l159 -139z" />
    <glyph glyph-name="oacute" unicode="&#xf3;" horiz-adv-x="509" 
d="M255 -11q-53 0 -92.5 21.5t-65.5 57t-39.5 81t-13.5 92.5q0 71 29 133t79 88.5t103 26.5q74 0 124 -42.5t68.5 -101.5t18.5 -106q0 -74 -31.5 -137t-79.5 -88t-100 -25zM255 51q47 0 81 32t46 77t12 80q0 55 -20.5 101.5t-52.5 66.5t-66 20q-51 0 -85 -34t-44 -76
t-10 -77q0 -57 20 -104.5t52 -66.5t67 -19zM193 544l-36 37l159 139l49 -52z" />
    <glyph glyph-name="ocircumflex" unicode="&#xf4;" horiz-adv-x="509" 
d="M255 -11q-53 0 -92.5 21.5t-65.5 57t-39.5 81t-13.5 92.5q0 71 29 133t79 88.5t103 26.5q74 0 124 -42.5t68.5 -101.5t18.5 -106q0 -74 -31.5 -137t-79.5 -88t-100 -25zM255 51q47 0 81 32t46 77t12 80q0 55 -20.5 101.5t-52.5 66.5t-66 20q-51 0 -85 -34t-44 -76
t-10 -77q0 -57 20 -104.5t52 -66.5t67 -19zM149 544l-43 30l120 144h46l119 -144l-41 -30l-101 112z" />
    <glyph glyph-name="otilde" unicode="&#xf5;" horiz-adv-x="509" 
d="M255 -11q-53 0 -92.5 21.5t-65.5 57t-39.5 81t-13.5 92.5q0 71 29 133t79 88.5t103 26.5q74 0 124 -42.5t68.5 -101.5t18.5 -106q0 -74 -31.5 -137t-79.5 -88t-100 -25zM255 51q47 0 81 32t46 77t12 80q0 55 -20.5 101.5t-52.5 66.5t-66 20q-51 0 -85 -34t-44 -76
t-10 -77q0 -57 20 -104.5t52 -66.5t67 -19zM133 569l-46 23q14 45 39.5 72t58.5 27q21 0 41.5 -10.5t38.5 -24.5q28 -22 49 -22q14 0 28 13t28 46l46 -24q-15 -46 -40.5 -72t-58.5 -26q-18 0 -35 8t-34 20q-40 29 -60 29q-17 0 -29 -13.5t-26 -45.5z" />
    <glyph glyph-name="odieresis" unicode="&#xf6;" horiz-adv-x="509" 
d="M255 -11q-53 0 -92.5 21.5t-65.5 57t-39.5 81t-13.5 92.5q0 71 29 133t79 88.5t103 26.5q74 0 124 -42.5t68.5 -101.5t18.5 -106q0 -74 -31.5 -137t-79.5 -88t-100 -25zM255 51q47 0 81 32t46 77t12 80q0 55 -20.5 101.5t-52.5 66.5t-66 20q-51 0 -85 -34t-44 -76
t-10 -77q0 -57 20 -104.5t52 -66.5t67 -19zM173 590q-20 0 -34.5 12.5t-14.5 36.5q0 23 14.5 36t34.5 13t34 -13t14 -36q0 -24 -14 -36.5t-34 -12.5zM344 590q-20 0 -34.5 12.5t-14.5 36.5q0 23 14.5 36t34.5 13t34 -13t14 -36q0 -24 -14 -36.5t-34 -12.5z" />
    <glyph glyph-name="divide" unicode="&#xf7;" 
d="M256 101q-23 0 -38 15t-15 41t15 41.5t38 15.5q24 0 38.5 -15.5t14.5 -41.5t-14.5 -41t-38.5 -15zM32 297v70h449v-70h-449zM256 458q-23 0 -38 15t-15 41t15 41.5t38 15.5q24 0 38.5 -15.5t14.5 -41.5t-14.5 -41t-38.5 -15z" />
    <glyph glyph-name="oslash" unicode="&#xf8;" horiz-adv-x="509" 
d="M114 -69l-51 35l47 86q-33 36 -49.5 85.5t-16.5 103.5q0 71 29 133t79 88.5t103 26.5q47 0 88 -19l45 80l51 -32l-47 -83q38 -36 56 -87.5t18 -108.5q0 -74 -31.5 -137t-79.5 -88t-100 -25q-55 0 -95 23zM255 51q47 0 81 32t46 77t12 80q0 36 -9 70.5t-27 60.5l-167 -302
q31 -18 64 -18zM146 117l166 297q-26 14 -57 14q-51 0 -85 -34t-44 -76t-10 -77q0 -34 7.5 -66t22.5 -58z" />
    <glyph glyph-name="ugrave" unicode="&#xf9;" horiz-adv-x="511" 
d="M233 -11q-90 0 -130 46t-40 140v302h73v-306q0 -63 27.5 -91.5t81.5 -28.5q35 0 69.5 15.5t56.5 37.5v373h75v-477h-68l-5 37q-28 -22 -60 -35t-80 -13zM302 544l-173 124l49 52l159 -139z" />
    <glyph glyph-name="uacute" unicode="&#xfa;" horiz-adv-x="511" 
d="M233 -11q-90 0 -130 46t-40 140v302h73v-306q0 -63 27.5 -91.5t81.5 -28.5q35 0 69.5 15.5t56.5 37.5v373h75v-477h-68l-5 37q-28 -22 -60 -35t-80 -13zM207 544l-36 37l159 139l49 -52z" />
    <glyph glyph-name="ucircumflex" unicode="&#xfb;" horiz-adv-x="511" 
d="M233 -11q-90 0 -130 46t-40 140v302h73v-306q0 -63 27.5 -91.5t81.5 -28.5q35 0 69.5 15.5t56.5 37.5v373h75v-477h-68l-5 37q-28 -22 -60 -35t-80 -13zM159 544l-43 30l120 144h46l119 -144l-41 -30l-101 112z" />
    <glyph glyph-name="udieresis" unicode="&#xfc;" horiz-adv-x="511" 
d="M233 -11q-90 0 -130 46t-40 140v302h73v-306q0 -63 27.5 -91.5t81.5 -28.5q35 0 69.5 15.5t56.5 37.5v373h75v-477h-68l-5 37q-28 -22 -60 -35t-80 -13zM173 590q-20 0 -34.5 12.5t-14.5 36.5q0 23 14.5 36t34.5 13t34 -13t14 -36q0 -24 -14 -36.5t-34 -12.5zM344 590
q-20 0 -34.5 12.5t-14.5 36.5q0 23 14.5 36t34.5 13t34 -13t14 -36q0 -24 -14 -36.5t-34 -12.5z" />
    <glyph glyph-name="yacute" unicode="&#xfd;" horiz-adv-x="453" 
d="M4 -193l-8 68q72 0 108.5 18t59.5 50q14 23 22 40l-178 494h82l143 -415q39 87 73.5 193.5t63.5 221.5h78q-47 -178 -90 -291.5t-76 -180.5q-19 -38 -39.5 -73.5t-50.5 -63t-75 -44t-113 -17.5zM185 544l-36 37l159 139l49 -52z" />
    <glyph glyph-name="thorn" unicode="&#xfe;" horiz-adv-x="499" 
d="M66 -189v856h72v-224q26 21 60.5 33.5t71.5 12.5q72 0 115.5 -42t56.5 -99t13 -104q0 -86 -36.5 -148t-88.5 -84.5t-101 -22.5q-26 0 -49 4t-40 12v-194h-74zM215 51q54 0 94 27.5t56.5 72.5t16.5 90q0 55 -16.5 99.5t-47 65.5t-67.5 21q-31 0 -59.5 -14t-51.5 -37v-304
q11 -8 30 -14.5t45 -6.5z" />
    <glyph glyph-name="ydieresis" unicode="&#xff;" horiz-adv-x="453" 
d="M4 -193l-8 68q72 0 108.5 18t59.5 50q14 23 22 40l-178 494h82l143 -415q39 87 73.5 193.5t63.5 221.5h78q-47 -178 -90 -291.5t-76 -180.5q-19 -38 -39.5 -73.5t-50.5 -63t-75 -44t-113 -17.5zM154 590q-20 0 -34.5 12.5t-14.5 36.5q0 23 14.5 36t34.5 13t34 -13t14 -36
q0 -24 -14 -36.5t-34 -12.5zM325 590q-20 0 -34.5 12.5t-14.5 36.5q0 23 14.5 36t34.5 13t34 -13t14 -36q0 -24 -14 -36.5t-34 -12.5z" />
    <glyph glyph-name="Amacron" unicode="&#x100;" horiz-adv-x="540" 
d="M0 0l237 667h62l241 -667h-83l-75 206h-232l-70 -206h-80zM175 277h182l-92 276zM133 773v62h280v-62h-280z" />
    <glyph glyph-name="amacron" unicode="&#x101;" horiz-adv-x="447" 
d="M191 -11q-30 0 -57.5 9.5t-49.5 28t-35 46.5t-13 65q0 70 51 110.5t115 51t109 10.5v6q0 60 -24.5 86t-69.5 26q-32 0 -65 -12.5t-64 -37.5l-24 56q26 20 64 37.5t95 17.5q76 0 118.5 -41t42.5 -137v-311h-67l-3 41q-24 -25 -55 -38.5t-68 -13.5zM200 52q33 0 60.5 14.5
t50.5 34.5v148q-64 -2 -110.5 -13.5t-68.5 -37t-22 -61.5q0 -32 18.5 -54t37.5 -26.5t34 -4.5zM89 607v62h280v-62h-280z" />
    <glyph glyph-name="Abreve" unicode="&#x102;" horiz-adv-x="540" 
d="M0 0l237 667h62l241 -667h-83l-75 206h-232l-70 -206h-80zM175 277h182l-92 276zM269 720q-39 0 -71 17.5t-45.5 46t-14.5 64.5h60q3 -30 16.5 -48t29.5 -21.5t29 -3.5q25 0 46.5 14.5t29.5 58.5h57q-5 -53 -30.5 -83t-54.5 -37.5t-52 -7.5z" />
    <glyph glyph-name="abreve" unicode="&#x103;" horiz-adv-x="447" 
d="M191 -11q-30 0 -57.5 9.5t-49.5 28t-35 46.5t-13 65q0 70 51 110.5t115 51t109 10.5v6q0 60 -24.5 86t-69.5 26q-32 0 -65 -12.5t-64 -37.5l-24 56q26 20 64 37.5t95 17.5q76 0 118.5 -41t42.5 -137v-311h-67l-3 41q-24 -25 -55 -38.5t-68 -13.5zM200 52q33 0 60.5 14.5
t50.5 34.5v148q-64 -2 -110.5 -13.5t-68.5 -37t-22 -61.5q0 -32 18.5 -54t37.5 -26.5t34 -4.5zM224 554q-39 0 -71 17.5t-45.5 46t-14.5 64.5h60q3 -30 16.5 -48t29.5 -21.5t29 -3.5q25 0 46.5 14.5t29.5 58.5h57q-5 -53 -30.5 -83t-54.5 -37.5t-52 -7.5z" />
    <glyph glyph-name="Aogonek" unicode="&#x104;" horiz-adv-x="540" 
d="M0 0l237 667h62l241 -667h-83l-75 206h-232l-70 -206h-80zM175 277h182l-92 276zM477 -198q-42 0 -66.5 20.5t-24.5 60.5q0 31 21 63.5t42.5 48.5t35.5 24l48 -16q-21 -15 -40 -32.5t-28.5 -36t-9.5 -34.5q0 -14 7.5 -25.5t28.5 -11.5q20 0 36 11l16 -55
q-12 -7 -29.5 -12t-36.5 -5z" />
    <glyph glyph-name="aogonek" unicode="&#x105;" horiz-adv-x="447" 
d="M191 -11q-30 0 -57.5 9.5t-49.5 28t-35 46.5t-13 65q0 70 51 110.5t115 51t109 10.5v6q0 60 -24.5 86t-69.5 26q-32 0 -65 -12.5t-64 -37.5l-24 56q26 20 64 37.5t95 17.5q76 0 118.5 -41t42.5 -137v-311h-67l-3 41q-24 -25 -55 -38.5t-68 -13.5zM200 52q33 0 60.5 14.5
t50.5 34.5v148q-64 -2 -110.5 -13.5t-68.5 -37t-22 -61.5q0 -32 18.5 -54t37.5 -26.5t34 -4.5zM325 -198q-42 0 -66.5 20.5t-24.5 60.5q0 31 21 63.5t42.5 48.5t35.5 24l48 -16q-21 -15 -40 -32.5t-28.5 -36t-9.5 -34.5q0 -14 7.5 -25.5t28.5 -11.5q20 0 36 11l16 -55
q-12 -7 -29.5 -12t-36.5 -5z" />
    <glyph glyph-name="Cacute" unicode="&#x106;" horiz-adv-x="541" 
d="M311 -13q-56 0 -104 19.5t-83.5 61t-56 106.5t-20.5 157q0 129 45 213t105.5 110t109.5 26q69 0 118 -29t86 -92l-56 -46q-26 36 -45 54t-48 29t-57 11q-84 0 -131 -72t-47 -205q0 -65 14.5 -115.5t39 -85t58.5 -52t73 -17.5q58 0 94 18t69 50l28 -72q-37 -37 -93.5 -53
t-98.5 -16zM223 710l-36 37l159 139l49 -52z" />
    <glyph glyph-name="cacute" unicode="&#x107;" horiz-adv-x="450" 
d="M255 -11q-41 0 -79 15t-67 46t-47 77.5t-18 109.5q0 95 37 155.5t84 78.5t85 18q50 0 88 -19.5t55.5 -42.5t25.5 -37l-51 -38q-22 34 -47.5 54.5t-69.5 20.5q-42 0 -75 -28.5t-46.5 -71.5t-13.5 -88t11.5 -80t31 -59t45.5 -36.5t55 -12.5q46 0 76.5 14t54.5 37l21 -63
q-26 -23 -67.5 -36.5t-88.5 -13.5zM183 544l-36 37l159 139l49 -52z" />
    <glyph glyph-name="Ccircumflex" unicode="&#x108;" horiz-adv-x="541" 
d="M311 -13q-56 0 -104 19.5t-83.5 61t-56 106.5t-20.5 157q0 129 45 213t105.5 110t109.5 26q69 0 118 -29t86 -92l-56 -46q-26 36 -45 54t-48 29t-57 11q-84 0 -131 -72t-47 -205q0 -65 14.5 -115.5t39 -85t58.5 -52t73 -17.5q58 0 94 18t69 50l28 -72q-37 -37 -93.5 -53
t-98.5 -16zM200 710l-43 30l120 144h46l119 -144l-41 -30l-101 112z" />
    <glyph glyph-name="ccircumflex" unicode="&#x109;" horiz-adv-x="450" 
d="M255 -11q-41 0 -79 15t-67 46t-47 77.5t-18 109.5q0 95 37 155.5t84 78.5t85 18q50 0 88 -19.5t55.5 -42.5t25.5 -37l-51 -38q-22 34 -47.5 54.5t-69.5 20.5q-42 0 -75 -28.5t-46.5 -71.5t-13.5 -88t11.5 -80t31 -59t45.5 -36.5t55 -12.5q46 0 76.5 14t54.5 37l21 -63
q-26 -23 -67.5 -36.5t-88.5 -13.5zM148 544l-43 30l120 144h46l119 -144l-41 -30l-101 112z" />
    <glyph glyph-name="Cdotaccent" unicode="&#x10a;" horiz-adv-x="541" 
d="M311 -13q-56 0 -104 19.5t-83.5 61t-56 106.5t-20.5 157q0 129 45 213t105.5 110t109.5 26q69 0 118 -29t86 -92l-56 -46q-26 36 -45 54t-48 29t-57 11q-84 0 -131 -72t-47 -205q0 -65 14.5 -115.5t39 -85t58.5 -52t73 -17.5q58 0 94 18t69 50l28 -72q-37 -37 -93.5 -53
t-98.5 -16zM307 751q-23 0 -38 15t-15 41t15 41.5t38 15.5q24 0 38.5 -15.5t14.5 -41.5t-14.5 -41t-38.5 -15z" />
    <glyph glyph-name="cdotaccent" unicode="&#x10b;" horiz-adv-x="450" 
d="M255 -11q-41 0 -79 15t-67 46t-47 77.5t-18 109.5q0 95 37 155.5t84 78.5t85 18q50 0 88 -19.5t55.5 -42.5t25.5 -37l-51 -38q-22 34 -47.5 54.5t-69.5 20.5q-42 0 -75 -28.5t-46.5 -71.5t-13.5 -88t11.5 -80t31 -59t45.5 -36.5t55 -12.5q46 0 76.5 14t54.5 37l21 -63
q-26 -23 -67.5 -36.5t-88.5 -13.5zM252 585q-23 0 -38 15t-15 41t15 41.5t38 15.5q24 0 38.5 -15.5t14.5 -41.5t-14.5 -41t-38.5 -15z" />
    <glyph glyph-name="Ccaron" unicode="&#x10c;" horiz-adv-x="541" 
d="M311 -13q-56 0 -104 19.5t-83.5 61t-56 106.5t-20.5 157q0 129 45 213t105.5 110t109.5 26q69 0 118 -29t86 -92l-56 -46q-26 36 -45 54t-48 29t-57 11q-84 0 -131 -72t-47 -205q0 -65 14.5 -115.5t39 -85t58.5 -52t73 -17.5q58 0 94 18t69 50l28 -72q-37 -37 -93.5 -53
t-98.5 -16zM286 710l-120 144l43 30l100 -112l101 112l41 -30l-119 -144h-46z" />
    <glyph glyph-name="ccaron" unicode="&#x10d;" horiz-adv-x="450" 
d="M255 -11q-41 0 -79 15t-67 46t-47 77.5t-18 109.5q0 95 37 155.5t84 78.5t85 18q50 0 88 -19.5t55.5 -42.5t25.5 -37l-51 -38q-22 34 -47.5 54.5t-69.5 20.5q-42 0 -75 -28.5t-46.5 -71.5t-13.5 -88t11.5 -80t31 -59t45.5 -36.5t55 -12.5q46 0 76.5 14t54.5 37l21 -63
q-26 -23 -67.5 -36.5t-88.5 -13.5zM224 544l-120 144l43 30l100 -112l101 112l41 -30l-119 -144h-46z" />
    <glyph glyph-name="Dcaron" unicode="&#x10e;" horiz-adv-x="581" 
d="M77 0v667h163q38 0 77.5 -6.5t73.5 -23.5q52 -27 88 -71.5t52 -105t16 -117.5q0 -97 -28.5 -167t-77 -111t-96.5 -53t-105 -12h-163zM153 69h78q60 0 96 14q42 19 76.5 56.5t48.5 90.5t14 109q0 87 -25 140t-69 83q-28 19 -65 27.5t-72 8.5h-82v-529zM235 710l-120 144
l43 30l100 -112l101 112l41 -30l-119 -144h-46z" />
    <glyph glyph-name="dcaron" unicode="&#x10f;" horiz-adv-x="528" 
d="M245 -11q-48 0 -85.5 19.5t-63 53.5t-39 80.5t-13.5 100.5q0 75 32 135t81 85.5t104 25.5q35 0 59.5 -5.5t41.5 -12.5v196h73v-667h-67l-6 39q-25 -27 -53.5 -38.5t-63.5 -11.5zM257 51q29 0 56 12.5t49 41.5v299q-18 10 -45 16.5t-44 6.5q-56 0 -95 -33t-50.5 -76.5
t-11.5 -78.5q0 -63 20.5 -109t52.5 -62.5t68 -16.5zM493 497v170h75l-28 -170h-47z" />
    <glyph glyph-name="Dcroat" unicode="&#x110;" horiz-adv-x="581" 
d="M77 0v316h-78v62h78v289h164q37 0 77 -6.5t73 -23.5q69 -34 112.5 -106.5t43.5 -187.5q0 -119 -42 -197t-108.5 -112t-155.5 -34h-164zM153 69h78q60 0 96 14q45 21 79 59t47.5 89.5t13.5 107.5q0 87 -25.5 140t-69.5 83q-28 19 -64.5 27.5t-71.5 8.5h-83v-220h152v-62
h-152v-247z" />
    <glyph glyph-name="dcroat" unicode="&#x111;" horiz-adv-x="498" 
d="M245 -11q-48 0 -85.5 19.5t-63 53.5t-39 80.5t-13.5 100.5q0 75 32 135t81 85.5t104 25.5q35 0 59.5 -5.5t41.5 -12.5v70h-138v58h138v68h73v-68h61v-58h-61v-541h-67l-6 39q-25 -27 -53.5 -38.5t-63.5 -11.5zM257 51q29 0 56 12.5t49 41.5v299q-18 10 -45 16.5t-44 6.5
q-56 0 -95 -33t-50.5 -76.5t-11.5 -78.5q0 -63 20.5 -109t52.5 -62.5t68 -16.5z" />
    <glyph glyph-name="Emacron" unicode="&#x112;" horiz-adv-x="488" 
d="M77 0v667h370v-69h-294v-214h210v-69h-211v-246h317v-69h-392zM126 773v62h280v-62h-280z" />
    <glyph glyph-name="emacron" unicode="&#x113;" horiz-adv-x="483" 
d="M266 -11q-102 0 -162 64.5t-60 187.5q0 82 30.5 142t77.5 83t94 23q71 0 118 -37t64.5 -96t17.5 -113h-330q0 -90 39 -141t113 -51q44 0 78 15t61 38l19 -63q-22 -22 -67.5 -37t-92.5 -15zM123 304h240q-2 41 -21.5 71t-47.5 41.5t-48 11.5q-45 0 -78 -28.5t-45 -95.5z
M120 607v62h280v-62h-280z" />
    <glyph glyph-name="Ebreve" unicode="&#x114;" horiz-adv-x="488" 
d="M77 0v667h370v-69h-294v-214h210v-69h-211v-246h317v-69h-392zM265 720q-39 0 -71 17.5t-45.5 46t-14.5 64.5h60q3 -30 16.5 -48t29.5 -21.5t29 -3.5q25 0 46.5 14.5t29.5 58.5h57q-5 -53 -30.5 -83t-54.5 -37.5t-52 -7.5z" />
    <glyph glyph-name="ebreve" unicode="&#x115;" horiz-adv-x="483" 
d="M266 -11q-102 0 -162 64.5t-60 187.5q0 82 30.5 142t77.5 83t94 23q71 0 118 -37t64.5 -96t17.5 -113h-330q0 -90 39 -141t113 -51q44 0 78 15t61 38l19 -63q-22 -22 -67.5 -37t-92.5 -15zM123 304h240q-2 41 -21.5 71t-47.5 41.5t-48 11.5q-45 0 -78 -28.5t-45 -95.5z
M252 554q-39 0 -71 17.5t-45.5 46t-14.5 64.5h60q3 -30 16.5 -48t29.5 -21.5t29 -3.5q25 0 46.5 14.5t29.5 58.5h57q-5 -53 -30.5 -83t-54.5 -37.5t-52 -7.5z" />
    <glyph glyph-name="Edotaccent" unicode="&#x116;" horiz-adv-x="488" 
d="M77 0v667h370v-69h-294v-214h210v-69h-211v-246h317v-69h-392zM263 751q-23 0 -38 15t-15 41t15 41.5t38 15.5q24 0 38.5 -15.5t14.5 -41.5t-14.5 -41t-38.5 -15z" />
    <glyph glyph-name="edotaccent" unicode="&#x117;" horiz-adv-x="483" 
d="M266 -11q-102 0 -162 64.5t-60 187.5q0 82 30.5 142t77.5 83t94 23q71 0 118 -37t64.5 -96t17.5 -113h-330q0 -90 39 -141t113 -51q44 0 78 15t61 38l19 -63q-22 -22 -67.5 -37t-92.5 -15zM123 304h240q-2 41 -21.5 71t-47.5 41.5t-48 11.5q-45 0 -78 -28.5t-45 -95.5z
M252 585q-23 0 -38 15t-15 41t15 41.5t38 15.5q24 0 38.5 -15.5t14.5 -41.5t-14.5 -41t-38.5 -15z" />
    <glyph glyph-name="Eogonek" unicode="&#x118;" horiz-adv-x="488" 
d="M77 0v667h370v-69h-294v-214h210v-69h-211v-246h317v-69h-392zM392 -198q-42 0 -66.5 20.5t-24.5 60.5q0 31 21 63.5t42.5 48.5t35.5 24l48 -16q-21 -15 -40 -32.5t-28.5 -36t-9.5 -34.5q0 -14 7.5 -25.5t28.5 -11.5q20 0 36 11l16 -55q-12 -7 -29.5 -12t-36.5 -5z" />
    <glyph glyph-name="eogonek" unicode="&#x119;" horiz-adv-x="483" 
d="M266 -11q-102 0 -162 64.5t-60 187.5q0 82 30.5 142t77.5 83t94 23q71 0 118 -37t64.5 -96t17.5 -113h-330q0 -90 39 -141t113 -51q44 0 78 15t61 38l19 -63q-22 -22 -67.5 -37t-92.5 -15zM123 304h240q-2 41 -21.5 71t-47.5 41.5t-48 11.5q-45 0 -78 -28.5t-45 -95.5z
M299 -198q-42 0 -66.5 20.5t-24.5 60.5q0 31 21 63.5t42.5 48.5t35.5 24l48 -16q-21 -15 -40 -32.5t-28.5 -36t-9.5 -34.5q0 -14 7.5 -25.5t28.5 -11.5q20 0 36 11l16 -55q-12 -7 -29.5 -12t-36.5 -5z" />
    <glyph glyph-name="Ecaron" unicode="&#x11a;" horiz-adv-x="488" 
d="M77 0v667h370v-69h-294v-214h210v-69h-211v-246h317v-69h-392zM244 710l-120 144l43 30l100 -112l101 112l41 -30l-119 -144h-46z" />
    <glyph glyph-name="ecaron" unicode="&#x11b;" horiz-adv-x="483" 
d="M266 -11q-102 0 -162 64.5t-60 187.5q0 82 30.5 142t77.5 83t94 23q71 0 118 -37t64.5 -96t17.5 -113h-330q0 -90 39 -141t113 -51q44 0 78 15t61 38l19 -63q-22 -22 -67.5 -37t-92.5 -15zM123 304h240q-2 41 -21.5 71t-47.5 41.5t-48 11.5q-45 0 -78 -28.5t-45 -95.5z
M230 544l-120 144l43 30l100 -112l101 112l41 -30l-119 -144h-46z" />
    <glyph glyph-name="Gcircumflex" unicode="&#x11c;" horiz-adv-x="567" 
d="M317 -13q-56 0 -105 19.5t-85.5 61t-58 106.5t-21.5 157q0 133 44 215.5t102.5 108t108.5 25.5q43 0 75 -9t57 -25t43.5 -38t33.5 -48l-56 -47q-29 44 -62 70t-84 26q-60 0 -104 -38.5t-61 -103t-17 -137.5q0 -65 15.5 -116t41.5 -86t60.5 -53t73.5 -18q43 0 74.5 5.5
t51.5 12.5v174h-105v70h181v-294q-28 -13 -82.5 -25.5t-120.5 -12.5zM217 710l-43 30l120 144h46l119 -144l-41 -30l-101 112z" />
    <glyph glyph-name="gcircumflex" unicode="&#x11d;" horiz-adv-x="498" 
d="M226 -198q-41 0 -91 12t-69 24l17 67q27 -16 62 -27.5t80 -11.5q72 0 104.5 35.5t32.5 96.5v47q-25 -27 -53.5 -38.5t-63.5 -11.5q-48 0 -85.5 18.5t-63 51.5t-39 78.5t-13.5 99.5q0 46 14 90.5t42.5 79t71.5 55.5t102 21q38 0 80.5 -7.5t80.5 -22.5v-461
q0 -67 -29.5 -112t-79 -64.5t-100.5 -19.5zM257 57q29 0 56 12.5t49 41.5v301q-39 15 -89 15q-56 0 -95 -33t-50.5 -76.5t-11.5 -78.5q0 -61 20 -106t52 -60.5t69 -15.5zM169 544l-43 30l120 144h46l119 -144l-41 -30l-101 112z" />
    <glyph glyph-name="Gbreve" unicode="&#x11e;" horiz-adv-x="567" 
d="M317 -13q-56 0 -105 19.5t-85.5 61t-58 106.5t-21.5 157q0 133 44 215.5t102.5 108t108.5 25.5q43 0 75 -9t57 -25t43.5 -38t33.5 -48l-56 -47q-29 44 -62 70t-84 26q-60 0 -104 -38.5t-61 -103t-17 -137.5q0 -65 15.5 -116t41.5 -86t60.5 -53t73.5 -18q43 0 74.5 5.5
t51.5 12.5v174h-105v70h181v-294q-28 -13 -82.5 -25.5t-120.5 -12.5zM310 720q-39 0 -71 17.5t-45.5 46t-14.5 64.5h60q3 -30 16.5 -48t29.5 -21.5t29 -3.5q25 0 46.5 14.5t29.5 58.5h57q-5 -53 -30.5 -83t-54.5 -37.5t-52 -7.5z" />
    <glyph glyph-name="gbreve" unicode="&#x11f;" horiz-adv-x="498" 
d="M226 -198q-41 0 -91 12t-69 24l17 67q27 -16 62 -27.5t80 -11.5q72 0 104.5 35.5t32.5 96.5v47q-25 -27 -53.5 -38.5t-63.5 -11.5q-48 0 -85.5 18.5t-63 51.5t-39 78.5t-13.5 99.5q0 46 14 90.5t42.5 79t71.5 55.5t102 21q38 0 80.5 -7.5t80.5 -22.5v-461
q0 -67 -29.5 -112t-79 -64.5t-100.5 -19.5zM257 57q29 0 56 12.5t49 41.5v301q-39 15 -89 15q-56 0 -95 -33t-50.5 -76.5t-11.5 -78.5q0 -61 20 -106t52 -60.5t69 -15.5zM271 554q-39 0 -71 17.5t-45.5 46t-14.5 64.5h60q3 -30 16.5 -48t29.5 -21.5t29 -3.5q25 0 46.5 14.5
t29.5 58.5h57q-5 -53 -30.5 -83t-54.5 -37.5t-52 -7.5z" />
    <glyph glyph-name="Gdotaccent" unicode="&#x120;" horiz-adv-x="567" 
d="M317 -13q-56 0 -105 19.5t-85.5 61t-58 106.5t-21.5 157q0 133 44 215.5t102.5 108t108.5 25.5q43 0 75 -9t57 -25t43.5 -38t33.5 -48l-56 -47q-29 44 -62 70t-84 26q-60 0 -104 -38.5t-61 -103t-17 -137.5q0 -65 15.5 -116t41.5 -86t60.5 -53t73.5 -18q43 0 74.5 5.5
t51.5 12.5v174h-105v70h181v-294q-28 -13 -82.5 -25.5t-120.5 -12.5zM317 751q-23 0 -38 15t-15 41t15 41.5t38 15.5q24 0 38.5 -15.5t14.5 -41.5t-14.5 -41t-38.5 -15z" />
    <glyph glyph-name="gdotaccent" unicode="&#x121;" horiz-adv-x="498" 
d="M226 -198q-41 0 -91 12t-69 24l17 67q27 -16 62 -27.5t80 -11.5q72 0 104.5 35.5t32.5 96.5v47q-25 -27 -53.5 -38.5t-63.5 -11.5q-48 0 -85.5 18.5t-63 51.5t-39 78.5t-13.5 99.5q0 46 14 90.5t42.5 79t71.5 55.5t102 21q38 0 80.5 -7.5t80.5 -22.5v-461
q0 -67 -29.5 -112t-79 -64.5t-100.5 -19.5zM257 57q29 0 56 12.5t49 41.5v301q-39 15 -89 15q-56 0 -95 -33t-50.5 -76.5t-11.5 -78.5q0 -61 20 -106t52 -60.5t69 -15.5zM273 585q-23 0 -38 15t-15 41t15 41.5t38 15.5q24 0 38.5 -15.5t14.5 -41.5t-14.5 -41t-38.5 -15z" />
    <glyph glyph-name="Gcommaaccent" unicode="&#x122;" horiz-adv-x="567" 
d="M317 -13q-56 0 -105 19.5t-85.5 61t-58 106.5t-21.5 157q0 133 44 215.5t102.5 108t108.5 25.5q43 0 75 -9t57 -25t43.5 -38t33.5 -48l-56 -47q-29 44 -62 70t-84 26q-60 0 -104 -38.5t-61 -103t-17 -137.5q0 -65 15.5 -116t41.5 -86t60.5 -53t73.5 -18q43 0 74.5 5.5
t51.5 12.5v174h-105v70h181v-294q-28 -13 -82.5 -25.5t-120.5 -12.5zM232 -174l48 130h78l-68 -130h-58z" />
    <glyph glyph-name="gcommaaccent" unicode="&#x123;" horiz-adv-x="498" 
d="M226 -198q-41 0 -91 12t-69 24l17 67q27 -16 62 -27.5t80 -11.5q72 0 104.5 35.5t32.5 96.5v47q-25 -27 -53.5 -38.5t-63.5 -11.5q-48 0 -85.5 18.5t-63 51.5t-39 78.5t-13.5 99.5q0 46 14 90.5t42.5 79t71.5 55.5t102 21q38 0 80.5 -7.5t80.5 -22.5v-461
q0 -67 -29.5 -112t-79 -64.5t-100.5 -19.5zM257 57q29 0 56 12.5t49 41.5v301q-39 15 -89 15q-56 0 -95 -33t-50.5 -76.5t-11.5 -78.5q0 -61 20 -106t52 -60.5t69 -15.5zM233 569l72 130h61l-51 -130h-82z" />
    <glyph glyph-name="Hcircumflex" unicode="&#x124;" horiz-adv-x="622" 
d="M77 0v667h76v-289h317v289h75v-667h-75v307h-317v-307h-76zM220 710l-43 30l120 144h46l119 -144l-41 -30l-101 112z" />
    <glyph glyph-name="hcircumflex" unicode="&#x125;" horiz-adv-x="512" 
d="M66 0v667h73v-228q28 21 62.5 35.5t78.5 14.5q92 0 130.5 -49t38.5 -143v-297h-74v298q0 66 -25.5 97.5t-82.5 31.5q-36 0 -69.5 -17.5t-58.5 -36.5v-373h-73zM131 710l-43 30l120 144h46l119 -144l-41 -30l-101 112z" />
    <glyph glyph-name="Hbar" unicode="&#x126;" horiz-adv-x="622" 
d="M77 0v488h-100v62h100v117h76v-117h317v117h75v-117h99v-62h-99v-488h-75v307h-317v-307h-76zM153 378h317v110h-317v-110z" />
    <glyph glyph-name="hbar" unicode="&#x127;" horiz-adv-x="512" 
d="M66 0v547h-73v62h73v58h73v-58h196v-62h-196v-108q28 21 62.5 35.5t78.5 14.5q92 0 130.5 -49t38.5 -143v-297h-74v298q0 66 -25.5 97.5t-82.5 31.5q-36 0 -69.5 -17.5t-58.5 -36.5v-373h-73z" />
    <glyph glyph-name="Itilde" unicode="&#x128;" horiz-adv-x="230" 
d="M77 0v667h76v-667h-76zM-2 735l-46 23q14 45 39.5 72t58.5 27q21 0 41.5 -10.5t38.5 -24.5q28 -22 49 -22q14 0 28 13t28 46l46 -24q-15 -46 -40.5 -72t-58.5 -26q-18 0 -35 8t-34 20q-40 29 -60 29q-17 0 -29 -13.5t-26 -45.5z" />
    <glyph glyph-name="itilde" unicode="&#x129;" horiz-adv-x="204" 
d="M66 0v477h73v-477h-73zM-16 569l-46 23q14 45 39.5 72t58.5 27q21 0 41.5 -10.5t38.5 -24.5q28 -22 49 -22q14 0 28 13t28 46l46 -24q-15 -46 -40.5 -72t-58.5 -26q-18 0 -35 8t-34 20q-40 29 -60 29q-17 0 -29 -13.5t-26 -45.5z" />
    <glyph glyph-name="Imacron" unicode="&#x12a;" horiz-adv-x="230" 
d="M77 0v667h76v-667h-76zM-27 773v62h280v-62h-280z" />
    <glyph glyph-name="imacron" unicode="&#x12b;" horiz-adv-x="204" 
d="M66 0v477h73v-477h-73zM-39 607v62h280v-62h-280z" />
    <glyph glyph-name="Ibreve" unicode="&#x12c;" horiz-adv-x="230" 
d="M77 0v667h76v-667h-76zM119 720q-39 0 -71 17.5t-45.5 46t-14.5 64.5h60q3 -30 16.5 -48t29.5 -21.5t29 -3.5q25 0 46.5 14.5t29.5 58.5h57q-5 -53 -30.5 -83t-54.5 -37.5t-52 -7.5z" />
    <glyph glyph-name="ibreve" unicode="&#x12d;" horiz-adv-x="204" 
d="M66 0v477h73v-477h-73zM105 554q-39 0 -71 17.5t-45.5 46t-14.5 64.5h60q3 -30 16.5 -48t29.5 -21.5t29 -3.5q25 0 46.5 14.5t29.5 58.5h57q-5 -53 -30.5 -83t-54.5 -37.5t-52 -7.5z" />
    <glyph glyph-name="Iogonek" unicode="&#x12e;" horiz-adv-x="230" 
d="M77 0v667h76v-667h-76zM102 -198q-42 0 -66.5 20.5t-24.5 60.5q0 31 21 63.5t42.5 48.5t35.5 24l48 -16q-21 -15 -40 -32.5t-28.5 -36t-9.5 -34.5q0 -14 7.5 -25.5t28.5 -11.5q20 0 36 11l16 -55q-12 -7 -29.5 -12t-36.5 -5z" />
    <glyph glyph-name="iogonek" unicode="&#x12f;" horiz-adv-x="205" 
d="M66 0v477h74v-477h-74zM103 561q-20 0 -34.5 12.5t-14.5 36.5q0 23 14.5 36t34.5 13t34 -13t14 -36q0 -24 -14 -36.5t-34 -12.5zM90 -198q-42 0 -66.5 20.5t-24.5 60.5q0 31 21 63.5t42.5 48.5t35.5 24l48 -16q-21 -15 -40 -32.5t-28.5 -36t-9.5 -34.5q0 -14 7.5 -25.5
t28.5 -11.5q20 0 36 11l16 -55q-12 -7 -29.5 -12t-36.5 -5z" />
    <glyph glyph-name="Idotaccent" unicode="&#x130;" horiz-adv-x="230" 
d="M77 0v667h76v-667h-76zM120 751q-23 0 -38 15t-15 41t15 41.5t38 15.5q24 0 38.5 -15.5t14.5 -41.5t-14.5 -41t-38.5 -15z" />
    <glyph glyph-name="dotlessi" unicode="&#x131;" horiz-adv-x="204" 
d="M66 0v477h73v-477h-73z" />
    <glyph glyph-name="IJ" unicode="&#x132;" horiz-adv-x="570" 
d="M77 0v667h76v-667h-76zM342 -11q-48 0 -78.5 10.5t-45.5 20.5l25 68q9 -10 37 -20.5t58 -10.5q44 0 67.5 24t23.5 86v500h76v-507q0 -87 -42 -129t-121 -42z" />
    <glyph glyph-name="ij" unicode="&#x133;" horiz-adv-x="406" 
d="M66 0v477h74v-477h-74zM103 561q-20 0 -34.5 12.5t-14.5 36.5q0 23 14.5 36t34.5 13t34 -13t14 -36q0 -24 -14 -36.5t-34 -12.5zM232 -197l-29 60q46 33 55 58.5t9 61.5v494h74v-492q0 -70 -27.5 -111.5t-81.5 -70.5zM304 561q-20 0 -34.5 12.5t-14.5 36.5q0 23 14.5 36
t34.5 13t34 -13t14 -36q0 -24 -14 -36.5t-34 -12.5z" />
    <glyph glyph-name="Jcircumflex" unicode="&#x134;" horiz-adv-x="348" 
d="M120 -11q-48 0 -78.5 10.5t-45.5 20.5l25 68q9 -10 37 -20.5t58 -10.5q44 0 67.5 24t23.5 86v500h76v-507q0 -87 -42 -129t-121 -42zM148 710l-43 30l120 144h46l119 -144l-41 -30l-101 112z" />
    <glyph glyph-name="jcircumflex" unicode="&#x135;" horiz-adv-x="205" 
d="M31 -197l-29 60q46 33 55 58.5t9 61.5v494h74v-492q0 -70 -27.5 -111.5t-81.5 -70.5zM5 544l-43 30l120 144h46l119 -144l-41 -30l-101 112z" />
    <glyph glyph-name="Kcommaaccent" unicode="&#x136;" horiz-adv-x="541" 
d="M435 0l-85 207q-25 57 -36 72.5t-29 23.5t-39 8h-93v-310h-76v666h76v-291h81q28 0 48.5 13.5t41.5 60.5l95 217h82l-101 -226q-16 -35 -33 -55.5t-37 -28.5q29 -8 45.5 -27t30.5 -54l110 -276h-81zM199 -174l48 130h78l-68 -130h-58z" />
    <glyph glyph-name="kcommaaccent" unicode="&#x137;" horiz-adv-x="450" 
d="M66 0v667h73v-367h49q28 0 50 14.5t43 61.5l44 101h79l-50 -110q-16 -35 -33 -58t-37 -31q28 -8 45 -24.5t31 -51.5l80 -202h-81l-54 133q-23 52 -34 69.5t-30 25.5t-41 8h-61v-236h-73zM157 -174l48 130h78l-68 -130h-58z" />
    <glyph glyph-name="kgreenlandic" unicode="&#x138;" horiz-adv-x="450" 
d="M66 0v477h73v-198h49q28 0 50 14.5t43 61.5l54 122h79l-60 -131q-16 -35 -33 -58t-37 -31q28 -8 45 -24.5t31 -51.5l72 -181h-81l-46 112q-23 52 -34 69.5t-30 25.5t-41 8h-61v-215h-73z" />
    <glyph glyph-name="Lacute" unicode="&#x139;" horiz-adv-x="466" 
d="M77 0v667h76v-598h294v-69h-370zM70 710l-36 37l159 139l49 -52z" />
    <glyph glyph-name="lacute" unicode="&#x13a;" horiz-adv-x="248" 
d="M163 -9q-59 0 -81 33t-22 102v541h73v-553q0 -33 10 -47.5t31 -14.5q19 0 47 14l17 -57q-13 -7 -32.5 -12.5t-42.5 -5.5zM38 710l-36 37l159 139l49 -52z" />
    <glyph glyph-name="Lcommaaccent" unicode="&#x13b;" horiz-adv-x="466" 
d="M77 0v667h76v-598h294v-69h-370zM189 -174l48 130h78l-68 -130h-58z" />
    <glyph glyph-name="lcommaaccent" unicode="&#x13c;" horiz-adv-x="248" 
d="M163 -9q-59 0 -81 33t-22 102v541h73v-553q0 -33 10 -47.5t31 -14.5q19 0 47 14l17 -57q-13 -7 -32.5 -12.5t-42.5 -5.5zM66 -174l48 130h78l-68 -130h-58z" />
    <glyph glyph-name="Lcaron" unicode="&#x13d;" horiz-adv-x="466" 
d="M77 0v667h76v-598h294v-69h-370zM231 497v170h75l-28 -170h-47z" />
    <glyph glyph-name="lcaron" unicode="&#x13e;" horiz-adv-x="237" 
d="M163 -9q-59 0 -81 33t-22 102v541h73v-553q0 -33 10 -47.5t31 -14.5q19 0 47 14l17 -57q-13 -7 -32.5 -12.5t-42.5 -5.5zM198 497v170h75l-28 -170h-47z" />
    <glyph glyph-name="Ldot" unicode="&#x13f;" horiz-adv-x="466" 
d="M77 0v667h76v-598h294v-69h-370zM353 307q-23 0 -38 15t-15 41t15 41.5t38 15.5q24 0 38.5 -15.5t14.5 -41.5t-14.5 -41t-38.5 -15z" />
    <glyph glyph-name="ldot" unicode="&#x140;" horiz-adv-x="295" 
d="M163 -9q-59 0 -81 33t-22 102v541h73v-553q0 -33 10 -47.5t31 -14.5q19 0 47 14l17 -57q-13 -7 -32.5 -12.5t-42.5 -5.5zM250 307q-23 0 -38 15t-15 41t15 41.5t38 15.5q24 0 38.5 -15.5t14.5 -41.5t-14.5 -41t-38.5 -15z" />
    <glyph glyph-name="Lslash" unicode="&#x141;" horiz-adv-x="473" 
d="M77 0v290l-76 -53l-27 48l103 72v310h76v-258l115 80l29 -48l-144 -99v-273h294v-69h-370z" />
    <glyph glyph-name="lslash" unicode="&#x142;" horiz-adv-x="261" 
d="M176 -9q-59 0 -81 33t-22 102v168l-61 -41l-27 50l88 59v305h73v-263l83 58l30 -49l-113 -78v-221q0 -33 10 -47.5t31 -14.5q19 0 47 14l17 -57q-13 -7 -32.5 -12.5t-42.5 -5.5z" />
    <glyph glyph-name="Nacute" unicode="&#x143;" horiz-adv-x="625" 
d="M77 0v667h77l319 -497v497h75v-667h-56l-340 529v-529h-75zM251 710l-36 37l159 139l49 -52z" />
    <glyph glyph-name="nacute" unicode="&#x144;" horiz-adv-x="514" 
d="M66 0v477h67l5 -38q28 22 65 36t78 14q94 0 132 -48t38 -144v-297h-73v299q0 60 -25.5 94t-83.5 34q-37 0 -71 -16.5t-59 -36.5v-374h-73zM204 544l-36 37l159 139l49 -52z" />
    <glyph glyph-name="Ncommaaccent" unicode="&#x145;" horiz-adv-x="625" 
d="M77 0v667h77l319 -497v497h75v-667h-56l-340 529v-529h-75zM245 -174l48 130h78l-68 -130h-58z" />
    <glyph glyph-name="ncommaaccent" unicode="&#x146;" horiz-adv-x="514" 
d="M66 0v477h67l5 -38q28 22 65 36t78 14q94 0 132 -48t38 -144v-297h-73v299q0 60 -25.5 94t-83.5 34q-37 0 -71 -16.5t-59 -36.5v-374h-73zM177 -174l48 130h78l-68 -130h-58z" />
    <glyph glyph-name="Ncaron" unicode="&#x147;" horiz-adv-x="625" 
d="M77 0v667h77l319 -497v497h75v-667h-56l-340 529v-529h-75zM303 708l-120 144l43 30l100 -112l101 112l41 -30l-119 -144h-46z" />
    <glyph glyph-name="ncaron" unicode="&#x148;" horiz-adv-x="514" 
d="M66 0v477h67l5 -38q28 22 65 36t78 14q94 0 132 -48t38 -144v-297h-73v299q0 60 -25.5 94t-83.5 34q-37 0 -71 -16.5t-59 -36.5v-374h-73zM246 544l-120 144l43 30l100 -112l101 112l41 -30l-119 -144h-46z" />
    <glyph glyph-name="napostrophe" unicode="&#x149;" horiz-adv-x="514" 
d="M66 0v477h67l5 -38q28 22 65 36t78 14q94 0 132 -48t38 -144v-297h-73v299q0 60 -25.5 94t-83.5 34q-37 0 -71 -16.5t-59 -36.5v-374h-73zM39 481l-22 31q27 23 38 41.5t13 31.5q-17 2 -32.5 16.5t-15.5 40.5q0 22 13.5 40t40.5 18q26 0 39.5 -20t13.5 -47
q0 -51 -30.5 -92t-57.5 -60z" />
    <glyph glyph-name="Eng" unicode="&#x14a;" horiz-adv-x="625" 
d="M439 -197l-37 55q50 32 62 62t12 63v35l-324 511v-529h-75v667h77l319 -517v517h75v-682q0 -70 -27.5 -111.5t-81.5 -70.5z" />
    <glyph glyph-name="eng" unicode="&#x14b;" horiz-adv-x="514" 
d="M342 -197l-38 55q50 32 62 62t12 63v316q0 60 -25.5 94t-83.5 34q-37 0 -71 -16.5t-59 -36.5v-374h-73v477h67l5 -38q28 22 65 36t78 14q94 0 132 -48t38 -144v-316q0 -68 -27.5 -108.5t-81.5 -69.5z" />
    <glyph glyph-name="Omacron" unicode="&#x14c;" horiz-adv-x="628" 
d="M314 -13q-70 0 -120.5 30t-83 78.5t-48 111t-15.5 127.5q0 104 36 188t98 121t133 37q99 0 162 -60t84 -140.5t21 -145.5t-15.5 -127.5t-48 -111t-83 -78.5t-120.5 -30zM314 58q68 0 114 49t60 112t14 115q0 82 -25 147.5t-69.5 96.5t-93.5 31q-70 0 -115 -48.5t-59 -112
t-14 -114.5q0 -52 11.5 -101.5t34.5 -88.5t58.5 -62.5t83.5 -23.5zM178 773v62h280v-62h-280z" />
    <glyph glyph-name="omacron" unicode="&#x14d;" horiz-adv-x="509" 
d="M255 -11q-53 0 -92.5 21.5t-65.5 57t-39.5 81t-13.5 92.5q0 71 29 133t79 88.5t103 26.5q74 0 124 -42.5t68.5 -101.5t18.5 -106q0 -74 -31.5 -137t-79.5 -88t-100 -25zM255 51q47 0 81 32t46 77t12 80q0 55 -20.5 101.5t-52.5 66.5t-66 20q-51 0 -85 -34t-44 -76
t-10 -77q0 -57 20 -104.5t52 -66.5t67 -19zM123 607v62h280v-62h-280z" />
    <glyph glyph-name="Obreve" unicode="&#x14e;" horiz-adv-x="628" 
d="M314 -13q-70 0 -120.5 30t-83 78.5t-48 111t-15.5 127.5q0 104 36 188t98 121t133 37q99 0 162 -60t84 -140.5t21 -145.5t-15.5 -127.5t-48 -111t-83 -78.5t-120.5 -30zM314 58q68 0 114 49t60 112t14 115q0 82 -25 147.5t-69.5 96.5t-93.5 31q-70 0 -115 -48.5t-59 -112
t-14 -114.5q0 -52 11.5 -101.5t34.5 -88.5t58.5 -62.5t83.5 -23.5zM316 720q-39 0 -71 17.5t-45.5 46t-14.5 64.5h60q3 -30 16.5 -48t29.5 -21.5t29 -3.5q25 0 46.5 14.5t29.5 58.5h57q-5 -53 -30.5 -83t-54.5 -37.5t-52 -7.5z" />
    <glyph glyph-name="obreve" unicode="&#x14f;" horiz-adv-x="509" 
d="M255 -11q-53 0 -92.5 21.5t-65.5 57t-39.5 81t-13.5 92.5q0 71 29 133t79 88.5t103 26.5q74 0 124 -42.5t68.5 -101.5t18.5 -106q0 -74 -31.5 -137t-79.5 -88t-100 -25zM255 51q47 0 81 32t46 77t12 80q0 55 -20.5 101.5t-52.5 66.5t-66 20q-51 0 -85 -34t-44 -76
t-10 -77q0 -57 20 -104.5t52 -66.5t67 -19zM261 554q-39 0 -71 17.5t-45.5 46t-14.5 64.5h60q3 -30 16.5 -48t29.5 -21.5t29 -3.5q25 0 46.5 14.5t29.5 58.5h57q-5 -53 -30.5 -83t-54.5 -37.5t-52 -7.5z" />
    <glyph glyph-name="Ohungarumlaut" unicode="&#x150;" horiz-adv-x="628" 
d="M314 -13q-70 0 -120.5 30t-83 78.5t-48 111t-15.5 127.5q0 104 36 188t98 121t133 37q99 0 162 -60t84 -140.5t21 -145.5t-15.5 -127.5t-48 -111t-83 -78.5t-120.5 -30zM314 58q68 0 114 49t60 112t14 115q0 82 -25 147.5t-69.5 96.5t-93.5 31q-70 0 -115 -48.5t-59 -112
t-14 -114.5q0 -52 11.5 -101.5t34.5 -88.5t58.5 -62.5t83.5 -23.5zM204 710l-34 37l159 139l48 -52zM380 710l-34 37l157 139l50 -52z" />
    <glyph glyph-name="ohungarumlaut" unicode="&#x151;" horiz-adv-x="509" 
d="M255 -11q-53 0 -92.5 21.5t-65.5 57t-39.5 81t-13.5 92.5q0 71 29 133t79 88.5t103 26.5q74 0 124 -42.5t68.5 -101.5t18.5 -106q0 -74 -31.5 -137t-79.5 -88t-100 -25zM255 51q47 0 81 32t46 77t12 80q0 55 -20.5 101.5t-52.5 66.5t-66 20q-51 0 -85 -34t-44 -76
t-10 -77q0 -57 20 -104.5t52 -66.5t67 -19zM136 544l-34 37l159 139l48 -52zM312 544l-34 37l157 139l50 -52z" />
    <glyph glyph-name="OE" unicode="&#x152;" horiz-adv-x="845" 
d="M385 0q-81 0 -143.5 23.5t-106 68t-66 108t-22.5 143.5q0 157 88 240.5t250 83.5h419v-69h-294v-214h210v-69h-210v-246h316v-69h-441zM388 69h45v529h-49q-123 0 -190.5 -65t-67.5 -194q0 -134 69 -202t193 -68z" />
    <glyph glyph-name="oe" unicode="&#x153;" horiz-adv-x="826" 
d="M255 -11q-53 0 -92.5 21.5t-65.5 57t-39.5 81t-13.5 92.5q0 71 29 133t79 88.5t103 26.5q62 0 104.5 -29.5t64.5 -77.5q24 51 65.5 79t99.5 28q71 0 118 -37t64.5 -96t17.5 -113h-330q0 -90 39 -141t113 -51q44 0 78 15t61 38l19 -63q-22 -22 -67.5 -37t-92.5 -15
q-66 0 -114.5 28.5t-71.5 79.5q-24 -48 -64.5 -78t-103.5 -30zM255 51q47 0 81 32t46 77t12 80q0 55 -20.5 101.5t-52.5 66.5t-66 20q-51 0 -85 -34t-44 -76t-10 -77q0 -57 20 -104.5t52 -66.5t67 -19zM466 304h240q-2 41 -21.5 71t-47 41.5t-48.5 11.5q-45 0 -78 -28.5
t-45 -95.5z" />
    <glyph glyph-name="Racute" unicode="&#x154;" horiz-adv-x="551" 
d="M77 0v667h203q106 0 156.5 -50t50.5 -132q0 -52 -21.5 -90t-47 -53.5t-39.5 -19.5q34 -12 51 -40.5t29 -72.5q6 -22 14 -49.5t16 -56.5l27 -103h-78l-27 104q-19 72 -42 127q-13 27 -23 38t-29.5 17t-39.5 6h-124v-292h-76zM153 361h123q132 0 132 124q0 57 -32.5 85
t-93.5 28h-129v-237zM194 710l-36 37l159 139l49 -52z" />
    <glyph glyph-name="racute" unicode="&#x155;" horiz-adv-x="295" 
d="M66 0v477h66l7 -48q27 25 56.5 42.5t63.5 17.5q18 0 41 -5l-9 -71q-19 4 -36 4q-32 0 -62.5 -18.5t-53.5 -41.5v-357h-73zM141 544l-36 37l159 139l49 -52z" />
    <glyph glyph-name="Rcommaaccent" unicode="&#x156;" horiz-adv-x="551" 
d="M77 0v667h203q106 0 156.5 -50t50.5 -132q0 -52 -21.5 -90t-47 -53.5t-39.5 -19.5q34 -12 51 -40.5t29 -72.5q6 -22 14 -49.5t16 -56.5l27 -103h-78l-27 104q-19 72 -42 127q-13 27 -23 38t-29.5 17t-39.5 6h-124v-292h-76zM153 361h123q132 0 132 124q0 57 -32.5 85
t-93.5 28h-129v-237zM206 -174l48 130h78l-68 -130h-58z" />
    <glyph glyph-name="rcommaaccent" unicode="&#x157;" horiz-adv-x="295" 
d="M66 0v477h66l7 -48q27 25 56.5 42.5t63.5 17.5q18 0 41 -5l-9 -71q-19 4 -36 4q-32 0 -62.5 -18.5t-53.5 -41.5v-357h-73zM18 -174l48 130h78l-68 -130h-58z" />
    <glyph glyph-name="Rcaron" unicode="&#x158;" horiz-adv-x="551" 
d="M77 0v667h203q106 0 156.5 -50t50.5 -132q0 -52 -21.5 -90t-47 -53.5t-39.5 -19.5q34 -12 51 -40.5t29 -72.5q6 -22 14 -49.5t16 -56.5l27 -103h-78l-27 104q-19 72 -42 127q-13 27 -23 38t-29.5 17t-39.5 6h-124v-292h-76zM153 361h123q132 0 132 124q0 57 -32.5 85
t-93.5 28h-129v-237zM235 710l-120 144l43 30l100 -112l101 112l41 -30l-119 -144h-46z" />
    <glyph glyph-name="rcaron" unicode="&#x159;" horiz-adv-x="295" 
d="M66 0v477h66l7 -48q27 25 56.5 42.5t63.5 17.5q18 0 41 -5l-9 -71q-19 4 -36 4q-32 0 -62.5 -18.5t-53.5 -41.5v-357h-73zM180 544l-120 144l43 30l100 -112l101 112l41 -30l-119 -144h-46z" />
    <glyph glyph-name="Sacute" unicode="&#x15a;" horiz-adv-x="490" 
d="M237 -14q-33 0 -63.5 6t-56 16t-45.5 21.5t-34 23.5l33 71q37 -31 78 -49t91 -18q42 0 74 15t46 42.5t14 58.5q0 49 -34.5 78t-114.5 60q-59 21 -100 49t-58.5 63.5t-17.5 77.5q0 63 35.5 106.5t81.5 57.5t86 14q62 0 115 -23.5t88 -65.5l-37 -58q-71 76 -170 76
q-56 0 -87 -26.5t-31 -73.5q0 -38 21 -62.5t56 -41t72 -30.5q68 -28 105 -53t54 -61t17 -79q0 -74 -36 -120.5t-87 -60t-95 -14.5zM199 710l-36 37l159 139l49 -52z" />
    <glyph glyph-name="sacute" unicode="&#x15b;" horiz-adv-x="391" 
d="M200 -11q-42 0 -75 10t-55 23t-30 21l26 62q22 -19 55.5 -36.5t78.5 -17.5q46 0 69.5 18t23.5 57q0 50 -118 96q-68 25 -96 55.5t-28 80.5q0 58 40.5 94.5t107.5 36.5q53 0 91 -16.5t62 -39.5l-31 -55q-24 23 -54 36t-67 13q-42 0 -60.5 -20t-18.5 -44q0 -46 110 -86
q63 -23 96.5 -55.5t33.5 -90.5q0 -51 -25.5 -83.5t-63 -45.5t-72.5 -13zM150 544l-36 37l159 139l49 -52z" />
    <glyph glyph-name="Scircumflex" unicode="&#x15c;" horiz-adv-x="490" 
d="M237 -14q-33 0 -63.5 6t-56 16t-45.5 21.5t-34 23.5l33 71q37 -31 78 -49t91 -18q42 0 74 15t46 42.5t14 58.5q0 49 -34.5 78t-114.5 60q-59 21 -100 49t-58.5 63.5t-17.5 77.5q0 63 35.5 106.5t81.5 57.5t86 14q62 0 115 -23.5t88 -65.5l-37 -58q-71 76 -170 76
q-56 0 -87 -26.5t-31 -73.5q0 -38 21 -62.5t56 -41t72 -30.5q68 -28 105 -53t54 -61t17 -79q0 -74 -36 -120.5t-87 -60t-95 -14.5zM157 710l-43 30l120 144h46l119 -144l-41 -30l-101 112z" />
    <glyph glyph-name="scircumflex" unicode="&#x15d;" horiz-adv-x="391" 
d="M200 -11q-42 0 -75 10t-55 23t-30 21l26 62q22 -19 55.5 -36.5t78.5 -17.5q46 0 69.5 18t23.5 57q0 50 -118 96q-68 25 -96 55.5t-28 80.5q0 58 40.5 94.5t107.5 36.5q53 0 91 -16.5t62 -39.5l-31 -55q-24 23 -54 36t-67 13q-42 0 -60.5 -20t-18.5 -44q0 -46 110 -86
q63 -23 96.5 -55.5t33.5 -90.5q0 -51 -25.5 -83.5t-63 -45.5t-72.5 -13zM108 544l-43 30l120 144h46l119 -144l-41 -30l-101 112z" />
    <glyph glyph-name="Scedilla" unicode="&#x15e;" horiz-adv-x="490" 
d="M237 -14q-33 0 -63.5 6t-56 16t-45.5 21.5t-34 23.5l33 71q37 -31 78 -49t91 -18q42 0 74 15t46 42.5t14 58.5q0 49 -34.5 78t-114.5 60q-59 21 -100 49t-58.5 63.5t-17.5 77.5q0 63 35.5 106.5t81.5 57.5t86 14q62 0 115 -23.5t88 -65.5l-37 -58q-71 76 -170 76
q-56 0 -87 -26.5t-31 -73.5q0 -38 21 -62.5t56 -41t72 -30.5q68 -28 105 -53t54 -61t17 -79q0 -74 -36 -120.5t-87 -60t-95 -14.5zM161 -174l48 130h78l-68 -130h-58z" />
    <glyph glyph-name="scedilla" unicode="&#x15f;" horiz-adv-x="391" 
d="M200 -11q-42 0 -75 10t-55 23t-30 21l26 62q22 -19 55.5 -36.5t78.5 -17.5q46 0 69.5 18t23.5 57q0 50 -118 96q-68 25 -96 55.5t-28 80.5q0 58 40.5 94.5t107.5 36.5q53 0 91 -16.5t62 -39.5l-31 -55q-24 23 -54 36t-67 13q-42 0 -60.5 -20t-18.5 -44q0 -46 110 -86
q63 -23 96.5 -55.5t33.5 -90.5q0 -51 -25.5 -83.5t-63 -45.5t-72.5 -13zM122 -174l48 130h78l-68 -130h-58z" />
    <glyph glyph-name="Scaron" unicode="&#x160;" horiz-adv-x="490" 
d="M237 -14q-33 0 -63.5 6t-56 16t-45.5 21.5t-34 23.5l33 71q37 -31 78 -49t91 -18q42 0 74 15t46 42.5t14 58.5q0 49 -34.5 78t-114.5 60q-59 21 -100 49t-58.5 63.5t-17.5 77.5q0 63 35.5 106.5t81.5 57.5t86 14q62 0 115 -23.5t88 -65.5l-37 -58q-71 76 -170 76
q-56 0 -87 -26.5t-31 -73.5q0 -38 21 -62.5t56 -41t72 -30.5q68 -28 105 -53t54 -61t17 -79q0 -74 -36 -120.5t-87 -60t-95 -14.5zM229 710l-120 144l43 30l100 -112l101 112l41 -30l-119 -144h-46z" />
    <glyph glyph-name="scaron" unicode="&#x161;" horiz-adv-x="391" 
d="M200 -11q-42 0 -75 10t-55 23t-30 21l26 62q22 -19 55.5 -36.5t78.5 -17.5q46 0 69.5 18t23.5 57q0 50 -118 96q-68 25 -96 55.5t-28 80.5q0 58 40.5 94.5t107.5 36.5q53 0 91 -16.5t62 -39.5l-31 -55q-24 23 -54 36t-67 13q-42 0 -60.5 -20t-18.5 -44q0 -46 110 -86
q63 -23 96.5 -55.5t33.5 -90.5q0 -51 -25.5 -83.5t-63 -45.5t-72.5 -13zM187 544l-120 144l43 30l100 -112l101 112l41 -30l-119 -144h-46z" />
    <glyph glyph-name="Tcommaaccent" unicode="&#x162;" horiz-adv-x="485" 
d="M205 0v598h-196v69h468v-69h-197v-598h-75zM154 -174l48 130h78l-68 -130h-58z" />
    <glyph glyph-name="tcommaaccent" unicode="&#x163;" horiz-adv-x="312" 
d="M202 -11q-51 0 -78.5 27.5t-27.5 84.5v313h-78v63h78v130h73v-130h119v-63h-120v-305q0 -35 13 -46.5t33 -11.5q32 0 66 26l20 -58q-17 -12 -41.5 -21t-56.5 -9zM113 -174l48 130h78l-68 -130h-58z" />
    <glyph glyph-name="Tcaron" unicode="&#x164;" horiz-adv-x="485" 
d="M205 0v598h-196v69h468v-69h-197v-598h-75zM221 710l-120 144l43 30l100 -112l101 112l41 -30l-119 -144h-46z" />
    <glyph glyph-name="tcaron" unicode="&#x165;" horiz-adv-x="312" 
d="M202 -11q-51 0 -78.5 27.5t-27.5 84.5v313h-78v63h78v130h73v-130h119v-63h-120v-305q0 -35 13 -46.5t33 -11.5q32 0 66 26l20 -58q-17 -12 -41.5 -21t-56.5 -9zM236 532v170h75l-28 -170h-47z" />
    <glyph glyph-name="Tbar" unicode="&#x166;" horiz-adv-x="485" 
d="M205 0v295h-152v62h152v241h-196v69h468v-69h-197v-241h159v-62h-159v-295h-75z" />
    <glyph glyph-name="tbar" unicode="&#x167;" horiz-adv-x="312" 
d="M202 -11q-51 0 -78.5 27.5t-27.5 84.5v130h-78v63h78v120h-78v63h78v130h73v-130h119v-63h-120v-120h120v-63h-120v-122q0 -35 13 -46.5t33 -11.5q32 0 66 26l20 -58q-17 -12 -41.5 -21t-56.5 -9z" />
    <glyph glyph-name="Utilde" unicode="&#x168;" horiz-adv-x="615" 
d="M305 -13q-76 0 -132 34t-78 88.5t-22 113.5v444h76v-429q0 -85 41.5 -132.5t116.5 -47.5t117 46t42 134v429h76v-444q0 -84 -40 -141t-95.5 -75.5t-101.5 -19.5zM201 735l-46 23q14 45 39.5 72t58.5 27q21 0 41.5 -10.5t38.5 -24.5q28 -22 49 -22q14 0 28 13t28 46
l46 -24q-15 -46 -40.5 -72t-58.5 -26q-18 0 -35 8t-34 20q-40 29 -60 29q-17 0 -29 -13.5t-26 -45.5z" />
    <glyph glyph-name="utilde" unicode="&#x169;" horiz-adv-x="511" 
d="M233 -11q-90 0 -130 46t-40 140v302h73v-306q0 -63 27.5 -91.5t81.5 -28.5q35 0 69.5 15.5t56.5 37.5v373h75v-477h-68l-5 37q-28 -22 -60 -35t-80 -13zM149 569l-46 23q14 45 39.5 72t58.5 27q21 0 41.5 -10.5t38.5 -24.5q28 -22 49 -22q14 0 28 13t28 46l46 -24
q-15 -46 -40.5 -72t-58.5 -26q-18 0 -35 8t-34 20q-40 29 -60 29q-17 0 -29 -13.5t-26 -45.5z" />
    <glyph glyph-name="Umacron" unicode="&#x16a;" horiz-adv-x="615" 
d="M305 -13q-76 0 -132 34t-78 88.5t-22 113.5v444h76v-429q0 -85 41.5 -132.5t116.5 -47.5t117 46t42 134v429h76v-444q0 -84 -40 -141t-95.5 -75.5t-101.5 -19.5zM170 773v62h280v-62h-280z" />
    <glyph glyph-name="umacron" unicode="&#x16b;" horiz-adv-x="511" 
d="M233 -11q-90 0 -130 46t-40 140v302h73v-306q0 -63 27.5 -91.5t81.5 -28.5q35 0 69.5 15.5t56.5 37.5v373h75v-477h-68l-5 37q-28 -22 -60 -35t-80 -13zM118 607v62h280v-62h-280z" />
    <glyph glyph-name="Ubreve" unicode="&#x16c;" horiz-adv-x="615" 
d="M305 -13q-76 0 -132 34t-78 88.5t-22 113.5v444h76v-429q0 -85 41.5 -132.5t116.5 -47.5t117 46t42 134v429h76v-444q0 -84 -40 -141t-95.5 -75.5t-101.5 -19.5zM319 720q-39 0 -71 17.5t-45.5 46t-14.5 64.5h60q3 -30 16.5 -48t29.5 -21.5t29 -3.5q25 0 46.5 14.5
t29.5 58.5h57q-5 -53 -30.5 -83t-54.5 -37.5t-52 -7.5z" />
    <glyph glyph-name="ubreve" unicode="&#x16d;" horiz-adv-x="511" 
d="M233 -11q-90 0 -130 46t-40 140v302h73v-306q0 -63 27.5 -91.5t81.5 -28.5q35 0 69.5 15.5t56.5 37.5v373h75v-477h-68l-5 37q-28 -22 -60 -35t-80 -13zM263 554q-39 0 -71 17.5t-45.5 46t-14.5 64.5h60q3 -30 16.5 -48t29.5 -21.5t29 -3.5q25 0 46.5 14.5t29.5 58.5h57
q-5 -53 -30.5 -83t-54.5 -37.5t-52 -7.5z" />
    <glyph glyph-name="Uring" unicode="&#x16e;" horiz-adv-x="615" 
d="M305 -13q-76 0 -132 34t-78 88.5t-22 113.5v444h76v-429q0 -85 41.5 -132.5t116.5 -47.5t117 46t42 134v429h76v-444q0 -84 -40 -141t-95.5 -75.5t-101.5 -19.5zM315 700q-32 0 -55 17t-30.5 40t-7.5 42q0 30 13.5 54t35 35t44.5 11q31 0 54.5 -17.5t31.5 -40.5t8 -42
q0 -29 -14 -54t-36 -35t-44 -10zM315 740q25 0 38 18.5t13 40.5q0 23 -13 41.5t-38 18.5t-38 -18.5t-13 -41.5q0 -22 13 -40.5t38 -18.5z" />
    <glyph glyph-name="uring" unicode="&#x16f;" horiz-adv-x="511" 
d="M233 -11q-90 0 -130 46t-40 140v302h73v-306q0 -63 27.5 -91.5t81.5 -28.5q35 0 69.5 15.5t56.5 37.5v373h75v-477h-68l-5 37q-28 -22 -60 -35t-80 -13zM269 534q-32 0 -55 17t-30.5 40t-7.5 42q0 30 13.5 54t35 35t44.5 11q31 0 54.5 -17.5t31.5 -40.5t8 -42
q0 -29 -14 -54t-36 -35t-44 -10zM269 574q25 0 38 18.5t13 40.5q0 23 -13 41.5t-38 18.5t-38 -18.5t-13 -41.5q0 -22 13 -40.5t38 -18.5z" />
    <glyph glyph-name="Uhungarumlaut" unicode="&#x170;" horiz-adv-x="615" 
d="M305 -13q-76 0 -132 34t-78 88.5t-22 113.5v444h76v-429q0 -85 41.5 -132.5t116.5 -47.5t117 46t42 134v429h76v-444q0 -84 -40 -141t-95.5 -75.5t-101.5 -19.5zM201 710l-34 37l159 139l48 -52zM377 710l-34 37l157 139l50 -52z" />
    <glyph glyph-name="uhungarumlaut" unicode="&#x171;" horiz-adv-x="511" 
d="M233 -11q-90 0 -130 46t-40 140v302h73v-306q0 -63 27.5 -91.5t81.5 -28.5q35 0 69.5 15.5t56.5 37.5v373h75v-477h-68l-5 37q-28 -22 -60 -35t-80 -13zM142 544l-34 37l159 139l48 -52zM318 544l-34 37l157 139l50 -52z" />
    <glyph glyph-name="Uogonek" unicode="&#x172;" horiz-adv-x="615" 
d="M305 -13q-76 0 -132 34t-78 88.5t-22 113.5v444h76v-429q0 -85 41.5 -132.5t116.5 -47.5t117 46t42 134v429h76v-444q0 -84 -40 -141t-95.5 -75.5t-101.5 -19.5zM340 -198q-42 0 -66.5 20.5t-24.5 60.5q0 31 21 63.5t42.5 48.5t35.5 24l48 -16q-21 -15 -40 -32.5
t-28.5 -36t-9.5 -34.5q0 -14 7.5 -25.5t28.5 -11.5q20 0 36 11l16 -55q-12 -7 -29.5 -12t-36.5 -5z" />
    <glyph glyph-name="uogonek" unicode="&#x173;" horiz-adv-x="511" 
d="M233 -11q-90 0 -130 46t-40 140v302h73v-306q0 -63 27.5 -91.5t81.5 -28.5q35 0 69.5 15.5t56.5 37.5v373h75v-477h-68l-5 37q-28 -22 -60 -35t-80 -13zM387 -198q-42 0 -66.5 20.5t-24.5 60.5q0 31 21 63.5t42.5 48.5t35.5 24l48 -16q-21 -15 -40 -32.5t-28.5 -36
t-9.5 -34.5q0 -14 7.5 -25.5t28.5 -11.5q20 0 36 11l16 -55q-12 -7 -29.5 -12t-36.5 -5z" />
    <glyph glyph-name="Wcircumflex" unicode="&#x174;" horiz-adv-x="713" 
d="M148 0l-148 667h77l108 -521l151 521h56l135 -517l109 517h77l-154 -667h-58l-141 517l-152 -517h-60zM266 710l-43 30l120 144h46l119 -144l-41 -30l-101 112z" />
    <glyph glyph-name="wcircumflex" unicode="&#x175;" horiz-adv-x="628" 
d="M140 0l-140 477h79l99 -371l115 371h45l113 -370l99 370h78l-140 -477h-67l-107 346l-108 -346h-66zM219 544l-43 30l120 144h46l119 -144l-41 -30l-101 112z" />
    <glyph glyph-name="Ycircumflex" unicode="&#x176;" horiz-adv-x="516" 
d="M216 0v320l-216 347h86l170 -270l177 270h83l-224 -346v-321h-76zM165 710l-43 30l120 144h46l119 -144l-41 -30l-101 112z" />
    <glyph glyph-name="ycircumflex" unicode="&#x177;" horiz-adv-x="453" 
d="M4 -193l-8 68q72 0 108.5 18t59.5 50q14 23 22 40l-178 494h82l143 -415q39 87 73.5 193.5t63.5 221.5h78q-47 -178 -90 -291.5t-76 -180.5q-19 -38 -39.5 -73.5t-50.5 -63t-75 -44t-113 -17.5zM136 544l-43 30l120 144h46l119 -144l-41 -30l-101 112z" />
    <glyph glyph-name="Ydieresis" unicode="&#x178;" horiz-adv-x="516" 
d="M216 0v320l-216 347h86l170 -270l177 270h83l-224 -346v-321h-76zM175 756q-20 0 -34.5 12.5t-14.5 36.5q0 23 14.5 36t34.5 13t34 -13t14 -36q0 -24 -14 -36.5t-34 -12.5zM346 756q-20 0 -34.5 12.5t-14.5 36.5q0 23 14.5 36t34.5 13t34 -13t14 -36q0 -24 -14 -36.5
t-34 -12.5z" />
    <glyph glyph-name="Zacute" unicode="&#x179;" horiz-adv-x="508" 
d="M36 0v74l357 524h-341v69h411v-86l-348 -512h362v-69h-441zM190 710l-36 37l159 139l49 -52z" />
    <glyph glyph-name="zacute" unicode="&#x17a;" horiz-adv-x="429" 
d="M38 0v75l270 339h-260v63h335v-79l-271 -335h278v-63h-352zM161 544l-36 37l159 139l49 -52z" />
    <glyph glyph-name="Zdotaccent" unicode="&#x17b;" horiz-adv-x="508" 
d="M36 0v74l357 524h-341v69h411v-86l-348 -512h362v-69h-441zM257 751q-23 0 -38 15t-15 41t15 41.5t38 15.5q24 0 38.5 -15.5t14.5 -41.5t-14.5 -41t-38.5 -15z" />
    <glyph glyph-name="zdotaccent" unicode="&#x17c;" horiz-adv-x="429" 
d="M38 0v75l270 339h-260v63h335v-79l-271 -335h278v-63h-352zM219 585q-23 0 -38 15t-15 41t15 41.5t38 15.5q24 0 38.5 -15.5t14.5 -41.5t-14.5 -41t-38.5 -15z" />
    <glyph glyph-name="Zcaron" unicode="&#x17d;" horiz-adv-x="508" 
d="M36 0v74l357 524h-341v69h411v-86l-348 -512h362v-69h-441zM237 710l-120 144l43 30l100 -112l101 112l41 -30l-119 -144h-46z" />
    <glyph glyph-name="zcaron" unicode="&#x17e;" horiz-adv-x="429" 
d="M38 0v75l270 339h-260v63h335v-79l-271 -335h278v-63h-352zM197 544l-120 144l43 30l100 -112l101 112l41 -30l-119 -144h-46z" />
    <glyph glyph-name="longs" unicode="&#x17f;" horiz-adv-x="278" 
d="M86 0v512q0 64 21.5 104t54 52t62.5 12q42 0 80 -14l-7 -64q-14 7 -32 10.5t-35 3.5q-45 0 -57.5 -29.5t-12.5 -75.5v-511h-74z" />
    <glyph glyph-name="Schwa" unicode="&#x18f;" horiz-adv-x="592" 
d="M268 609q-59 0 -103.5 -19.5t-74.5 -44.5l-36 59q14 11 34.5 24.5t47.5 25t61.5 19t75.5 7.5q61 0 111 -23t86 -66.5t55.5 -108t19.5 -146.5q0 -93 -22.5 -159.5t-58.5 -108.5t-82 -61.5t-93 -19.5q-59 0 -106 19.5t-80 61.5t-50.5 107.5t-17.5 156.5h432v5
q0 69 -14.5 120t-41 85t-63 50.5t-80.5 16.5zM120 264q1 -56 14 -95.5t35.5 -64.5t52.5 -36.5t65 -11.5q72 0 116.5 48.5t58.5 159.5h-342z" />
    <glyph glyph-name="florin" unicode="&#x192;" horiz-adv-x="540" 
d="M-30 -150v70q46 0 76 9.5t51 26.5q20 18 38 73t42 159l39 181h-107v69h122q17 95 59.5 146.5t93 63.5t92.5 12v-69q-54 0 -86.5 -16t-51 -52t-30.5 -85h168v-69h-181l-49 -219q-7 -30 -15 -64.5t-19.5 -67.5t-28.5 -63t-41 -51q-30 -27 -71 -39.5t-101 -14.5z" />
    <glyph glyph-name="Scommaaccent" unicode="&#x218;" horiz-adv-x="490" 
d="M237 -14q-33 0 -63.5 6t-56 16t-45.5 21.5t-34 23.5l33 71q37 -31 78 -49t91 -18q42 0 74 15t46 42.5t14 58.5q0 49 -34.5 78t-114.5 60q-59 21 -100 49t-58.5 63.5t-17.5 77.5q0 63 35.5 106.5t81.5 57.5t86 14q62 0 115 -23.5t88 -65.5l-37 -58q-71 76 -170 76
q-56 0 -87 -26.5t-31 -73.5q0 -38 21 -62.5t56 -41t72 -30.5q68 -28 105 -53t54 -61t17 -79q0 -74 -36 -120.5t-87 -60t-95 -14.5zM161 -174l48 130h78l-68 -130h-58z" />
    <glyph glyph-name="scommaaccent" unicode="&#x219;" horiz-adv-x="391" 
d="M200 -11q-42 0 -75 10t-55 23t-30 21l26 62q22 -19 55.5 -36.5t78.5 -17.5q46 0 69.5 18t23.5 57q0 50 -118 96q-68 25 -96 55.5t-28 80.5q0 58 40.5 94.5t107.5 36.5q53 0 91 -16.5t62 -39.5l-31 -55q-24 23 -54 36t-67 13q-42 0 -60.5 -20t-18.5 -44q0 -46 110 -86
q63 -23 96.5 -55.5t33.5 -90.5q0 -51 -25.5 -83.5t-63 -45.5t-72.5 -13zM122 -174l48 130h78l-68 -130h-58z" />
    <glyph glyph-name="uni021A" unicode="&#x21a;" horiz-adv-x="485" 
d="M205 0v598h-196v69h468v-69h-197v-598h-75zM154 -174l48 130h78l-68 -130h-58z" />
    <glyph glyph-name="uni021B" unicode="&#x21b;" horiz-adv-x="312" 
d="M202 -11q-51 0 -78.5 27.5t-27.5 84.5v313h-78v63h78v130h73v-130h119v-63h-120v-305q0 -35 13 -46.5t33 -11.5q32 0 66 26l20 -58q-17 -12 -41.5 -21t-56.5 -9zM113 -174l48 130h78l-68 -130h-58z" />
    <glyph glyph-name="dotlessj" unicode="&#x237;" horiz-adv-x="205" 
d="M31 -197l-29 60q46 33 55 58.5t9 61.5v494h74v-492q0 -70 -27.5 -111.5t-81.5 -70.5z" />
    <glyph glyph-name="schwa" unicode="&#x259;" horiz-adv-x="483" 
d="M368 235q0 93 -38.5 143t-110.5 50q-46 0 -77.5 -13.5t-59.5 -34.5l-29 53q22 18 63 37t101 19q102 0 162 -64.5t60 -187.5q0 -57 -14.5 -102.5t-41 -78t-63.5 -50t-83 -17.5q-50 0 -87.5 18t-62.5 50.5t-37.5 78t-12.5 99.5h331zM115 175q1 -34 12.5 -58t28.5 -39
t38.5 -22t42.5 -7q45 0 80 29.5t45 96.5h-247z" />
    <glyph glyph-name="circumflex" unicode="&#x2c6;" horiz-adv-x="420" 
d="M110 544l-43 30l120 144h46l119 -144l-41 -30l-101 112z" />
    <glyph glyph-name="caron" unicode="&#x2c7;" horiz-adv-x="420" 
d="M187 544l-120 144l43 30l100 -112l101 112l41 -30l-119 -144h-46z" />
    <glyph glyph-name="uni02C9" unicode="&#x2c9;" horiz-adv-x="420" 
d="M70 607v62h280v-62h-280z" />
    <glyph glyph-name="breve" unicode="&#x2d8;" horiz-adv-x="420" 
d="M207 554q-39 0 -71 17.5t-45.5 46t-14.5 64.5h60q3 -30 16.5 -48t29.5 -21.5t29 -3.5q25 0 46.5 14.5t29.5 58.5h57q-5 -53 -30.5 -83t-54.5 -37.5t-52 -7.5z" />
    <glyph glyph-name="dotaccent" unicode="&#x2d9;" horiz-adv-x="420" 
d="M210 585q-23 0 -38 15t-15 41t15 41.5t38 15.5q24 0 38.5 -15.5t14.5 -41.5t-14.5 -41t-38.5 -15z" />
    <glyph glyph-name="ring" unicode="&#x2da;" horiz-adv-x="420" 
d="M221 534q-32 0 -55 17t-30.5 40t-7.5 42q0 30 13.5 54t35 35t44.5 11q31 0 54.5 -17.5t31.5 -40.5t8 -42q0 -29 -14 -54t-36 -35t-44 -10zM221 574q25 0 38 18.5t13 40.5q0 23 -13 41.5t-38 18.5t-38 -18.5t-13 -41.5q0 -22 13 -40.5t38 -18.5z" />
    <glyph glyph-name="ogonek" unicode="&#x2db;" horiz-adv-x="420" 
d="M173 -198q-42 0 -66.5 20.5t-24.5 60.5q0 31 21 63.5t42.5 48.5t35.5 24l48 -16q-21 -15 -40 -32.5t-28.5 -36t-9.5 -34.5q0 -14 7.5 -25.5t28.5 -11.5q20 0 36 11l16 -55q-12 -7 -29.5 -12t-36.5 -5z" />
    <glyph glyph-name="tilde" unicode="&#x2dc;" horiz-adv-x="420" 
d="M92 569l-46 23q14 45 39.5 72t58.5 27q21 0 41.5 -10.5t38.5 -24.5q28 -22 49 -22q14 0 28 13t28 46l46 -24q-15 -46 -40.5 -72t-58.5 -26q-18 0 -35 8t-34 20q-40 29 -60 29q-17 0 -29 -13.5t-26 -45.5z" />
    <glyph glyph-name="hungarumlaut" unicode="&#x2dd;" horiz-adv-x="420" 
d="M53 544l-34 37l159 139l48 -52zM229 544l-34 37l157 139l50 -52z" />
    <glyph glyph-name="tonos" unicode="&#x384;" horiz-adv-x="442" 
d="M197 535l-47 21l93 193l68 -27z" />
    <glyph glyph-name="dieresistonos" unicode="&#x385;" horiz-adv-x="442" 
d="M211 561l-47 21l93 193l68 -27zM92 590q-21 0 -35.5 16.5t-14.5 39.5t14.5 39t35.5 16q20 0 34.5 -16t14.5 -39t-14.5 -39.5t-34.5 -16.5zM369 590q-20 0 -34.5 16.5t-14.5 39.5t14.5 39t34.5 16q21 0 35.5 -16t14.5 -39t-14.5 -39.5t-35.5 -16.5z" />
    <glyph glyph-name="Alphatonos" unicode="&#x386;" horiz-adv-x="540" 
d="M0 0l237 667h62l241 -667h-83l-75 206h-232l-70 -206h-80zM175 277h182l-92 276zM88 449l-50 15l59 204l71 -18z" />
    <glyph glyph-name="Epsilontonos" unicode="&#x388;" horiz-adv-x="491" 
d="M80 0v667h370v-69h-294v-214h210v-69h-211v-246h317v-69h-392zM-27 449l-50 15l59 204l71 -18z" />
    <glyph glyph-name="Etatonos" unicode="&#x389;" horiz-adv-x="636" 
d="M-27 449l-50 15l59 204l71 -18zM91 0v667h76v-289h317v289h75v-667h-75v307h-317v-307h-76z" />
    <glyph glyph-name="Iotatonos" unicode="&#x38a;" horiz-adv-x="244" 
d="M-20 449l-50 15l59 204l71 -18zM91 0v667h76v-667h-76z" />
    <glyph glyph-name="Omicrontonos" unicode="&#x38c;" horiz-adv-x="619" 
d="M-27 449l-50 15l59 204l71 -18zM308 -13q-70 0 -120.5 30t-83 78.5t-48 111t-15.5 127.5q0 104 36 188t98 121t133 37q99 0 162 -60t84 -140.5t21 -145.5t-15.5 -127.5t-48 -111t-83 -78.5t-120.5 -30zM308 58q68 0 114 49t60 112t14 115q0 82 -25 147.5t-69.5 96.5
t-93.5 31q-70 0 -115 -48.5t-59 -112t-14 -114.5q0 -52 11.5 -101.5t34.5 -88.5t58.5 -62.5t83.5 -23.5z" />
    <glyph glyph-name="Upsilontonos" unicode="&#x38e;" horiz-adv-x="517" 
d="M-102 449l-50 15l59 204l71 -18zM219 0v184q0 42 -4 74q-6 43 -27 94t-51.5 101t-69 94t-78.5 73l47 56q45 -32 97.5 -91.5t86 -125t42.5 -117.5q14 65 59.5 142.5t89 125t75.5 67.5l43 -52q-35 -22 -74 -70t-76 -112.5t-56 -114t-23 -84.5q-5 -42 -5 -90v-154h-76z" />
    <glyph glyph-name="Omegatonos" unicode="&#x38f;" horiz-adv-x="635" 
d="M30 0v69h130q-41 35 -71.5 78.5t-45 96.5t-14.5 106q0 105 43 185t108 112.5t130 32.5q94 0 161 -52t91 -124t24 -141q0 -75 -23.5 -138t-54 -99t-54.5 -57h132v-69h-219v69q39 28 74 76t50.5 104.5t15.5 104.5q0 86 -29.5 147.5t-75.5 84.5t-92 23q-47 0 -84 -19
t-63.5 -53.5t-40.5 -82.5t-14 -106q0 -48 13 -90t33.5 -77.5t46 -63.5t51.5 -48v-69h-222zM-27 449l-50 15l59 204l71 -18z" />
    <glyph glyph-name="iotadieresistonos" unicode="&#x390;" horiz-adv-x="251" 
d="M177 -11q-51 0 -78.5 28t-27.5 91v369h72v-359q0 -34 8.5 -50.5t34.5 -16.5q15 0 49 10l11 -56q-36 -16 -69 -16zM115 561l-47 21l93 193l68 -27zM-4 590q-21 0 -35.5 16.5t-14.5 39.5t14.5 39t35.5 16q20 0 34.5 -16t14.5 -39t-14.5 -39.5t-34.5 -16.5zM273 590
q-20 0 -34.5 16.5t-14.5 39.5t14.5 39t34.5 16q21 0 35.5 -16t14.5 -39t-14.5 -39.5t-35.5 -16.5z" />
    <glyph glyph-name="Alpha" unicode="&#x391;" horiz-adv-x="540" 
d="M0 0l237 667h62l241 -667h-83l-75 206h-232l-70 -206h-80zM175 277h182l-92 276z" />
    <glyph glyph-name="Beta" unicode="&#x392;" horiz-adv-x="510" 
d="M77 0v667h180q96 0 144 -46t48 -124q0 -64 -34.5 -98.5t-88.5 -44.5q46 -6 82 -27.5t55 -58.5t19 -82q0 -65 -29 -109t-72.5 -60.5t-83.5 -16.5h-220zM153 69h141q48 0 77.5 29.5t29.5 89.5q0 127 -147 127h-101v-246zM153 384h98q57 0 88 32t31 84q0 98 -110 98h-107
v-214z" />
    <glyph glyph-name="Gamma" unicode="&#x393;" horiz-adv-x="455" 
d="M77 0v667h360v-69h-284v-598h-76z" />
    <glyph glyph-name="uni0394" unicode="&#x394;" horiz-adv-x="558" 
d="M0 0l247 667h55l256 -667h-558zM102 65h350l-180 482z" />
    <glyph glyph-name="Epsilon" unicode="&#x395;" horiz-adv-x="488" 
d="M77 0v667h370v-69h-294v-214h210v-69h-211v-246h317v-69h-392z" />
    <glyph glyph-name="Zeta" unicode="&#x396;" horiz-adv-x="508" 
d="M36 0v74l357 524h-341v69h411v-86l-348 -512h362v-69h-441z" />
    <glyph glyph-name="Eta" unicode="&#x397;" horiz-adv-x="622" 
d="M77 0v667h76v-289h317v289h75v-667h-75v307h-317v-307h-76z" />
    <glyph glyph-name="Theta" unicode="&#x398;" horiz-adv-x="628" 
d="M314 -13q-70 0 -120.5 30t-83 78.5t-48 111t-15.5 127.5q0 104 36 188t98 121t133 37q99 0 162 -60t84 -140.5t21 -145.5t-15.5 -127.5t-48 -111t-83 -78.5t-120.5 -30zM314 58q68 0 114 49t60 112t14 115q0 82 -25 147.5t-69.5 96.5t-93.5 31q-70 0 -115 -48.5t-59 -112
t-14 -114.5q0 -52 11.5 -101.5t34.5 -88.5t58.5 -62.5t83.5 -23.5zM184 300v69h258v-69h-258z" />
    <glyph glyph-name="Iota" unicode="&#x399;" horiz-adv-x="230" 
d="M77 0v667h76v-667h-76z" />
    <glyph glyph-name="Kappa" unicode="&#x39a;" horiz-adv-x="531" 
d="M438 0l-219 347l-66 -71v-275h-76v666h76v-293l273 293h90l-244 -262l257 -405h-91z" />
    <glyph glyph-name="Lambda" unicode="&#x39b;" horiz-adv-x="522" 
d="M0 0l231 667h54l237 -667h-83l-182 532l-176 -532h-81z" />
    <glyph glyph-name="Mu" unicode="&#x39c;" horiz-adv-x="714" 
d="M327 -11l-174 529l-23 -518h-66l29 667h89l174 -545l181 545h88l28 -667h-73l-23 515l-180 -526h-50z" />
    <glyph glyph-name="Nu" unicode="&#x39d;" horiz-adv-x="625" 
d="M77 0v667h77l319 -497v497h75v-667h-56l-340 529v-529h-75z" />
    <glyph glyph-name="Xi" unicode="&#x39e;" horiz-adv-x="531" 
d="M55 0v70h421v-70h-421zM107 314v69h316v-69h-316zM60 597v70h411v-70h-411z" />
    <glyph glyph-name="Omicron" unicode="&#x39f;" horiz-adv-x="628" 
d="M314 -13q-70 0 -120.5 30t-83 78.5t-48 111t-15.5 127.5q0 104 36 188t98 121t133 37q99 0 162 -60t84 -140.5t21 -145.5t-15.5 -127.5t-48 -111t-83 -78.5t-120.5 -30zM314 58q68 0 114 49t60 112t14 115q0 82 -25 147.5t-69.5 96.5t-93.5 31q-70 0 -115 -48.5t-59 -112
t-14 -114.5q0 -52 11.5 -101.5t34.5 -88.5t58.5 -62.5t83.5 -23.5z" />
    <glyph glyph-name="Pi" unicode="&#x3a0;" horiz-adv-x="609" 
d="M77 0v667h455v-667h-76v598h-302v-598h-77z" />
    <glyph glyph-name="Rho" unicode="&#x3a1;" horiz-adv-x="514" 
d="M77 0v667h198q109 0 161.5 -51t52.5 -151q0 -97 -55.5 -147t-161.5 -50h-119v-268h-76zM153 338h124q58 0 94.5 30t36.5 99t-34.5 100t-97.5 31h-123v-260z" />
    <glyph glyph-name="Sigma" unicode="&#x3a3;" horiz-adv-x="486" 
d="M25 0v70l243 262l-253 264v71h433v-69h-338l254 -265l-247 -264h349v-69h-441z" />
    <glyph glyph-name="Tau" unicode="&#x3a4;" horiz-adv-x="485" 
d="M205 0v598h-196v69h468v-69h-197v-598h-75z" />
    <glyph glyph-name="Upsilon" unicode="&#x3a5;" horiz-adv-x="540" 
d="M230 0v184q0 42 -4 74q-6 43 -27 94t-51.5 101t-69 94t-78.5 73l47 56q45 -32 97.5 -91.5t86 -125t42.5 -117.5q14 65 59.5 142.5t89 125t75.5 67.5l43 -52q-35 -22 -74 -70t-76 -112.5t-56 -114t-23 -84.5q-5 -42 -5 -90v-154h-76z" />
    <glyph glyph-name="Phi" unicode="&#x3a6;" horiz-adv-x="686" 
d="M308 -11v94q-60 2 -107.5 19.5t-81.5 48t-52 74.5t-18 100q0 58 19.5 105t54 80t82 52t103.5 21v97h76v-97q89 -3 152 -41.5t87 -93.5t24 -109q0 -58 -18.5 -104t-53 -78.5t-83 -51.5t-108.5 -22v-94h-76zM308 150v367q-39 -1 -72 -13.5t-57 -36.5t-37.5 -59t-13.5 -81
q0 -44 13.5 -76.5t37.5 -54.5t57 -33.5t72 -12.5zM384 150q57 1 101.5 26t63.5 68.5t19 90.5q0 63 -30.5 106.5t-73.5 59.5t-80 16v-367z" />
    <glyph glyph-name="Chi" unicode="&#x3a7;" horiz-adv-x="490" 
d="M0 0l197 342l-180 325h92l136 -262l139 262h87l-180 -319l199 -348h-95l-152 286l-156 -286h-87z" />
    <glyph glyph-name="Psi" unicode="&#x3a8;" horiz-adv-x="714" 
d="M322 0v202q-129 5 -190 66t-61 191v208h76v-197q0 -80 27 -126.5t67.5 -59t80.5 -12.5v395h76v-395q80 1 127 45.5t47 135.5v214h76v-214q0 -115 -61.5 -179.5t-188.5 -71.5v-202h-76z" />
    <glyph glyph-name="Omega" unicode="&#x3a9;" horiz-adv-x="657" 
d="M49 0v69h130q-41 35 -71.5 78.5t-45 96.5t-14.5 106q0 105 43 185t108 112.5t130 32.5q94 0 161 -52t91 -124t24 -141q0 -75 -23.5 -138t-54 -99t-54.5 -57h132v-69h-219v69q39 28 74 76t50.5 104.5t15.5 104.5q0 86 -29.5 147.5t-75.5 84.5t-92 23q-47 0 -84 -19
t-63.5 -53.5t-40.5 -82.5t-14 -106q0 -48 13 -90t33.5 -77.5t46 -63.5t51.5 -48v-69h-222z" />
    <glyph glyph-name="Iotadieresis" unicode="&#x3aa;" horiz-adv-x="242" 
d="M77 0v667h76v-667h-76zM31 756q-20 0 -34.5 12.5t-14.5 36.5q0 23 14.5 36t34.5 13t34 -13t14 -36q0 -24 -14 -36.5t-34 -12.5zM202 756q-20 0 -34.5 12.5t-14.5 36.5q0 23 14.5 36t34.5 13t34 -13t14 -36q0 -24 -14 -36.5t-34 -12.5z" />
    <glyph glyph-name="Upsilondieresis" unicode="&#x3ab;" horiz-adv-x="544" 
d="M182 756q-20 0 -34.5 12.5t-14.5 36.5q0 23 14.5 36t34.5 13t34 -13t14 -36q0 -24 -14 -36.5t-34 -12.5zM353 756q-20 0 -34.5 12.5t-14.5 36.5q0 23 14.5 36t34.5 13t34 -13t14 -36q0 -24 -14 -36.5t-34 -12.5zM219 0v184q0 42 -4 74q-6 43 -27 94t-51.5 101t-69 94
t-78.5 73l47 56q45 -32 97.5 -91.5t86 -125t42.5 -117.5q14 65 59.5 142.5t89 125t75.5 67.5l43 -52q-35 -22 -74 -70t-76 -112.5t-56 -114t-23 -84.5q-5 -42 -5 -90v-154h-76z" />
    <glyph glyph-name="alphatonos" unicode="&#x3ac;" horiz-adv-x="544" 
d="M229 -11q-58 0 -103.5 34.5t-62.5 89.5t-17 114q0 82 28.5 145t74.5 90t96 27q42 0 73.5 -18t47 -40.5t22.5 -40.5q2 23 10 51t19 50l72 -16q-24 -58 -38 -123t-14 -148q0 -61 7 -93q6 -34 21.5 -45t36.5 -11q10 0 22 2l6 -63q-24 -5 -41 -5q-48 0 -74.5 23.5t-34.5 63.5
q-12 -19 -18 -25q-36 -38 -67 -50t-66 -12zM239 52q32 0 58.5 14t42 39.5t21.5 58.5q8 38 8 84q0 53 -14.5 93.5t-43 62t-67.5 21.5t-69 -28.5t-42 -73.5t-12 -96q0 -89 33.5 -132t84.5 -43zM286 535l-47 21l93 193l68 -27z" />
    <glyph glyph-name="epsilontonos" unicode="&#x3ad;" horiz-adv-x="459" 
d="M249 -11q-91 0 -141.5 34.5t-50.5 105.5q0 46 27.5 77t72.5 44q-39 14 -62.5 42.5t-23.5 66.5q0 61 45.5 95.5t121.5 34.5q60 0 99 -13t67 -29l-19 -61q-38 23 -73.5 31.5t-70.5 8.5q-45 0 -71 -16.5t-26 -54.5q0 -28 20.5 -48.5t61.5 -25.5q9 -2 71 -2h57v-61h-57
q-60 0 -82 -3q-38 -3 -61.5 -24t-23.5 -54q0 -42 29.5 -65t95.5 -23q41 0 79.5 10.5t70.5 25.5l9 -61q-29 -16 -75.5 -25.5t-89.5 -9.5zM258 535l-47 21l93 193l68 -27z" />
    <glyph glyph-name="etatonos" unicode="&#x3ae;" horiz-adv-x="528" 
d="M393 -189v485q0 38 -3 55q-16 74 -107 74q-42 0 -76.5 -19.5t-45.5 -48.5q-7 -19 -7 -61v-296h-73v375q0 23 -7 34.5t-24 11.5q-12 0 -24 -5l-16 58q8 4 22.5 7.5t30.5 3.5q29 0 49.5 -12t32.5 -49q29 34 67 49.5t84 15.5q79 0 121.5 -36.5t46.5 -95.5q2 -17 2 -63v-483
h-73zM296 535l-47 21l93 193l68 -27z" />
    <glyph glyph-name="iotatonos" unicode="&#x3af;" horiz-adv-x="251" 
d="M177 -11q-51 0 -78.5 28t-27.5 91v369h72v-359q0 -34 8.5 -50.5t34.5 -16.5q15 0 49 10l11 -56q-36 -16 -69 -16zM104 535l-47 21l93 193l68 -27z" />
    <glyph glyph-name="upsilondieresistonos" unicode="&#x3b0;" horiz-adv-x="521" 
d="M257 -11q-172 0 -172 202v149q0 31 -6 53.5t-34 22.5q-9 0 -23 -3l-12 62q20 10 48 10q45 0 65.5 -23.5t28.5 -57.5q6 -26 6 -70v-145q0 -61 24 -96.5t78 -35.5q53 0 79.5 30t37.5 89q6 27 6 107q0 62 -19 191l72 10q18 -115 18 -200q0 -61 -6 -109q-11 -85 -58 -135.5
t-133 -50.5zM252 561l-47 21l93 193l68 -27zM133 590q-21 0 -35.5 16.5t-14.5 39.5t14.5 39t35.5 16q20 0 34.5 -16t14.5 -39t-14.5 -39.5t-34.5 -16.5zM410 590q-20 0 -34.5 16.5t-14.5 39.5t14.5 39t34.5 16q21 0 35.5 -16t14.5 -39t-14.5 -39.5t-35.5 -16.5z" />
    <glyph glyph-name="alpha" unicode="&#x3b1;" horiz-adv-x="544" 
d="M229 -11q-58 0 -103.5 34.5t-62.5 89.5t-17 114q0 82 28.5 145t74.5 90t96 27q42 0 73.5 -18t47 -40.5t22.5 -40.5q2 23 10 51t19 50l72 -16q-24 -58 -38 -123t-14 -148q0 -61 7 -93q6 -34 21.5 -45t36.5 -11q10 0 22 2l6 -63q-24 -5 -41 -5q-48 0 -74.5 23.5t-34.5 63.5
q-12 -19 -18 -25q-36 -38 -67 -50t-66 -12zM239 52q32 0 58.5 14t42 39.5t21.5 58.5q8 38 8 84q0 53 -14.5 93.5t-43 62t-67.5 21.5t-69 -28.5t-42 -73.5t-12 -96q0 -89 33.5 -132t84.5 -43z" />
    <glyph glyph-name="beta" unicode="&#x3b2;" horiz-adv-x="550" 
d="M76 -190v646q0 21 5 59q7 46 33.5 84t68.5 57.5t90 19.5q81 0 129 -43t48 -116q0 -42 -21.5 -78t-45.5 -51t-42 -21q47 -5 87 -30.5t59.5 -67t19.5 -86.5q0 -62 -31.5 -110.5t-77 -66t-87.5 -17.5q-56 0 -97.5 17t-67.5 40v-236h-70zM310 51q54 0 89 32t35 102
q0 71 -50 109t-140 38v62q45 0 76.5 14t46 40.5t14.5 59.5q0 51 -30 78.5t-78 27.5q-32 0 -53.5 -9.5t-35.5 -26t-21.5 -37.5t-10.5 -43q-3 -18 -3 -51v-329q19 -20 48 -36.5t57.5 -23.5t55.5 -7z" />
    <glyph glyph-name="gamma" unicode="&#x3b3;" horiz-adv-x="477" 
d="M190 -189q0 126 -8 186q-14 102 -47.5 211t-67.5 178q-10 20 -20.5 26t-22.5 6q-11 0 -28 -5l-18 59q11 5 28 8.5t31 3.5q28 0 51 -12.5t41 -44.5q19 -34 54 -143t51 -222q34 142 77.5 247t76.5 174l60 -24q-41 -89 -93.5 -223t-73.5 -213q-18 -72 -18 -157v-55h-73z" />
    <glyph glyph-name="delta" unicode="&#x3b4;" horiz-adv-x="516" 
d="M257 -11q-74 0 -125.5 42t-67.5 97.5t-16 102.5q0 72 30.5 130t80 84t103.5 31q-58 51 -146 116l22 75h317v-63h-247q43 -32 90.5 -71t85.5 -80q47 -50 68 -101.5t21 -118.5q0 -42 -12.5 -85.5t-38.5 -79t-67 -57.5t-98 -22zM260 53q50 0 83.5 29t45.5 71.5t12 79.5
q0 70 -26.5 115.5t-62.5 80.5q-101 -6 -146 -57.5t-45 -136.5q0 -38 9 -71.5t26.5 -58t43.5 -38.5t60 -14z" />
    <glyph glyph-name="epsilon" unicode="&#x3b5;" horiz-adv-x="459" 
d="M249 -11q-91 0 -141.5 34.5t-50.5 105.5q0 46 27.5 77t72.5 44q-39 14 -62.5 42.5t-23.5 66.5q0 61 45.5 95.5t121.5 34.5q60 0 99 -13t67 -29l-19 -61q-38 23 -73.5 31.5t-70.5 8.5q-45 0 -71 -16.5t-26 -54.5q0 -28 20.5 -48.5t61.5 -25.5q9 -2 71 -2h57v-61h-57
q-60 0 -82 -3q-38 -3 -61.5 -24t-23.5 -54q0 -42 29.5 -65t95.5 -23q41 0 79.5 10.5t70.5 25.5l9 -61q-29 -16 -75.5 -25.5t-89.5 -9.5z" />
    <glyph glyph-name="zeta" unicode="&#x3b6;" horiz-adv-x="425" 
d="M358 -176l-58 17q31 92 38 147h-25q-61 0 -110 9.5t-83.5 32.5t-53 60.5t-18.5 93.5q0 75 35 156.5t80 135t87 91.5q35 30 52 41q-35 -3 -66 -3q-64 0 -102 3.5t-50 7.5l12 59q85 -11 180 -11q65 0 132 7v-53q-41 -27 -64 -45q-74 -59 -128 -132.5t-74.5 -137
t-20.5 -112.5q0 -65 35.5 -96.5t94.5 -37.5t123 -6q20 0 28 -9t8 -32q0 -35 -17 -88.5t-35 -97.5z" />
    <glyph glyph-name="eta" unicode="&#x3b7;" horiz-adv-x="528" 
d="M393 -189v485q0 38 -3 55q-16 74 -107 74q-42 0 -76.5 -19.5t-45.5 -48.5q-7 -19 -7 -61v-296h-73v375q0 23 -7 34.5t-24 11.5q-12 0 -24 -5l-16 58q8 4 22.5 7.5t30.5 3.5q29 0 49.5 -12t32.5 -49q29 34 67 49.5t84 15.5q79 0 121.5 -36.5t46.5 -95.5q2 -17 2 -63v-483
h-73z" />
    <glyph glyph-name="theta" unicode="&#x3b8;" horiz-adv-x="504" 
d="M252 -11q-62 0 -102 29.5t-62.5 77.5t-31 109t-8.5 125q0 61 9.5 123t33.5 111.5t64.5 80.5t101.5 31q86 0 132 -60t56.5 -138.5t10.5 -142.5q0 -115 -23.5 -195t-72 -115.5t-108.5 -35.5zM254 53q54 0 85 42t39 101.5t8 106.5h-265q0 -47 6.5 -92t22 -80t41 -56.5
t63.5 -21.5zM121 363h265q-2 81 -16.5 138t-45 84.5t-68.5 27.5q-54 0 -86.5 -44t-40 -101.5t-8.5 -104.5z" />
    <glyph glyph-name="iota" unicode="&#x3b9;" horiz-adv-x="251" 
d="M177 -11q-51 0 -78.5 28t-27.5 91v369h72v-359q0 -34 8.5 -50.5t34.5 -16.5q15 0 49 10l11 -56q-36 -16 -69 -16z" />
    <glyph glyph-name="kappa" unicode="&#x3ba;" horiz-adv-x="520" 
d="M71 0v477h72v-241q124 155 171 202q27 26 49 34.5t45 8.5q16 0 33.5 -5t28.5 -13l-21 -60q-24 13 -41 13q-27 0 -59 -32q-39 -42 -69 -80l205 -304h-86l-167 246l-89 -104v-142h-72z" />
    <glyph glyph-name="lambda" unicode="&#x3bb;" horiz-adv-x="486" 
d="M447 -11q-45 0 -72.5 22.5t-40 56t-22.5 65.5l-76 240l-136 -373h-76l179 467l-24 69q-11 29 -22.5 43.5t-36.5 14.5q-22 0 -62 -17l-15 58q15 8 40.5 15.5t47.5 7.5q44 0 70.5 -23t42.5 -69l152 -452q10 -30 22.5 -46t36.5 -16q9 0 33 6l9 -59q-11 -5 -26 -7.5t-24 -2.5
z" />
    <glyph glyph-name="uni03BC" unicode="&#x3bc;" horiz-adv-x="545" 
d="M77 -189v666h73v-304q0 -66 28.5 -94t82.5 -28q44 0 73.5 18.5t41.5 44.5q9 18 9 69v294h73v-359q0 -34 6 -50t29 -16q13 0 28 5l9 -58q-11 -5 -25.5 -7.5t-23.5 -2.5q-32 0 -53.5 12.5t-32.5 46.5q-29 -31 -60 -45t-79 -14q-35 0 -63.5 11.5t-46.5 34.5v-224h-69z" />
    <glyph glyph-name="nu" unicode="&#x3bd;" horiz-adv-x="484" 
d="M191 0q-22 89 -59 209t-62 178q-8 20 -17.5 27t-21.5 7q-13 0 -30 -5l-15 58q24 11 57 11q30 0 51.5 -12.5t35.5 -42.5q21 -48 54 -156.5t55 -201.5q49 151 82.5 250.5t54.5 162.5l65 -23q-39 -112 -79.5 -228t-81.5 -234h-89z" />
    <glyph glyph-name="xi" unicode="&#x3be;" horiz-adv-x="440" 
d="M373 -176l-57 17q12 32 23.5 73t14.5 75q-54 2 -108.5 9t-98.5 26t-71.5 55t-27.5 96q0 46 21 84.5t50 57t55 26.5q-32 8 -56.5 28t-33.5 44.5t-9 51.5q0 36 20 69t52.5 50.5t66.5 23.5q-36 -2 -67 -2q-53 0 -90 8l12 61q84 -11 179 -11q40 0 148 6v-60q-82 -13 -118 -22
q-62 -14 -95.5 -43.5t-33.5 -75.5q0 -42 25.5 -63t71.5 -26q11 -2 76 -2h46v-64q-69 0 -117 -4q-43 -4 -74.5 -23t-43.5 -48.5t-12 -60.5q0 -54 36 -82t99.5 -36.5t131.5 -11.5q19 -1 28.5 -9t9.5 -31q0 -32 -17.5 -87t-35.5 -99z" />
    <glyph glyph-name="omicron" unicode="&#x3bf;" horiz-adv-x="512" 
d="M259 -11q-53 0 -92.5 21.5t-65.5 57t-39.5 81t-13.5 92.5q0 71 29 133t79 88.5t103 26.5q74 0 124 -42.5t68.5 -101.5t18.5 -106q0 -74 -31.5 -137t-79.5 -88t-100 -25zM259 51q47 0 81 32t46 77t12 80q0 55 -20.5 101.5t-52.5 66.5t-66 20q-51 0 -85 -34t-44 -76
t-10 -77q0 -57 20 -104.5t52 -66.5t67 -19z" />
    <glyph glyph-name="pi" unicode="&#x3c0;" horiz-adv-x="631" 
d="M504 -11q-48 0 -73.5 27t-25.5 85v314h-194v-415h-73v415h-8q-27 0 -43 -12.5t-33 -36.5l-49 36q22 36 45 50t40 19q22 6 69 6h415v-63h-96v-296q0 -34 6 -51t32 -17q14 0 35 6l11 -55q-27 -11 -58 -12z" />
    <glyph glyph-name="rho" unicode="&#x3c1;" horiz-adv-x="528" 
d="M69 -189v425q0 26 3 55q6 64 36 112.5t74.5 67t91.5 18.5q82 0 130 -42t62.5 -98.5t14.5 -100.5q0 -79 -30.5 -143t-78 -90t-97.5 -26q-45 0 -77 15.5t-56 40.5v-234h-73zM272 51q47 0 80 31t44.5 74t11.5 82q0 35 -7.5 69t-23.5 60.5t-41.5 43t-61.5 16.5
q-57 0 -89.5 -36.5t-39.5 -91.5q-3 -29 -3 -56v-128q25 -26 56 -45t74 -19z" />
    <glyph glyph-name="sigma1" unicode="&#x3c2;" horiz-adv-x="447" 
d="M340 -165l-54 17q24 78 33 140q-52 3 -101.5 16t-88.5 42.5t-62.5 77.5t-23.5 120q0 86 36.5 144.5t83.5 77.5t88 19q50 0 94.5 -23.5t70.5 -72.5l-50 -37q-28 41 -55.5 56t-64.5 15q-40 0 -73 -27t-45 -66.5t-12 -81.5q0 -56 16 -93t46.5 -59.5t74.5 -33t99 -13.5
q19 -1 27 -8.5t8 -30.5q0 -28 -14 -77.5t-33 -101.5z" />
    <glyph glyph-name="sigma" unicode="&#x3c3;" horiz-adv-x="567" 
d="M253 -11q-54 0 -92.5 21t-63.5 55t-37 75.5t-12 83.5q0 77 32 136.5t82 84.5t104 29q43 3 108 3h146v-61h-138q44 -32 65.5 -83t21.5 -103q0 -70 -29 -129t-79.5 -85.5t-107.5 -26.5zM259 53q50 0 83 29.5t43.5 72t10.5 79.5q0 66 -28 112t-64 68h-20q-74 0 -118.5 -46.5
t-44.5 -140.5q0 -35 8.5 -66.5t25.5 -55.5t43 -38t61 -14z" />
    <glyph glyph-name="tau" unicode="&#x3c4;" horiz-adv-x="474" 
d="M299 -11q-57 0 -85.5 29t-28.5 92v305h-31q-27 0 -49 -4q-27 -6 -57 -47l-49 36q8 15 23.5 33.5t41.5 29.5q29 14 84 14h274v-62h-164v-285q0 -42 9.5 -60t46.5 -18q25 0 55 9l10 -60q-34 -12 -80 -12z" />
    <glyph glyph-name="upsilon" unicode="&#x3c5;" horiz-adv-x="521" 
d="M257 -11q-172 0 -172 202v149q0 31 -6 53.5t-34 22.5q-9 0 -23 -3l-12 62q20 10 48 10q45 0 65.5 -23.5t28.5 -57.5q6 -26 6 -70v-145q0 -61 24 -96.5t78 -35.5q53 0 79.5 30t37.5 89q6 27 6 107q0 62 -19 191l72 10q18 -115 18 -200q0 -61 -6 -109q-11 -85 -58 -135.5
t-133 -50.5z" />
    <glyph glyph-name="phi" unicode="&#x3c6;" horiz-adv-x="634" 
d="M285 -189v189q-51 2 -94.5 18.5t-75 47t-49.5 74.5t-18 101q0 56 18.5 99t50.5 72.5t75 45.5t93 19v190h68v-190q80 -4 136 -37.5t79 -87.5t23 -111q0 -85 -40.5 -142t-94.5 -77t-103 -22v-189h-68zM285 62v353q-55 -4 -94 -29.5t-55 -63.5t-16 -81q0 -44 13.5 -76.5
t36 -54.5t52.5 -34t63 -14zM353 62q53 3 92 28.5t56.5 66t17.5 84.5q0 62 -27 102.5t-66 55t-73 16.5v-353z" />
    <glyph glyph-name="chi" unicode="&#x3c7;" horiz-adv-x="476" 
d="M92 -197l-63 25l168 333l-80 190q-11 28 -24.5 50t-36.5 22q-15 0 -27 -5l-15 60q9 4 24 7.5t29 3.5q40 0 63 -23.5t49 -83.5l64 -158l125 265l62 -27l-152 -309l110 -225q29 -61 64 -61q12 0 29 5l9 -58q-11 -5 -25.5 -7.5t-23.5 -2.5q-47 0 -71.5 26.5t-62.5 103.5
l-73 152z" />
    <glyph glyph-name="psi" unicode="&#x3c8;" horiz-adv-x="686" 
d="M305 -190v180q-97 5 -153 41t-72 93.5t-16 120.5v111q0 76 -7 117l73 11q8 -38 8 -127v-107q0 -102 40.5 -145.5t126.5 -46.5v548h71v-548q67 1 108 28.5t53 78.5q9 41 9 111q0 52 -4.5 98t-13.5 100l71 10q9 -51 14.5 -102t5.5 -105q0 -71 -8 -109q-14 -82 -76 -129
t-159 -49v-180h-71z" />
    <glyph glyph-name="omega" unicode="&#x3c9;" horiz-adv-x="746" 
d="M224 -11q-66 0 -107 37.5t-53 88.5t-12 98q0 56 16 117t33.5 96.5t32.5 56.5l66 -22q-21 -32 -40.5 -79t-26.5 -88t-7 -75q0 -75 26 -119t80 -44q38 0 59.5 21.5t30.5 57.5t12 70q3 27 3 143h72q0 -116 3 -143q2 -31 8 -58t18.5 -47.5t32.5 -32t49 -11.5q49 0 76.5 45
t27.5 126q0 58 -22 125.5t-54 108.5l65 22q23 -27 45 -76t31 -93.5t9 -76.5q0 -83 -25 -141.5t-68 -82.5t-90 -24q-55 0 -88.5 29.5t-53.5 81.5q-20 -49 -55 -80t-94 -31z" />
    <glyph glyph-name="iotadieresis" unicode="&#x3ca;" horiz-adv-x="251" 
d="M177 -11q-51 0 -78.5 28t-27.5 91v369h72v-359q0 -34 8.5 -50.5t34.5 -16.5q15 0 49 10l11 -56q-36 -16 -69 -16zM21 590q-20 0 -34.5 12.5t-14.5 36.5q0 23 14.5 36t34.5 13t34 -13t14 -36q0 -24 -14 -36.5t-34 -12.5zM192 590q-20 0 -34.5 12.5t-14.5 36.5
q0 23 14.5 36t34.5 13t34 -13t14 -36q0 -24 -14 -36.5t-34 -12.5z" />
    <glyph glyph-name="upsilondieresis" unicode="&#x3cb;" horiz-adv-x="521" 
d="M257 -11q-172 0 -172 202v149q0 31 -6 53.5t-34 22.5q-9 0 -23 -3l-12 62q20 10 48 10q45 0 65.5 -23.5t28.5 -57.5q6 -26 6 -70v-145q0 -61 24 -96.5t78 -35.5q53 0 79.5 30t37.5 89q6 27 6 107q0 62 -19 191l72 10q18 -115 18 -200q0 -61 -6 -109q-11 -85 -58 -135.5
t-133 -50.5zM174 590q-20 0 -34.5 12.5t-14.5 36.5q0 23 14.5 36t34.5 13t34 -13t14 -36q0 -24 -14 -36.5t-34 -12.5zM345 590q-20 0 -34.5 12.5t-14.5 36.5q0 23 14.5 36t34.5 13t34 -13t14 -36q0 -24 -14 -36.5t-34 -12.5z" />
    <glyph glyph-name="omicrontonos" unicode="&#x3cc;" horiz-adv-x="512" 
d="M271 535l-47 21l93 193l68 -27zM255 -11q-53 0 -92.5 21.5t-65.5 57t-39.5 81t-13.5 92.5q0 71 29 133t79 88.5t103 26.5q74 0 124 -42.5t68.5 -101.5t18.5 -106q0 -74 -31.5 -137t-79.5 -88t-100 -25zM255 51q47 0 81 32t46 77t12 80q0 55 -20.5 101.5t-52.5 66.5
t-66 20q-51 0 -85 -34t-44 -76t-10 -77q0 -57 20 -104.5t52 -66.5t67 -19z" />
    <glyph glyph-name="upsilontonos" unicode="&#x3cd;" horiz-adv-x="521" 
d="M257 -11q-172 0 -172 202v149q0 31 -6 53.5t-34 22.5q-9 0 -23 -3l-12 62q20 10 48 10q45 0 65.5 -23.5t28.5 -57.5q6 -26 6 -70v-145q0 -61 24 -96.5t78 -35.5q53 0 79.5 30t37.5 89q6 27 6 107q0 62 -19 191l72 10q18 -115 18 -200q0 -61 -6 -109q-11 -85 -58 -135.5
t-133 -50.5zM275 535l-47 21l93 193l68 -27z" />
    <glyph glyph-name="omegatonos" unicode="&#x3ce;" horiz-adv-x="746" 
d="M224 -11q-66 0 -107 37.5t-53 88.5t-12 98q0 56 16 117t33.5 96.5t32.5 56.5l66 -22q-21 -32 -40.5 -79t-26.5 -88t-7 -75q0 -75 26 -119t80 -44q38 0 59.5 21.5t30.5 57.5t12 70q3 27 3 143h72q0 -116 3 -143q2 -31 8 -58t18.5 -47.5t32.5 -32t49 -11.5q49 0 76.5 45
t27.5 126q0 58 -22 125.5t-54 108.5l65 22q23 -27 45 -76t31 -93.5t9 -76.5q0 -83 -25 -141.5t-68 -82.5t-90 -24q-55 0 -88.5 29.5t-53.5 81.5q-20 -49 -55 -80t-94 -31zM389 535l-47 21l93 193l68 -27z" />
    <glyph glyph-name="afii10023" unicode="&#x401;" horiz-adv-x="519" 
d="M80 0v667h370v-69h-294v-214h210v-69h-211v-246h317v-69h-392zM180 756q-20 0 -34.5 12.5t-14.5 36.5q0 23 14.5 36t34.5 13t34 -13t14 -36q0 -24 -14 -36.5t-34 -12.5zM351 756q-20 0 -34.5 12.5t-14.5 36.5q0 23 14.5 36t34.5 13t34 -13t14 -36q0 -24 -14 -36.5
t-34 -12.5z" />
    <glyph glyph-name="afii10051" unicode="&#x402;" horiz-adv-x="641" 
d="M158 0v598h-158v69h402v-69h-168v-191q22 16 60.5 32t91.5 16q74 0 123.5 -31.5t69.5 -84t20 -108.5q0 -58 -17 -101.5t-46.5 -72t-70 -43t-87.5 -14.5h-46v69h46q46 0 80.5 20.5t48 57.5t13.5 79q0 76 -38 116.5t-104 40.5q-45 0 -85 -18t-59 -37v-328h-76z" />
    <glyph glyph-name="afii10052" unicode="&#x403;" horiz-adv-x="461" 
d="M82 0v667h365v-69h-289v-598h-76zM199 710l-36 37l159 139l49 -52z" />
    <glyph glyph-name="afii10053" unicode="&#x404;" horiz-adv-x="565" 
d="M318 -13q-59 0 -108 20.5t-84 63.5t-54.5 110t-19.5 161q0 114 42.5 195t104.5 112t123 31q72 0 121.5 -34t86.5 -88l-55 -46q-36 49 -72 72.5t-89 23.5q-80 0 -126 -59.5t-53 -165.5h235v-70h-237q1 -56 14 -103t37 -81t58.5 -53t79.5 -19q57 0 97.5 23.5t67.5 55.5
l29 -72q-20 -20 -49.5 -38.5t-69.5 -28.5t-79 -10z" />
    <glyph glyph-name="afii10054" unicode="&#x405;" horiz-adv-x="490" 
d="M237 -14q-33 0 -63.5 6t-56 16t-45.5 21.5t-34 23.5l33 71q37 -31 78 -49t91 -18q42 0 74 15t46 42.5t14 58.5q0 49 -34.5 78t-114.5 60q-59 21 -100 49t-58.5 63.5t-17.5 77.5q0 63 35.5 106.5t81.5 57.5t86 14q62 0 115 -23.5t88 -65.5l-37 -58q-71 76 -170 76
q-56 0 -87 -26.5t-31 -73.5q0 -38 21 -62.5t56 -41t72 -30.5q68 -28 105 -53t54 -61t17 -79q0 -74 -36 -120.5t-87 -60t-95 -14.5z" />
    <glyph glyph-name="afii10055" unicode="&#x406;" horiz-adv-x="230" 
d="M77 0v667h76v-667h-76z" />
    <glyph glyph-name="afii10056" unicode="&#x407;" horiz-adv-x="230" 
d="M77 0v667h76v-667h-76zM39 756q-20 0 -34.5 12.5t-14.5 36.5q0 23 14.5 36t34.5 13t34 -13t14 -36q0 -24 -14 -36.5t-34 -12.5zM210 756q-20 0 -34.5 12.5t-14.5 36.5q0 23 14.5 36t34.5 13t34 -13t14 -36q0 -24 -14 -36.5t-34 -12.5z" />
    <glyph glyph-name="afii10057" unicode="&#x408;" horiz-adv-x="348" 
d="M120 -11q-48 0 -78.5 10.5t-45.5 20.5l25 68q9 -10 37 -20.5t58 -10.5q44 0 67.5 24t23.5 86v500h76v-507q0 -87 -42 -129t-121 -42z" />
    <glyph glyph-name="afii10058" unicode="&#x409;" horiz-adv-x="886" 
d="M12 0v69h19q23 0 42.5 5.5t33.5 19.5t25 36q29 63 35 161.5t6 234.5v141h335v-243h124q78 0 127.5 -32.5t69 -81t19.5 -95.5q0 -48 -14.5 -87.5t-42 -68t-67.5 -44t-92 -15.5h-200v598h-185v-78q0 -166 -12 -270.5t-43 -161.5q-26 -48 -64.5 -68t-86.5 -20h-29zM508 69
h120q64 0 102 38.5t38 107.5q0 66 -38 103t-101 37h-121v-286z" />
    <glyph glyph-name="afii10059" unicode="&#x40a;" horiz-adv-x="888" 
d="M81 0v667h76v-256h280v256h76v-256h116q106 0 163.5 -52t57.5 -149q0 -100 -57.5 -155t-163.5 -55h-192v341h-280v-341h-76zM513 69h111q66 0 105.5 36t39.5 105q0 49 -23 79.5t-57 41t-64 10.5h-112v-272z" />
    <glyph glyph-name="afii10060" unicode="&#x40b;" horiz-adv-x="651" 
d="M159 0v598h-159v69h402v-69h-168v-191q22 16 60 33t92 17q92 0 143 -52t51 -161v-244h-76v244q0 63 -30 101t-96 38q-45 0 -85 -18t-59 -37v-328h-75z" />
    <glyph glyph-name="afii10061" unicode="&#x40c;" horiz-adv-x="532" 
d="M82 0v667h76v-291h61q35 0 54 26.5t55 131.5q21 61 39 87t42.5 36t53.5 10h54v-69h-39q-32 0 -48.5 -19.5t-33.5 -70.5q-24 -74 -43.5 -111.5t-39.5 -55.5l214 -341h-91l-195 307h-83v-307h-76zM245 710l-36 37l159 139l49 -52z" />
    <glyph glyph-name="afii10062" unicode="&#x40e;" horiz-adv-x="516" 
d="M69 -6v69h34q31 0 55.5 9.5t44.5 39.5t38 75l-241 480h89l194 -399q39 83 85 201t70 198h78q-42 -135 -97.5 -267.5t-115.5 -250.5q-28 -56 -52 -89t-57 -49.5t-69 -16.5h-56zM275 720q-26 0 -54 8.5t-51.5 26t-39 45.5t-16.5 67h64q5 -30 24.5 -51.5t39 -26.5t33.5 -5
q22 0 45 11.5t36 30t17 41.5h64q-1 -39 -17 -67t-39.5 -45.5t-52 -26t-53.5 -8.5z" />
    <glyph glyph-name="afii10145" unicode="&#x40f;" horiz-adv-x="622" 
d="M276 -140v140h-195v667h77v-596h307v596h76v-667h-189v-140h-76z" />
    <glyph glyph-name="afii10017" unicode="&#x410;" horiz-adv-x="549" 
d="M0 0l237 667h62l241 -667h-83l-75 206h-232l-70 -206h-80zM175 277h182l-92 276z" />
    <glyph glyph-name="afii10018" unicode="&#x411;" horiz-adv-x="533" 
d="M82 0v667h344v-71h-268v-197h115q106 0 161.5 -50t55.5 -147q0 -100 -52.5 -151t-161.5 -51h-194zM158 69h119q63 0 97.5 31t34.5 100t-36.5 99.5t-94.5 30.5h-120v-261z" />
    <glyph glyph-name="afii10019" unicode="&#x412;" horiz-adv-x="520" 
d="M81 0v667h180q96 0 144 -46t48 -124q0 -64 -34.5 -98.5t-88.5 -44.5q46 -6 82 -27.5t55 -58.5t19 -82q0 -65 -29 -109t-72.5 -60.5t-83.5 -16.5h-220zM157 69h141q48 0 77.5 29.5t29.5 89.5q0 127 -147 127h-101v-246zM157 384h98q57 0 88 32t31 84q0 98 -110 98h-107
v-214z" />
    <glyph glyph-name="afii10020" unicode="&#x413;" horiz-adv-x="461" 
d="M82 0v667h365v-69h-289v-598h-76z" />
    <glyph glyph-name="afii10021" unicode="&#x414;" horiz-adv-x="595" 
d="M10 -140v209h39q38 60 64 128t43 141q16 66 22.5 158t6.5 171h325v-598h51v-209h-76v140h-399v-140h-76zM135 69h299v529h-176q0 -70 -8.5 -146t-21.5 -132q-16 -66 -40 -133t-53 -118z" />
    <glyph glyph-name="afii10022" unicode="&#x415;" horiz-adv-x="492" 
d="M81 0v667h370v-69h-294v-214h210v-69h-211v-246h317v-69h-392z" />
    <glyph glyph-name="afii10024" unicode="&#x416;" horiz-adv-x="752" 
d="M22 0l185 332q-28 22 -78 162q-24 67 -38.5 85.5t-50.5 18.5h-22v69h44q43 0 67.5 -19t39 -56t32.5 -80q15 -39 25.5 -66.5t21 -44.5t22.5 -24.5t29 -7.5h41v298h72v-298h39q46 0 101 143q28 74 44.5 104.5t41 40.5t54.5 10h40v-69h-22q-38 0 -51 -16t-39 -88
q-27 -75 -42.5 -106t-34.5 -48l185 -340h-93l-159 299h-64v-299h-72v299h-64l-168 -299h-86z" />
    <glyph glyph-name="afii10025" unicode="&#x417;" horiz-adv-x="501" 
d="M238 -14q-71 0 -123.5 25t-88.5 70l44 63q29 -40 72 -65.5t97 -25.5q73 0 109 35.5t36 92.5t-39 89.5t-99 35.5q-18 1 -91 1v67q79 0 115 3q30 4 55 24.5t35.5 47.5t10.5 50q0 48 -30 80t-90 32t-96.5 -27t-62.5 -71l-52 45q30 54 82.5 88t130.5 34q72 0 118.5 -28
t62 -67.5t15.5 -74.5q0 -43 -17.5 -82t-41 -58.5t-43.5 -28.5q43 -16 68.5 -37t36.5 -52.5t11 -68.5q0 -70 -35.5 -116t-87.5 -63.5t-102 -17.5z" />
    <glyph glyph-name="afii10026" unicode="&#x418;" horiz-adv-x="635" 
d="M81 0v667h76v-483l321 409v74h76v-667h-76v483l-321 -409v-74h-76z" />
    <glyph glyph-name="afii10027" unicode="&#x419;" horiz-adv-x="635" 
d="M81 0v667h76v-483l321 409v74h76v-667h-76v483l-321 -409v-74h-76zM337 721q-26 0 -54 8.5t-51.5 26t-39 45.5t-16.5 67h64q5 -30 24.5 -51.5t39 -26.5t33.5 -5q22 0 45 11.5t36 30t17 41.5h64q-1 -39 -17 -67t-39.5 -45.5t-52 -26t-53.5 -8.5z" />
    <glyph glyph-name="afii10028" unicode="&#x41a;" horiz-adv-x="532" 
d="M82 0v667h76v-291h61q35 0 54 26.5t55 131.5q21 61 39 87t42.5 36t53.5 10h54v-69h-39q-32 0 -48.5 -19.5t-33.5 -70.5q-24 -74 -43.5 -111.5t-39.5 -55.5l214 -341h-91l-195 307h-83v-307h-76z" />
    <glyph glyph-name="afii10029" unicode="&#x41b;" horiz-adv-x="613" 
d="M16 0v69h19q23 0 42.5 5.5t34 20t24.5 35.5q29 63 35 161.5t6 234.5v141h354v-667h-76v598h-204v-78q0 -166 -12 -270.5t-43 -161.5q-26 -48 -64.5 -68t-86.5 -20h-29z" />
    <glyph glyph-name="afii10030" unicode="&#x41c;" horiz-adv-x="714" 
d="M327 -11l-174 529l-23 -518h-66l29 667h89l174 -545l181 545h88l28 -667h-73l-23 515l-180 -526h-50z" />
    <glyph glyph-name="afii10031" unicode="&#x41d;" horiz-adv-x="632" 
d="M82 0v667h76v-289h317v289h75v-667h-75v307h-317v-307h-76z" />
    <glyph glyph-name="afii10032" unicode="&#x41e;" horiz-adv-x="638" 
d="M319 -13q-70 0 -120.5 30t-83 78.5t-48 111t-15.5 127.5q0 104 36 188t98 121t133 37q99 0 162 -60t84 -140.5t21 -145.5t-15.5 -127.5t-48 -111t-83 -78.5t-120.5 -30zM319 58q68 0 114 49t60 112t14 115q0 82 -25 147.5t-69.5 96.5t-93.5 31q-70 0 -115 -48.5t-59 -112
t-14 -114.5q0 -52 11.5 -101.5t34.5 -88.5t58.5 -62.5t83.5 -23.5z" />
    <glyph glyph-name="afii10033" unicode="&#x41f;" horiz-adv-x="628" 
d="M82 0v667h464v-667h-76v598h-312v-598h-76z" />
    <glyph glyph-name="afii10034" unicode="&#x420;" horiz-adv-x="516" 
d="M82 0v667h198q109 0 161.5 -51t52.5 -151q0 -97 -55.5 -147t-161.5 -50h-119v-268h-76zM158 338h124q58 0 94.5 30t36.5 99t-34.5 100t-97.5 31h-123v-260z" />
    <glyph glyph-name="afii10035" unicode="&#x421;" horiz-adv-x="540" 
d="M316 -13q-56 0 -104 19.5t-83.5 61t-56 106.5t-20.5 157q0 129 45 213t105.5 110t109.5 26q69 0 118 -29t86 -92l-56 -46q-26 36 -45 54t-48 29t-57 11q-84 0 -131 -72t-47 -205q0 -65 14.5 -115.5t39 -85t58.5 -52t73 -17.5q58 0 94 18t69 50l28 -72q-37 -37 -93.5 -53
t-98.5 -16z" />
    <glyph glyph-name="afii10036" unicode="&#x422;" horiz-adv-x="495" 
d="M210 0v598h-196v69h468v-69h-197v-598h-75z" />
    <glyph glyph-name="afii10037" unicode="&#x423;" horiz-adv-x="516" 
d="M69 -6v69h34q31 0 55.5 9.5t44.5 39.5t38 75l-241 480h89l194 -399q39 83 85 201t70 198h78q-42 -135 -97.5 -267.5t-115.5 -250.5q-28 -56 -52 -89t-57 -49.5t-69 -16.5h-56z" />
    <glyph glyph-name="afii10038" unicode="&#x424;" horiz-adv-x="675" 
d="M302 -11v94q-60 2 -107.5 19.5t-81.5 48t-52 74.5t-18 100q0 58 19.5 105t54 80t82 52t103.5 21v97h76v-97q89 -3 152 -41.5t87 -93.5t24 -109q0 -58 -18.5 -104t-53 -78.5t-83 -51.5t-108.5 -22v-94h-76zM302 150v367q-39 -1 -72 -13.5t-57 -36.5t-37.5 -59t-13.5 -81
q0 -44 13.5 -76.5t37.5 -54.5t57 -33.5t72 -12.5zM378 150q57 1 101.5 26t63.5 68.5t19 90.5q0 63 -30.5 106.5t-73.5 59.5t-80 16v-367z" />
    <glyph glyph-name="afii10039" unicode="&#x425;" horiz-adv-x="500" 
d="M5 0l197 342l-180 325h92l136 -262l139 262h87l-180 -319l199 -348h-95l-152 286l-156 -286h-87z" />
    <glyph glyph-name="afii10040" unicode="&#x426;" horiz-adv-x="626" 
d="M512 -140v140h-430v667h76v-598h304v598h75v-598h51v-209h-76z" />
    <glyph glyph-name="afii10041" unicode="&#x427;" horiz-adv-x="583" 
d="M427 0v291q-31 -11 -79.5 -18.5t-96.5 -7.5q-96 0 -141.5 38t-53.5 117q-4 42 -4 78v169h76v-160q0 -43 3 -64q3 -30 10.5 -50.5t23 -33.5t40.5 -18.5t63 -5.5q37 0 82.5 6.5t76.5 19.5v306h75v-667h-75z" />
    <glyph glyph-name="afii10042" unicode="&#x428;" horiz-adv-x="831" 
d="M82 0v667h76v-598h220v598h76v-598h219v598h76v-667h-667z" />
    <glyph glyph-name="afii10043" unicode="&#x429;" horiz-adv-x="825" 
d="M711 -140v140h-629v667h76v-598h211v598h76v-598h215v598h76v-598h51v-209h-76z" />
    <glyph glyph-name="afii10044" unicode="&#x42a;" horiz-adv-x="579" 
d="M109 0v598h-95v69h171v-233h139q109 0 163 -59t54 -155q0 -49 -13 -89.5t-40 -69.5t-68 -45t-96 -16h-215zM185 69h135q66 0 103 41t37 110t-38 107t-101 38h-136v-296z" />
    <glyph glyph-name="afii10045" unicode="&#x42b;" horiz-adv-x="750" 
d="M82 0v667h76v-233h122q83 0 133.5 -34t67 -83t16.5 -97q0 -78 -30.5 -129.5t-80.5 -71t-106 -19.5h-198zM592 0v667h76v-667h-76zM158 69h118q69 0 104.5 41t35.5 110t-36.5 107t-102.5 38h-119v-296z" />
    <glyph glyph-name="afii10046" unicode="&#x42c;" horiz-adv-x="550" 
d="M82 0v667h76v-253h137q112 0 164.5 -52t52.5 -149q0 -98 -53 -155.5t-164 -57.5h-213zM158 69h134q66 0 102.5 37.5t36.5 106.5t-37.5 100.5t-100.5 31.5h-135v-276z" />
    <glyph glyph-name="afii10047" unicode="&#x42d;" horiz-adv-x="567" 
d="M257 -13q-58 0 -107.5 16.5t-69.5 32t-31 26.5l35 71q23 -26 53.5 -45t61 -25.5t63.5 -6.5q86 0 129.5 66t47.5 191h-238v70h236q-4 106 -46 165t-118 59q-59 0 -100 -26t-77 -75l-54 46q38 57 97.5 92.5t133.5 35.5q85 0 141.5 -44.5t79 -124.5t22.5 -169
q0 -94 -19 -161t-53 -110t-82 -63.5t-105 -20.5z" />
    <glyph glyph-name="afii10048" unicode="&#x42e;" horiz-adv-x="858" 
d="M545 -13q-62 0 -109 26t-79 70t-49.5 101t-20.5 120h-129v-304h-76v667h76v-293h129q6 94 44.5 170t95 106t118.5 30q96 0 157.5 -60t82.5 -140t21 -146q0 -106 -37.5 -191.5t-97 -120.5t-126.5 -35zM545 58q64 0 108 47t58.5 111.5t14.5 117.5t-11 102.5t-33 88
t-56.5 61.5t-80.5 23q-67 0 -110 -48t-57 -111t-14 -116q0 -85 26 -152.5t68 -95.5t87 -28z" />
    <glyph glyph-name="afii10049" unicode="&#x42f;" horiz-adv-x="541" 
d="M38 0v69h25q27 0 47 17t39 70.5t31 135.5q-66 20 -99 65t-33 120q0 63 28.5 108t77.5 63.5t102 18.5h203v-667h-76v282h-129q-15 -96 -37 -152t-47 -85t-50.5 -37t-46.5 -8h-35zM257 351h126v247h-129q-61 0 -93.5 -31t-32.5 -88q0 -61 33 -94.5t96 -33.5z" />
    <glyph glyph-name="afii10065" unicode="&#x430;" horiz-adv-x="447" 
d="M191 -11q-30 0 -57.5 9.5t-49.5 28t-35 46.5t-13 65q0 70 51 110.5t115 51t109 10.5v6q0 60 -24.5 86t-69.5 26q-32 0 -65 -12.5t-64 -37.5l-24 56q26 20 64 37.5t95 17.5q76 0 118.5 -41t42.5 -137v-311h-67l-3 41q-24 -25 -55 -38.5t-68 -13.5zM200 52q33 0 60.5 14.5
t50.5 34.5v148q-64 -2 -110.5 -13.5t-68.5 -37t-22 -61.5q0 -32 18.5 -54t37.5 -26.5t34 -4.5z" />
    <glyph glyph-name="afii10066" unicode="&#x431;" horiz-adv-x="511" 
d="M254 -11q-79 0 -128.5 45t-64.5 110t-15 126q0 181 50.5 270.5t162.5 89.5h37q29 0 45.5 10.5t19.5 39.5l59 -11q-4 -60 -34 -81t-85 -23l-45 -2q-54 -3 -84.5 -34.5t-39.5 -72t-13 -70.5q25 35 60.5 57t92.5 22q69 0 115 -38.5t63 -93.5t17 -106q0 -45 -13.5 -87.5
t-40 -76t-66.5 -54t-93 -20.5zM257 53q47 0 80 29.5t45 71.5t12 74q0 48 -19 92t-51.5 63t-66.5 19q-49 0 -82.5 -30.5t-43.5 -70t-10 -72.5q0 -32 8.5 -63.5t25.5 -56.5t42.5 -40.5t59.5 -15.5z" />
    <glyph glyph-name="afii10067" unicode="&#x432;" horiz-adv-x="462" 
d="M66 0v477h195q72 0 108 -30.5t36 -87.5q0 -45 -20.5 -75t-52.5 -38q32 -6 51 -18.5t30 -37.5t11 -54q0 -66 -40 -101t-103 -35h-215zM139 63h134q26 0 43.5 8t26.5 26.5t9 39.5q0 32 -21.5 53t-64.5 21h-127v-148zM139 274h117q41 0 58.5 21.5t17.5 53.5q0 65 -69 65
h-124v-140z" />
    <glyph glyph-name="afii10068" unicode="&#x433;" horiz-adv-x="359" 
d="M66 0v477h293v-63h-220v-414h-73z" />
    <glyph glyph-name="afii10069" unicode="&#x434;" horiz-adv-x="526" 
d="M11 -108v171h30q39 24 60.5 81t27 114.5t5.5 94.5v124h313v-414h50v-171h-72v108h-341v-108h-73zM133 63h241v351h-169v-87q0 -56 -9.5 -110.5t-26.5 -93t-36 -60.5z" />
    <glyph glyph-name="afii10070" unicode="&#x435;" horiz-adv-x="483" 
d="M266 -11q-102 0 -162 64.5t-60 187.5q0 82 30.5 142t77.5 83t94 23q71 0 118 -37t64.5 -96t17.5 -113h-330q0 -90 39 -141t113 -51q44 0 78 15t61 38l19 -63q-22 -22 -67.5 -37t-92.5 -15zM123 304h240q-2 41 -21.5 71t-47.5 41.5t-48 11.5q-45 0 -78 -28.5t-45 -95.5z
" />
    <glyph glyph-name="afii10072" unicode="&#x436;" horiz-adv-x="609" 
d="M27 0l131 256q-9 10 -22 30.5t-33 58.5q-31 56 -36 62.5t-24 6.5h-24v63h36q33 0 48 -11.5t29 -36.5t28 -51q28 -55 41.5 -74.5t22 -23.5t17.5 -4h29v201h70v-201h28q26 0 81 102q30 58 38.5 71t26 20.5t40.5 7.5h36v-63h-24q-20 0 -29 -12t-31 -57q-33 -63 -55 -87
l133 -258h-79l-107 215h-58v-215h-70v215h-59l-106 -215h-78z" />
    <glyph glyph-name="afii10073" unicode="&#x437;" horiz-adv-x="409" 
d="M193 -11q-52 0 -90 15t-56 30.5t-27 27.5l38 58q16 -22 39.5 -39.5t48.5 -25t52 -7.5q53 0 78.5 22.5t25.5 61.5t-19.5 58t-60.5 24q-14 2 -73 2v57q47 0 68 3q40 6 58 28t18 54q0 37 -28.5 54.5t-67.5 17.5q-42 0 -71.5 -23.5t-51.5 -60.5l-51 35q22 36 48.5 61t61.5 36
t72 11q75 0 116 -33t41 -90q0 -46 -22 -77t-64 -42q45 -6 71 -31t26 -74q0 -75 -48 -114t-132 -39z" />
    <glyph glyph-name="afii10074" unicode="&#x438;" horiz-adv-x="502" 
d="M66 0v477h72v-327l227 267v60h71v-477h-71v327l-227 -267v-60h-72z" />
    <glyph glyph-name="afii10075" unicode="&#x439;" horiz-adv-x="502" 
d="M66 0v477h72v-327l227 267v60h71v-477h-71v327l-227 -267v-60h-72zM264 554q-26 0 -54 8.5t-51.5 26t-39 45.5t-16.5 67h64q5 -30 24.5 -51.5t39 -26.5t33.5 -5q22 0 45 11.5t36 30t17 41.5h64q-1 -39 -17 -67t-39.5 -45.5t-52 -26t-53.5 -8.5z" />
    <glyph glyph-name="afii10076" unicode="&#x43a;" horiz-adv-x="445" 
d="M66 0v477h73v-196h50q31 0 74 97q16 40 36 64t41 29.5t42 5.5h45v-63h-28q-26 0 -43 -12.5t-35 -52.5q-36 -79 -52 -95l171 -254h-88l-141 218h-72v-218h-73z" />
    <glyph glyph-name="afii10077" unicode="&#x43b;" horiz-adv-x="491" 
d="M5 0v63h20q19 0 34.5 7.5t24.5 24.5t14 40q9 43 14.5 101t5.5 178v63h307v-477h-73v414h-164v-34q0 -81 -4.5 -146.5t-15.5 -112.5q-12 -57 -42.5 -89t-90.5 -32h-30z" />
    <glyph glyph-name="afii10078" unicode="&#x43c;" horiz-adv-x="594" 
d="M63 0l30 477h76l128 -361l130 361h71l33 -477h-66l-22 348l-130 -348h-37l-126 350l-21 -350h-66z" />
    <glyph glyph-name="afii10079" unicode="&#x43d;" horiz-adv-x="505" 
d="M67 0v477h73v-197h225v197h73v-477h-73v217h-225v-217h-73z" />
    <glyph glyph-name="afii10080" unicode="&#x43e;" horiz-adv-x="509" 
d="M255 -11q-53 0 -92.5 21.5t-65.5 57t-39.5 81t-13.5 92.5q0 71 29 133t79 88.5t103 26.5q74 0 124 -42.5t68.5 -101.5t18.5 -106q0 -74 -31.5 -137t-79.5 -88t-100 -25zM255 51q47 0 81 32t46 77t12 80q0 55 -20.5 101.5t-52.5 66.5t-66 20q-51 0 -85 -34t-44 -76
t-10 -77q0 -57 20 -104.5t52 -66.5t67 -19z" />
    <glyph glyph-name="afii10081" unicode="&#x43f;" horiz-adv-x="504" 
d="M67 0v477h370v-477h-73v412h-224v-412h-73z" />
    <glyph glyph-name="afii10082" unicode="&#x440;" horiz-adv-x="498" 
d="M66 -189v666h66l6 -35q29 25 61.5 36t69.5 11q72 0 115.5 -42t56.5 -98.5t13 -104.5q0 -86 -36.5 -148t-88.5 -84t-101 -23q-54 0 -89 16v-194h-73zM214 51q54 0 94 27.5t56.5 72.5t16.5 90q0 55 -16.5 99.5t-47 65.5t-67.5 21q-31 0 -59.5 -14t-51.5 -37v-304
q11 -8 30.5 -14.5t44.5 -6.5z" />
    <glyph glyph-name="afii10083" unicode="&#x441;" horiz-adv-x="450" 
d="M255 -11q-41 0 -79 15t-67 46t-47 77.5t-18 109.5q0 95 37 155.5t84 78.5t85 18q50 0 88 -19.5t55.5 -42.5t25.5 -37l-51 -38q-22 34 -47.5 54.5t-69.5 20.5q-42 0 -75 -28.5t-46.5 -71.5t-13.5 -88t11.5 -80t31 -59t45.5 -36.5t55 -12.5q46 0 76.5 14t54.5 37l21 -63
q-26 -23 -67.5 -36.5t-88.5 -13.5z" />
    <glyph glyph-name="afii10084" unicode="&#x442;" horiz-adv-x="373" 
d="M150 0v414h-145v63h364v-63h-146v-414h-73z" />
    <glyph glyph-name="afii10085" unicode="&#x443;" horiz-adv-x="453" 
d="M4 -193l-8 68q72 0 108.5 18t59.5 50q14 23 22 40l-178 494h82l143 -415q39 87 73.5 193.5t63.5 221.5h78q-47 -178 -90 -291.5t-76 -180.5q-19 -38 -39.5 -73.5t-50.5 -63t-75 -44t-113 -17.5z" />
    <glyph glyph-name="afii10086" unicode="&#x444;" horiz-adv-x="627" 
d="M279 -189v189q-51 2 -94.5 18.5t-75 47t-49.5 74.5t-18 101q0 83 38.5 138.5t92.5 75.5t106 22v190h68v-190q82 -4 137.5 -37.5t78 -86.5t22.5 -110q0 -87 -39 -144t-93.5 -77t-105.5 -22v-189h-68zM279 62v353q-55 -4 -94 -29.5t-55 -63.5t-16 -81q0 -44 13.5 -76.5
t36 -54.5t52.5 -34t63 -14zM347 62q53 3 92 28.5t56.5 66t17.5 84.5q0 61 -28 102t-66 55.5t-72 16.5v-353z" />
    <glyph glyph-name="afii10087" unicode="&#x445;" horiz-adv-x="393" 
d="M4 0l152 244l-145 233h81l103 -173l103 173h79l-143 -230l153 -247h-81l-111 183l-109 -183h-82z" />
    <glyph glyph-name="afii10088" unicode="&#x446;" horiz-adv-x="520" 
d="M418 -108v108h-352v477h73v-417h219v417h73v-417h51v-168h-64z" />
    <glyph glyph-name="afii10089" unicode="&#x447;" horiz-adv-x="492" 
d="M352 0v173q-31 -11 -67 -18t-75 -7q-74 0 -111.5 27.5t-46.5 81.5q-4 26 -4 64v156h74v-156q0 -29 3 -51q8 -32 33 -44.5t68 -12.5q38 0 70 7.5t56 18.5v238h73v-477h-73z" />
    <glyph glyph-name="afii10090" unicode="&#x448;" horiz-adv-x="741" 
d="M66 0v477h73v-416h196v416h71v-416h196v416h73v-477h-609z" />
    <glyph glyph-name="afii10091" unicode="&#x449;" horiz-adv-x="758" 
d="M657 -108v108h-591v477h72v-416h194v416h70v-416h193v416h73v-416h52v-169h-63z" />
    <glyph glyph-name="afii10092" unicode="&#x44a;" horiz-adv-x="504" 
d="M99 0v414h-92v63h165v-146h108q70 0 113.5 -25.5t58 -63.5t14.5 -72q0 -35 -11 -66t-33.5 -54t-58 -36.5t-83.5 -13.5h-181zM172 63h104q55 0 82.5 27.5t27.5 79.5t-27 75t-82 23h-105v-205z" />
    <glyph glyph-name="afii10093" unicode="&#x44b;" horiz-adv-x="640" 
d="M68 0v477h73v-146h105q68 0 111 -26t57 -64t14 -72q0 -55 -25.5 -96.5t-67 -57t-89.5 -15.5h-178zM501 0v477h73v-477h-73zM141 63h101q106 0 106 106q0 52 -25.5 75.5t-79.5 23.5h-102v-205z" />
    <glyph glyph-name="afii10094" unicode="&#x44c;" horiz-adv-x="477" 
d="M68 0v477h73v-146h113q69 0 113 -27t58 -64t14 -71q0 -57 -27 -97.5t-68.5 -56t-89.5 -15.5h-186zM141 63h109q110 0 110 106q0 52 -27 75.5t-82 23.5h-110v-205z" />
    <glyph glyph-name="afii10095" unicode="&#x44d;" horiz-adv-x="464" 
d="M206 -11q-58 0 -101 15.5t-68 38.5l23 61q24 -23 61 -38t88 -15q43 0 74.5 21.5t47 60.5t17.5 82h-223v63h222q-2 47 -20.5 82.5t-49 51t-62.5 15.5q-47 0 -77 -20.5t-52 -54.5l-51 38q15 26 38 47.5t63 36.5t85 15q73 0 120.5 -40t63 -96t15.5 -106q0 -66 -16.5 -114.5
t-45 -80.5t-68 -47.5t-84.5 -15.5z" />
    <glyph glyph-name="afii10096" unicode="&#x44e;" horiz-adv-x="697" 
d="M451 -11q-51 0 -88 17.5t-61 49t-37 73t-16 88.5h-110v-217h-73v477h73v-197h112q6 68 34 117t73.5 70.5t93.5 21.5q55 0 93.5 -20t62.5 -53.5t34.5 -77.5t10.5 -92q0 -53 -11.5 -99.5t-36.5 -81.5t-63 -55.5t-91 -20.5zM452 53q48 0 79 31t40 74.5t9 81.5q0 64 -17 106
t-47 61t-64 19q-47 0 -79.5 -29.5t-42.5 -73.5t-10 -82q0 -39 8 -73t24.5 -59.5t41 -40.5t58.5 -15z" />
    <glyph glyph-name="afii10097" unicode="&#x44f;" horiz-adv-x="466" 
d="M26 0v63h26q17 0 31.5 7.5t26 35.5t20.5 73q-29 10 -50 29.5t-31.5 49.5t-10.5 64q0 72 47.5 113.5t133.5 41.5h181v-477h-70v167h-131q-15 -77 -41.5 -117t-49 -45t-37.5 -5h-45zM215 230h115v184h-115q-46 0 -74.5 -24t-28.5 -67q0 -48 27 -70.5t76 -22.5z" />
    <glyph glyph-name="afii10071" unicode="&#x451;" horiz-adv-x="508" 
d="M267 -11q-102 0 -162 64.5t-60 187.5q0 82 30.5 142t77.5 83t94 23q71 0 118 -37t64.5 -96t17.5 -113h-330q0 -90 39 -141t113 -51q44 0 78 15t61 38l19 -63q-22 -22 -67.5 -37t-92.5 -15zM124 304h240q-2 41 -21.5 71t-47.5 41.5t-48 11.5q-45 0 -78 -28.5t-45 -95.5z
M165 590q-20 0 -34.5 12.5t-14.5 36.5q0 23 14.5 36t34.5 13t34 -13t14 -36q0 -24 -14 -36.5t-34 -12.5zM336 590q-20 0 -34.5 12.5t-14.5 36.5q0 23 14.5 36t34.5 13t34 -13t14 -36q0 -24 -14 -36.5t-34 -12.5z" />
    <glyph glyph-name="afii10099" unicode="&#x452;" horiz-adv-x="512" 
d="M332 -197l-37 56q34 24 51.5 50t23 58.5t5.5 64.5v234q0 66 -25.5 97.5t-82.5 31.5q-36 0 -69.5 -17.5t-58.5 -36.5v-341h-73v554h-75v58h75v55h73v-55h141v-58h-141v-147q28 21 62.5 35.5t78.5 14.5q92 0 130.5 -49t38.5 -143v-233q0 -46 -8.5 -82t-24 -63.5t-37 -48
t-47.5 -35.5z" />
    <glyph glyph-name="afii10100" unicode="&#x453;" horiz-adv-x="359" 
d="M66 0v477h293v-63h-220v-414h-73zM142 544l-36 37l159 139l49 -52z" />
    <glyph glyph-name="afii10101" unicode="&#x454;" horiz-adv-x="460" 
d="M261 -11q-47 0 -86.5 15t-68.5 46t-45.5 77.5t-16.5 109.5q0 79 31.5 140t80.5 86.5t104 25.5q49 0 88.5 -21.5t57.5 -45t23 -32.5l-51 -38q-22 34 -49.5 54.5t-74.5 20.5q-42 0 -75 -25.5t-45.5 -59.5t-16.5 -64h222v-63h-223q6 -82 46.5 -123t99.5 -41q43 0 78.5 14
t59.5 37l21 -62q-26 -23 -70.5 -37t-89.5 -14z" />
    <glyph glyph-name="afii10102" unicode="&#x455;" horiz-adv-x="391" 
d="M200 -11q-42 0 -75 10t-55 23t-30 21l26 62q22 -19 55.5 -36.5t78.5 -17.5q46 0 69.5 18t23.5 57q0 50 -118 96q-68 25 -96 55.5t-28 80.5q0 58 40.5 94.5t107.5 36.5q53 0 91 -16.5t62 -39.5l-31 -55q-24 23 -54 36t-67 13q-42 0 -60.5 -20t-18.5 -44q0 -46 110 -86
q63 -23 96.5 -55.5t33.5 -90.5q0 -51 -25.5 -83.5t-63 -45.5t-72.5 -13z" />
    <glyph glyph-name="afii10103" unicode="&#x456;" horiz-adv-x="205" 
d="M66 0v477h74v-477h-74zM103 561q-20 0 -34.5 12.5t-14.5 36.5q0 23 14.5 36t34.5 13t34 -13t14 -36q0 -24 -14 -36.5t-34 -12.5z" />
    <glyph glyph-name="afii10104" unicode="&#x457;" horiz-adv-x="204" 
d="M66 0v477h73v-477h-73zM24 590q-20 0 -34.5 12.5t-14.5 36.5q0 23 14.5 36t34.5 13t34 -13t14 -36q0 -24 -14 -36.5t-34 -12.5zM195 590q-20 0 -34.5 12.5t-14.5 36.5q0 23 14.5 36t34.5 13t34 -13t14 -36q0 -24 -14 -36.5t-34 -12.5z" />
    <glyph glyph-name="afii10105" unicode="&#x458;" horiz-adv-x="203" 
d="M30 -197l-29 60q46 33 55 58.5t9 61.5v494h74v-492q0 -70 -27.5 -111.5t-81.5 -70.5zM102 561q-20 0 -34.5 12.5t-14.5 36.5q0 23 14.5 36t34.5 13t34 -13t14 -36q0 -24 -14 -36.5t-34 -12.5z" />
    <glyph glyph-name="afii10106" unicode="&#x459;" horiz-adv-x="724" 
d="M5 0v63h21q18 0 31.5 6.5t24.5 23.5t17 40q18 72 18 299v45h286v-146h101q68 0 112.5 -24.5t59 -62.5t14.5 -72q0 -55 -25.5 -96.5t-68.5 -58.5t-91 -17h-176v414h-142v-34q0 -81 -3.5 -146.5t-14.5 -112.5q-12 -57 -42 -89t-84 -32h-38zM403 63h98q54 0 81.5 28.5
t27.5 80.5t-27 74t-81 22h-99v-205z" />
    <glyph glyph-name="afii10107" unicode="&#x45a;" horiz-adv-x="737" 
d="M66 0v477h74v-176h211v176h74v-176h104q88 0 131.5 -38t43.5 -104q0 -75 -43 -117t-132 -42h-178v238h-211v-238h-74zM425 63h100q48 0 75 20.5t27 69.5q0 48 -27 66.5t-74 18.5h-101v-175z" />
    <glyph glyph-name="afii10108" unicode="&#x45b;" horiz-adv-x="512" 
d="M66 0v554h-75v58h75v55h73v-55h141v-58h-141v-147q28 21 62.5 35.5t78.5 14.5q92 0 130.5 -49t38.5 -143v-265h-74v266q0 66 -25.5 97.5t-82.5 31.5q-36 0 -69.5 -17.5t-58.5 -36.5v-341h-73z" />
    <glyph glyph-name="afii10109" unicode="&#x45c;" horiz-adv-x="468" 
d="M66 0v477h73v-196h50q31 0 74 97q16 40 36 64t41 29.5t42 5.5h45v-63h-28q-26 0 -43 -12.5t-35 -52.5q-36 -79 -52 -95l171 -254h-88l-141 218h-72v-218h-73zM192 544l-36 37l159 139l49 -52z" />
    <glyph glyph-name="afii10110" unicode="&#x45e;" horiz-adv-x="453" 
d="M4 -193l-8 68q72 0 108.5 18t59.5 50q14 23 22 40l-178 494h82l143 -415q39 87 73.5 193.5t63.5 221.5h78q-47 -178 -90 -291.5t-76 -180.5q-19 -38 -39.5 -73.5t-50.5 -63t-75 -44t-113 -17.5zM242 554q-26 0 -54 8.5t-51.5 26t-39 45.5t-16.5 67h64q5 -30 24.5 -51.5
t39 -26.5t33.5 -5q22 0 45 11.5t36 30t17 41.5h64q-1 -39 -17 -67t-39.5 -45.5t-52 -26t-53.5 -8.5z" />
    <glyph glyph-name="afii10193" unicode="&#x45f;" horiz-adv-x="503" 
d="M216 -108v108h-150v477h74v-417h223v417h74v-477h-149v-108h-72z" />
    <glyph glyph-name="afii10050" unicode="&#x490;" horiz-adv-x="455" 
d="M77 0v667h297v82h73v-151h-294v-598h-76z" />
    <glyph glyph-name="afii10098" unicode="&#x491;" horiz-adv-x="367" 
d="M66 0v477h223v65h70v-128h-220v-414h-73z" />
    <glyph glyph-name="uni04D8" unicode="&#x4d8;" horiz-adv-x="592" 
d="M268 609q-59 0 -103.5 -19.5t-74.5 -44.5l-36 59q14 11 34.5 24.5t47.5 25t61.5 19t75.5 7.5q61 0 111 -23t86 -66.5t55.5 -108t19.5 -146.5q0 -93 -22.5 -159.5t-58.5 -108.5t-82 -61.5t-93 -19.5q-59 0 -106 19.5t-80 61.5t-50.5 107.5t-17.5 156.5h432v5
q0 69 -14.5 120t-41 85t-63 50.5t-80.5 16.5zM120 264q1 -56 14 -95.5t35.5 -64.5t52.5 -36.5t65 -11.5q72 0 116.5 48.5t58.5 159.5h-342z" />
    <glyph glyph-name="uni04D9" unicode="&#x4d9;" horiz-adv-x="483" 
d="M368 235q0 93 -38.5 143t-110.5 50q-46 0 -77.5 -13.5t-59.5 -34.5l-29 53q22 18 63 37t101 19q102 0 162 -64.5t60 -187.5q0 -57 -14.5 -102.5t-41 -78t-63.5 -50t-83 -17.5q-50 0 -87.5 18t-62.5 50.5t-37.5 78t-12.5 99.5h331zM115 175q1 -34 12.5 -58t28.5 -39
t38.5 -22t42.5 -7q45 0 80 29.5t45 96.5h-247z" />
    <glyph glyph-name="Wgrave" unicode="&#x1e80;" horiz-adv-x="713" 
d="M148 0l-148 667h77l108 -521l151 521h56l135 -517l109 517h77l-154 -667h-58l-141 517l-152 -517h-60zM405 710l-173 124l49 52l159 -139z" />
    <glyph glyph-name="wgrave" unicode="&#x1e81;" horiz-adv-x="628" 
d="M140 0l-140 477h79l99 -371l115 371h45l113 -370l99 370h78l-140 -477h-67l-107 346l-108 -346h-66zM363 544l-173 124l49 52l159 -139z" />
    <glyph glyph-name="Wacute" unicode="&#x1e82;" horiz-adv-x="713" 
d="M148 0l-148 667h77l108 -521l151 521h56l135 -517l109 517h77l-154 -667h-58l-141 517l-152 -517h-60zM318 710l-36 37l159 139l49 -52z" />
    <glyph glyph-name="wacute" unicode="&#x1e83;" horiz-adv-x="628" 
d="M140 0l-140 477h79l99 -371l115 371h45l113 -370l99 370h78l-140 -477h-67l-107 346l-108 -346h-66zM266 544l-36 37l159 139l49 -52z" />
    <glyph glyph-name="Wdieresis" unicode="&#x1e84;" horiz-adv-x="713" 
d="M148 0l-148 667h77l108 -521l151 521h56l135 -517l109 517h77l-154 -667h-58l-141 517l-152 -517h-60zM273 756q-20 0 -34.5 12.5t-14.5 36.5q0 23 14.5 36t34.5 13t34 -13t14 -36q0 -24 -14 -36.5t-34 -12.5zM444 756q-20 0 -34.5 12.5t-14.5 36.5q0 23 14.5 36t34.5 13
t34 -13t14 -36q0 -24 -14 -36.5t-34 -12.5z" />
    <glyph glyph-name="wdieresis" unicode="&#x1e85;" horiz-adv-x="628" 
d="M140 0l-140 477h79l99 -371l115 371h45l113 -370l99 370h78l-140 -477h-67l-107 346l-108 -346h-66zM229 590q-20 0 -34.5 12.5t-14.5 36.5q0 23 14.5 36t34.5 13t34 -13t14 -36q0 -24 -14 -36.5t-34 -12.5zM400 590q-20 0 -34.5 12.5t-14.5 36.5q0 23 14.5 36t34.5 13
t34 -13t14 -36q0 -24 -14 -36.5t-34 -12.5z" />
    <glyph glyph-name="Ygrave" unicode="&#x1ef2;" horiz-adv-x="516" 
d="M216 0v320l-216 347h86l170 -270l177 270h83l-224 -346v-321h-76zM297 710l-173 124l49 52l159 -139z" />
    <glyph glyph-name="ygrave" unicode="&#x1ef3;" horiz-adv-x="453" 
d="M4 -193l-8 68q72 0 108.5 18t59.5 50q14 23 22 40l-178 494h82l143 -415q39 87 73.5 193.5t63.5 221.5h78q-47 -178 -90 -291.5t-76 -180.5q-19 -38 -39.5 -73.5t-50.5 -63t-75 -44t-113 -17.5zM266 544l-173 124l49 52l159 -139z" />
    <glyph glyph-name="endash" unicode="&#x2013;" horiz-adv-x="500" 
d="M0 226v72h501v-72h-501z" />
    <glyph glyph-name="emdash" unicode="&#x2014;" horiz-adv-x="1000" 
d="M0 226v72h1000v-72h-1000z" />
    <glyph glyph-name="afii00208" unicode="&#x2015;" horiz-adv-x="1000" 
d="M0 226v72h1000v-72h-1000z" />
    <glyph glyph-name="quoteleft" unicode="&#x2018;" horiz-adv-x="182" 
d="M148 636q-7 -6 -15.5 -14t-16 -18t-13 -20.5t-6.5 -20.5q17 -2 32.5 -16.5t15.5 -40.5q0 -22 -13.5 -40t-40.5 -18q-15 0 -25.5 6t-16.5 16t-8.5 22t-2.5 23q0 22 7.5 44.5t20 42.5t28 37t32.5 28z" />
    <glyph glyph-name="quoteright" unicode="&#x2019;" horiz-adv-x="182" 
d="M55 448l-22 31q27 23 38 41.5t13 31.5q-17 2 -32.5 16.5t-15.5 40.5q0 22 13.5 40t40.5 18q26 0 39.5 -20t13.5 -47q0 -51 -30.5 -92t-57.5 -60z" />
    <glyph glyph-name="quotesinglbase" unicode="&#x201a;" horiz-adv-x="182" 
d="M55 -107l-22 31q17 15 33 35t18 38q-17 2 -32.5 16.5t-15.5 40.5q0 22 13.5 40t40.5 18q26 0 39.5 -20t13.5 -47q0 -41 -26.5 -84t-61.5 -68z" />
    <glyph glyph-name="quotedblleft" unicode="&#x201c;" horiz-adv-x="351" 
d="M317 636q-7 -6 -15.5 -14t-16 -18t-13 -20.5t-6.5 -20.5q17 -2 32.5 -16.5t15.5 -40.5q0 -22 -13.5 -40t-40.5 -18q-15 0 -25.5 6t-16.5 16t-8.5 22t-2.5 23q0 22 7.5 44.5t20 42.5t28 37t32.5 28zM148 636q-7 -6 -15.5 -14t-16 -18t-13 -20.5t-6.5 -20.5
q17 -2 32.5 -16.5t15.5 -40.5q0 -22 -13.5 -40t-40.5 -18q-15 0 -25.5 6t-16.5 16t-8.5 22t-2.5 23q0 22 7.5 44.5t20 42.5t28 37t32.5 28z" />
    <glyph glyph-name="quotedblright" unicode="&#x201d;" horiz-adv-x="351" 
d="M224 448l-22 31q27 23 38 41.5t13 31.5q-17 2 -32.5 16.5t-15.5 40.5q0 22 13.5 40t40.5 18q26 0 39.5 -20t13.5 -47q0 -51 -30.5 -92t-57.5 -60zM55 448l-22 31q27 23 38 41.5t13 31.5q-17 2 -32.5 16.5t-15.5 40.5q0 22 13.5 40t40.5 18q26 0 39.5 -20t13.5 -47
q0 -51 -30.5 -92t-57.5 -60z" />
    <glyph glyph-name="quotedblbase" unicode="&#x201e;" horiz-adv-x="351" 
d="M224 -107l-22 31q17 15 33 35t18 38q-17 2 -32.5 16.5t-15.5 40.5q0 22 13.5 40t40.5 18q26 0 39.5 -20t13.5 -47q0 -41 -26.5 -84t-61.5 -68zM55 -107l-22 31q17 15 33 35t18 38q-17 2 -32.5 16.5t-15.5 40.5q0 22 13.5 40t40.5 18q26 0 39.5 -20t13.5 -47
q0 -41 -26.5 -84t-61.5 -68z" />
    <glyph glyph-name="dagger" unicode="&#x2020;" horiz-adv-x="424" 
d="M179 -146v516h-141v72h141v225h68v-225h139v-72h-139v-516h-68z" />
    <glyph glyph-name="daggerdbl" unicode="&#x2021;" horiz-adv-x="424" 
d="M179 -146v225h-141v71h141v220h-141v72h141v225h68v-225h139v-72h-139v-220h139v-71h-139v-225h-68z" />
    <glyph glyph-name="bullet" unicode="&#x2022;" horiz-adv-x="463" 
d="M232 194q-38 0 -71.5 15t-58.5 41t-39.5 61t-14.5 76q0 60 30 107t72 67t82 20q56 0 100 -32t63.5 -77t19.5 -85q0 -57 -30.5 -106t-72.5 -68t-80 -19z" />
    <glyph glyph-name="ellipsis" unicode="&#x2026;" horiz-adv-x="527" 
d="M264 -11q-23 0 -38 15t-15 41t15 41.5t38 15.5q24 0 38.5 -15.5t14.5 -41.5t-14.5 -41t-38.5 -15zM440 -11q-23 0 -38 15t-15 41t15 41.5t38 15.5q24 0 38.5 -15.5t14.5 -41.5t-14.5 -41t-38.5 -15zM93 -11q-23 0 -38 15t-15 41t15 41.5t38 15.5q24 0 38.5 -15.5
t14.5 -41.5t-14.5 -41t-38.5 -15z" />
    <glyph glyph-name="perthousand" unicode="&#x2030;" horiz-adv-x="1045" 
d="M75 -7l-46 52l602 626l44 -48zM537 -7q-30 0 -56.5 12t-46 33t-31 48.5t-11.5 59.5q0 46 24.5 84.5t57.5 53.5t63 15q44 0 78.5 -24.5t50.5 -61t16 -67.5q0 -48 -25.5 -86t-58 -52.5t-61.5 -14.5zM873 -7q-30 0 -56.5 12t-46 33t-30.5 48.5t-11 59.5q0 44 23.5 83.5
t57 54.5t63.5 15q44 0 78.5 -24.5t50.5 -61t16 -67.5q0 -48 -25.5 -86t-57.5 -52.5t-62 -14.5zM536 56q40 0 61.5 30.5t21.5 60.5q0 27 -14 48.5t-33 32t-36 10.5q-26 0 -47 -16.5t-28.5 -36.5t-7.5 -38q0 -28 15.5 -52t33 -31.5t34.5 -7.5zM872 56q43 0 63.5 31t20.5 60
q0 18 -6.5 34.5t-18 29t-27 20t-32.5 7.5q-24 0 -46 -16t-29.5 -36.5t-7.5 -38.5q0 -28 15 -51.5t33 -31.5t35 -8zM181 367q-30 0 -56.5 12t-46 33t-31 48.5t-11.5 59.5q0 46 24.5 84.5t57 53.5t63.5 15q44 0 78.5 -24.5t50.5 -61t16 -67.5q0 -48 -25.5 -86t-58 -52.5
t-61.5 -14.5zM180 430q40 0 61.5 30.5t21.5 60.5q0 27 -14 48.5t-33.5 32t-35.5 10.5q-26 0 -47 -16.5t-28.5 -36.5t-7.5 -38q0 -28 15.5 -52t33 -31.5t34.5 -7.5z" />
    <glyph glyph-name="guilsinglleft" unicode="&#x2039;" horiz-adv-x="284" 
d="M216 54l-202 196l185 204l49 -39l-138 -160l151 -157z" />
    <glyph glyph-name="guilsinglright" unicode="&#x203a;" horiz-adv-x="284" 
d="M68 54l-45 44l151 157l-138 160l50 39l184 -204z" />
    <glyph glyph-name="fraction" unicode="&#x2044;" horiz-adv-x="211" 
d="M-191 -16l-36 44l606 642l42 -46z" />
    <glyph glyph-name="fourinferior" unicode="&#x2084;" 
d="M266 0v67h-151v47l163 214h46v-217h39v-44h-39v-67h-58zM167 111h99v131z" />
    <glyph glyph-name="Euro" unicode="&#x20ac;" 
d="M327 -11q-90 0 -146 59t-68 177h-76v68h330v-68h-173q8 -85 44.5 -125t95.5 -40q44 0 75 19t54 43l33 -65q-37 -37 -80 -52.5t-89 -15.5zM37 362v69h76q12 115 65 178.5t146 63.5q61 0 101 -26.5t72 -72.5l-48 -52q-24 34 -52 56.5t-74 22.5q-63 0 -93 -43.5t-37 -126.5
h174v-69h-330z" />
    <glyph glyph-name="afii61352" unicode="&#x2116;" horiz-adv-x="960" 
d="M77 0v667h77l319 -497v497h75v-667h-56l-340 529v-529h-75zM775 286q-40 0 -69.5 16.5t-49.5 43.5t-30 61.5t-10 70.5q0 56 22.5 101.5t59.5 66.5t77 21q56 0 95 -33.5t52.5 -77.5t13.5 -80q0 -56 -24 -103.5t-60.5 -67t-76.5 -19.5zM775 348q34 0 54 20t28.5 51.5
t8.5 57.5q0 40 -12.5 70t-33.5 44t-45 14q-33 0 -55.5 -22.5t-28.5 -51t-6 -53.5t5.5 -48.5t16.5 -41.5t28 -29t40 -11z" />
    <glyph glyph-name="trademark" unicode="&#x2122;" horiz-adv-x="589" 
d="M385 378l-66 176v-174h-53v287h57l81 -217l77 217h56v-287h-53v169l-63 -171h-36zM94 380v237h-76v50h204v-50h-76v-237h-52z" />
    <glyph glyph-name="uni2126" unicode="&#x2126;" horiz-adv-x="657" 
d="M49 0v69h130q-41 35 -71.5 78.5t-45 96.5t-14.5 106q0 105 43 185t108 112.5t130 32.5q94 0 161 -52t91 -124t24 -141q0 -75 -23.5 -138t-54 -99t-54.5 -57h132v-69h-219v69q39 28 74 76t50.5 104.5t15.5 104.5q0 86 -29.5 147.5t-75.5 84.5t-92 23q-47 0 -84 -19
t-63.5 -53.5t-40.5 -82.5t-14 -106q0 -48 13 -90t33.5 -77.5t46 -63.5t51.5 -48v-69h-222z" />
    <glyph glyph-name="partialdiff" unicode="&#x2202;" horiz-adv-x="510" 
d="M249 -11q-45 0 -82.5 17t-65 49t-42.5 79t-15 107q0 84 32.5 144.5t81 82t95.5 21.5q37 0 61 -7.5t43 -17.5q-21 43 -64 77.5t-91 51t-86 23.5l14 57q63 -6 121 -32.5t103 -71.5q52 -51 82 -126t30 -166q0 -72 -17 -126t-46 -90t-69 -54t-85 -18zM249 51q45 0 80.5 32.5
t50 83.5t14.5 109q0 38 -6.5 68.5t-12.5 48.5q-26 17 -54.5 26t-65.5 9q-63 0 -100.5 -48.5t-37.5 -138.5q0 -93 36 -141.5t96 -48.5z" />
    <glyph glyph-name="Delta" unicode="&#x2206;" horiz-adv-x="558" 
d="M0 0l247 667h55l256 -667h-558zM102 65h350l-180 482z" />
    <glyph glyph-name="product" unicode="&#x220f;" horiz-adv-x="613" 
d="M95 0v598h-76v69h575v-69h-76v-598h-75v598h-272v-598h-76z" />
    <glyph glyph-name="summation" unicode="&#x2211;" horiz-adv-x="473" 
d="M38 0v70l244 266l-244 260v71h412v-69h-323l250 -262l-250 -267h325v-69h-414z" />
    <glyph glyph-name="minus" unicode="&#x2212;" 
d="M32 297v70h449v-70h-449z" />
    <glyph glyph-name="uni2215" unicode="&#x2215;" horiz-adv-x="211" 
d="M-191 -16l-36 44l606 642l42 -46z" />
    <glyph glyph-name="uni2219" unicode="&#x2219;" horiz-adv-x="274" 
d="M137 312q-23 0 -38 15t-15 41t15 41.5t38 15.5q24 0 38.5 -15.5t14.5 -41.5t-14.5 -41t-38.5 -15z" />
    <glyph glyph-name="radical" unicode="&#x221a;" 
d="M202 0l-106 237h-70v65h117l85 -197l197 619l64 -21l-227 -703h-60z" />
    <glyph glyph-name="infinity" unicode="&#x221e;" horiz-adv-x="525" 
d="M145 207q-45 0 -74.5 27.5t-37.5 61t-8 63.5q0 75 33 113.5t87 38.5q46 0 71 -26.5t46 -69.5q17 39 35.5 60.5t40 28t43.5 6.5q52 0 85.5 -39.5t33.5 -111.5q0 -44 -17 -81.5t-44 -54t-58 -16.5q-15 0 -30.5 3.5t-30.5 14t-29.5 29t-28.5 48.5q-25 -57 -54 -76t-63 -19z
M148 263q22 0 40.5 21.5t27 42t13.5 32.5q-20 48 -38 72t-43 24q-26 0 -41 -18.5t-20 -40t-5 -37.5q0 -45 17.5 -70.5t48.5 -25.5zM379 263q23 0 39 18.5t20 41.5t4 37q0 45 -18.5 70.5t-46.5 25.5q-29 0 -47.5 -28t-35.5 -70q10 -25 25 -50t30.5 -35t29.5 -10z" />
    <glyph glyph-name="integral" unicode="&#x222b;" horiz-adv-x="349" 
d="M10 -193v67q61 2 93.5 29.5t32.5 101.5v474q0 104 50.5 148t152.5 45v-67q-45 0 -75.5 -15.5t-40 -46t-9.5 -68.5v-473q0 -104 -51 -149.5t-153 -45.5z" />
    <glyph glyph-name="approxequal" unicode="&#x2248;" 
d="M364 134q-25 0 -52.5 5t-54.5 13q-68 19 -107 19q-26 0 -47.5 -8.5t-41.5 -19.5l-30 58q21 14 52.5 26t63.5 12q42 0 118 -20q59 -17 97 -17q26 0 47.5 8t41.5 21l31 -57q-20 -14 -51.5 -27t-66.5 -13zM364 357q-25 0 -52.5 5t-54.5 13q-68 19 -107 19q-40 0 -89 -27
l-30 57q21 14 52.5 26t63.5 12q42 0 118 -20q59 -17 97 -17q26 0 47.5 8t41.5 21l31 -57q-20 -14 -51.5 -27t-66.5 -13z" />
    <glyph glyph-name="notequal" unicode="&#x2260;" 
d="M99 64l-45 43l34 41h-56v70h114l130 155h-244v69h301l74 88l46 -43l-38 -45h66v-69h-124l-129 -155h253v-70h-312z" />
    <glyph glyph-name="lessequal" unicode="&#x2264;" 
d="M29 0v67h455v-67h-455zM452 138l-401 166v58l388 156l27 -67l-294 -116l307 -125z" />
    <glyph glyph-name="greaterequal" unicode="&#x2265;" 
d="M29 0v67h455v-67h-455zM61 138l-27 72l307 125l-294 116l27 67l388 -156v-58z" />
    <glyph glyph-name="lozenge" unicode="&#x25ca;" horiz-adv-x="505" 
d="M252 -16l-200 373l200 363l201 -363zM252 112l128 245l-128 233l-127 -232z" />
    <glyph glyph-name="f_i" unicode="&#xfb01;" horiz-adv-x="485" 
d="M86 0v414h-67v63h67v35q0 62 28 102.5t67.5 53t75.5 12.5q46 0 85.5 -15.5t61.5 -30.5l-29 -55q-21 15 -53 27.5t-65 12.5q-49 0 -73.5 -24t-24.5 -84v-34h108v-63h-107v-414h-74zM347 0v477h73v-477h-73z" />
    <glyph glyph-name="f_l" unicode="&#xfb02;" horiz-adv-x="539" 
d="M454 -9q-59 0 -80.5 33t-21.5 102v481q-22 5 -51 5q-47 0 -78.5 -13t-45.5 -41t-14 -61v-20h101v-63h-100v-414h-74v414h-61v63h61v16q0 70 32.5 112t82 56.5t95.5 14.5q41 0 72.5 -5t51.5 -11v-546q0 -33 10 -47.5t31 -14.5q19 0 47 14l17 -57q-13 -7 -32.5 -12.5
t-42.5 -5.5z" />
    <glyph glyph-name="tonos.cap" horiz-adv-x="241" 
d="M101 449l-50 15l59 204l71 -18z" />
    <glyph glyph-name="caron.alt" horiz-adv-x="500" 
d="M231 497v170h75l-28 -170h-47z" />
    <glyph glyph-name="revcommaaccent" horiz-adv-x="420" 
d="M220 569l72 130h61l-51 -130h-82z" />
    <glyph glyph-name="kratka" horiz-adv-x="460" 
d="M227 554q-26 0 -54 8.5t-51.5 26t-39 45.5t-16.5 67h64q5 -30 24.5 -51.5t39 -26.5t33.5 -5q22 0 45 11.5t36 30t17 41.5h64q-1 -39 -17 -67t-39.5 -45.5t-52 -26t-53.5 -8.5z" />
    <glyph glyph-name="commaaccent" horiz-adv-x="420" 
d="M130 -174l48 130h78l-68 -130h-58z" />
    </font>
</defs>
</svg>
