<svg width="78" height="23" viewBox="0 0 78 23" fill="none" xmlns="http://www.w3.org/2000/svg"><g clip-path="url(#a)"><path d="M9.618 23c5.311 0 9.617-4.252 9.617-9.497S14.93 4.006 9.618 4.006C4.306 4.006 0 8.258 0 13.503s4.306 9.498 9.618 9.498Z" fill="#fff"/><path d="M9.694 18.8c-2.643.008-5.392-2.22-5.404-5.795-.008-2.366 1.284-4.642 2.936-5.992 1.61-1.318 3.818-2.162 5.82-2.17.257 0 .527.021.692.076-1.75.359-3.143 1.967-3.137 3.791 0 .06.005.125.012.155 2.928.704 4.258 2.45 4.266 4.863a5.113 5.113 0 0 1-5.185 5.07v.001Z" fill="#E60000"/><path d="m25.445 17.437-2.94-6.93h1.921l1.835 4.601 1.776-4.6h1.834l-2.853 6.929h-1.573ZM36.765 13.943a4.3 4.3 0 0 1-.211 1.33c-.141.436-.35.827-.627 1.172a3.1 3.1 0 0 1-1.047.834c-.423.21-.915.316-1.478.316s-1.056-.105-1.478-.316a3.084 3.084 0 0 1-1.048-.834 3.648 3.648 0 0 1-.626-1.172 4.307 4.307 0 0 1-.212-1.33c0-.45.07-.89.212-1.322.14-.431.35-.817.626-1.158a3.06 3.06 0 0 1 1.048-.819c.422-.206.915-.309 1.478-.309s1.053.103 1.47.31c.417.205.766.479 1.049.818.281.34.492.727.633 1.158.14.431.211.872.211 1.322Zm-1.776-.007c0-.288-.034-.562-.102-.822a1.982 1.982 0 0 0-.305-.67 1.546 1.546 0 0 0-.495-.448 1.36 1.36 0 0 0-.684-.166c-.262 0-.49.056-.684.166-.195.11-.36.26-.495.447-.136.188-.239.411-.306.67-.068.26-.102.535-.102.823 0 .29.033.575.102.83.068.255.168.479.299.671.13.193.296.344.495.454.199.111.43.166.691.166.262 0 .49-.056.684-.166.194-.11.36-.262.495-.454.136-.192.238-.416.306-.67.068-.255.102-.532.102-.83ZM42.334 17.437l-.073-.532a2.272 2.272 0 0 1-.653.482c-.272.139-.59.209-.958.209-.484 0-.91-.1-1.277-.302a2.88 2.88 0 0 1-.93-.805 3.643 3.643 0 0 1-.573-1.165c-.13-.44-.196-.9-.196-1.38 0-.45.068-.89.204-1.322.135-.431.34-.817.616-1.157.276-.34.622-.613 1.038-.82.416-.205.905-.309 1.466-.309.367 0 .764.067 1.19.2V7.849h1.805v9.59h-1.659v-.002Zm-.146-5.405a2.708 2.708 0 0 0-.97-.202c-.3 0-.575.058-.797.174a1.565 1.565 0 0 0-.55.468 2.14 2.14 0 0 0-.326.664 2.648 2.648 0 0 0-.109.758c0 .288.032.565.095.83.062.264.159.495.29.692.13.197.294.356.492.476.197.12.431.18.702.18.222 0 .45-.06.68-.18.232-.12.396-.262.493-.426v-3.433ZM49.22 17.43l-.072-.517a2 2 0 0 1-.745.501c-.302.121-.633.181-.994.181-.302 0-.592-.05-.869-.15a2.298 2.298 0 0 1-.737-.432 2.107 2.107 0 0 1-.715-1.617c-.001-.345.067-.65.204-.913.136-.264.321-.486.555-.669.234-.181.502-.33.804-.445.301-.115.618-.201.95-.26.233-.047.489-.083.766-.107.278-.024.51-.045.695-.065v-.1c0-.384-.1-.657-.3-.82-.2-.163-.476-.244-.827-.244-.206 0-.4.024-.585.072a2.618 2.618 0 0 0-.498.18 3.924 3.924 0 0 0-.388.215 2.535 2.535 0 0 0-.27.194l-.598-1.251c.078-.067.197-.149.357-.245.16-.095.354-.189.582-.28.228-.09.486-.167.772-.23a4.34 4.34 0 0 1 .924-.093c.388 0 .743.05 1.063.151.32.101.597.259.83.474a2.2 2.2 0 0 1 .546.819c.13.33.196.73.196 1.199v4.453H49.22Zm-.145-3.242c-.196.01-.395.026-.6.05-.206.024-.401.055-.587.094-.39.076-.662.208-.814.395a.953.953 0 0 0-.227.611c0 .22.085.414.256.554.171.14.413.208.726.208.234 0 .461-.048.681-.144.22-.095.408-.215.565-.359v-1.409ZM56.443 9.43a2.345 2.345 0 0 0-1.019-.201.926.926 0 0 0-.633.222c-.17.148-.255.39-.255.725v.331h1.514v1.438h-1.5v5.492h-1.804v-5.492h-.932v-1.438h.931v-.373c0-.45.059-.832.175-1.143.117-.311.279-.566.487-.762.21-.197.454-.34.736-.431a2.97 2.97 0 0 1 .917-.137c.437 0 .798.041 1.085.122.286.081.454.137.502.165l-.204 1.481ZM63.14 13.943c0 .451-.07.894-.211 1.33-.14.436-.35.827-.626 1.172a3.097 3.097 0 0 1-1.048.834c-.423.21-.915.316-1.478.316s-1.055-.105-1.478-.316a3.086 3.086 0 0 1-1.048-.834 3.648 3.648 0 0 1-.626-1.172 4.304 4.304 0 0 1-.211-1.33c0-.45.07-.89.211-1.322.14-.431.35-.817.626-1.158.277-.34.627-.613 1.048-.819.423-.206.915-.309 1.478-.309s1.053.103 1.47.31c.418.205.767.479 1.049.818.281.34.492.727.633 1.158.14.431.211.872.211 1.322Zm-1.775-.007c0-.288-.035-.562-.103-.822a1.982 1.982 0 0 0-.305-.67 1.544 1.544 0 0 0-.495-.448 1.36 1.36 0 0 0-.684-.166c-.262 0-.49.056-.684.166-.194.11-.36.26-.495.447-.136.188-.239.411-.306.67-.068.26-.102.535-.102.823 0 .29.033.575.102.83.068.255.168.479.299.671.131.193.296.344.495.454.2.111.43.166.691.166.262 0 .49-.056.684-.166.195-.11.36-.262.495-.454.136-.192.238-.416.306-.67.068-.255.102-.532.102-.83ZM68.744 17.437v-3.954c0-.527-.112-.935-.335-1.222-.223-.288-.533-.431-.932-.431-.281 0-.54.072-.778.215a3.324 3.324 0 0 0-.619.475v4.917h-1.805v-6.93h1.645l.087.547c.282-.23.599-.408.954-.533a3.2 3.2 0 0 1 2.089-.021c.31.11.577.285.8.525.224.239.396.551.518.934.121.383.182.844.182 1.38v4.097h-1.806ZM73.443 14.418c.04.584.224 1.006.556 1.265.33.259.76.388 1.286.388a3.455 3.455 0 0 0 1.257-.23c.165-.068.306-.135.424-.202.117-.067.205-.13.263-.187l.48 1.452a3.347 3.347 0 0 1-.888.424 5.954 5.954 0 0 1-1.776.267c-.456 0-.89-.072-1.303-.216a2.91 2.91 0 0 1-1.084-.668 3.27 3.27 0 0 1-.743-1.129c-.184-.45-.276-.987-.276-1.61 0-.585.084-1.102.254-1.553.17-.45.403-.829.7-1.136a3.05 3.05 0 0 1 1.033-.704 3.257 3.257 0 0 1 1.26-.245c.446 0 .858.072 1.237.216.378.144.706.367.982.669.277.301.495.693.655 1.171.16.48.24 1.05.24 1.711v.317h-4.556Zm2.723-1.28c-.02-.24-.07-.448-.154-.625a1.33 1.33 0 0 0-.308-.431 1.24 1.24 0 0 0-.827-.324c-.312 0-.61.116-.893.346-.283.23-.449.575-.497 1.035h2.678ZM22.605 4.165V0h1.251c.46 0 .8.106 1.021.319.222.212.332.527.332.942 0 .416-.116.71-.35.918-.235.209-.576.312-1.022.312h-.752v1.674h-.481Zm.48-2.111h.784c.245 0 .444-.062.598-.187.154-.125.23-.331.23-.619 0-.287-.072-.495-.218-.624-.145-.129-.35-.193-.616-.193h-.778v1.623ZM26.556 4.233c-.126 0-.247-.02-.363-.06A.971.971 0 0 1 25.88 4a.825.825 0 0 1-.221-.29.94.94 0 0 1-.082-.406.83.83 0 0 1 .322-.69c.215-.17.458-.275.727-.319.27-.043.5-.066.69-.066v-.037c0-.25-.052-.429-.155-.537-.104-.109-.25-.162-.44-.162-.135 0-.272.026-.411.078a1.49 1.49 0 0 0-.404.234l-.152-.35a2.11 2.11 0 0 1 .404-.234c.16-.073.36-.11.601-.11.32 0 .57.086.75.257.178.171.268.456.268.856v1.942h-.424l-.02-.256a1.067 1.067 0 0 1-.347.24c-.13.057-.274.084-.43.084Zm.057-.393c.14 0 .267-.03.383-.09a1.66 1.66 0 0 0 .32-.216v-.925c-.27.009-.503.037-.7.084-.195.049-.34.125-.433.232a.564.564 0 0 0-.14.383c0 .134.04.246.117.338a.469.469 0 0 0 .237.165c.08.019.152.028.215.028l.001.001ZM29.395 4.233c-.219 0-.41-.03-.57-.093a1.284 1.284 0 0 1-.353-.19 1.23 1.23 0 0 1-.171-.172l.24-.362a1.158 1.158 0 0 0 .557.402c.105.032.215.047.329.047.223 0 .388-.047.496-.14a.482.482 0 0 0 .162-.384c0-.162-.042-.283-.124-.362-.082-.08-.21-.129-.383-.15a4.9 4.9 0 0 0-.46-.012V2.46c.197 0 .34-.006.429-.02.168-.024.291-.083.367-.174a.513.513 0 0 0 .114-.337c0-.154-.06-.267-.18-.34a.81.81 0 0 0-.427-.11.709.709 0 0 0-.452.147 1.376 1.376 0 0 0-.326.377l-.323-.218a1.84 1.84 0 0 1 .308-.381c.111-.104.24-.179.388-.225.148-.046.3-.069.455-.069.316 0 .56.069.734.207a.68.68 0 0 1 .26.562.803.803 0 0 1-.14.48.692.692 0 0 1-.404.263c.189.025.339.09.448.193.11.104.165.259.165.462 0 .312-.101.55-.304.712-.202.162-.48.243-.834.243ZM32.373 4.233a1.22 1.22 0 0 1-.585-.134 1.23 1.23 0 0 1-.414-.356 1.619 1.619 0 0 1-.25-.506 1.992 1.992 0 0 1 .098-1.408c.123-.258.289-.442.5-.553.21-.11.427-.165.65-.165.312 0 .574.088.785.265.21.177.355.388.433.634.078.245.117.466.117.662 0 .308-.067.593-.2.856-.132.262-.3.445-.502.549a1.37 1.37 0 0 1-.632.156Zm0-.387a.726.726 0 0 0 .513-.2 1 1 0 0 0 .29-.48c.051-.188.076-.355.076-.5 0-.23-.043-.44-.13-.634-.086-.194-.197-.332-.331-.415a.782.782 0 0 0-.418-.125.734.734 0 0 0-.537.212.984.984 0 0 0-.278.475 2.078 2.078 0 0 0-.064.48c0 .238.042.456.127.653.084.198.193.336.329.415.134.08.276.119.423.119ZM34.378 4.165l.191-2.978h.483l.808 2.254.824-2.254h.445l.214 2.978h-.417l-.142-2.173-.82 2.173h-.236l-.797-2.186-.136 2.186h-.417ZM39.335 4.165l.191-2.978h.483l.808 2.254.824-2.254h.445l.215 2.978h-.418l-.142-2.173-.82 2.173h-.236l-.797-2.186-.136 2.186h-.417ZM43.11 4.165V1.187h.455v2.041L45 1.561v-.374h.449v2.978h-.45V2.123l-1.434 1.668v.374h-.456ZM48.288 4.233c-.219 0-.408-.03-.569-.093a1.287 1.287 0 0 1-.354-.19 1.228 1.228 0 0 1-.171-.172l.24-.362c.067.091.15.173.25.246a.98.98 0 0 0 .307.156c.105.032.215.047.329.047.223 0 .389-.047.496-.14a.482.482 0 0 0 .162-.384c0-.162-.041-.283-.124-.362-.082-.08-.21-.129-.382-.15a4.9 4.9 0 0 0-.462-.012V2.46c.198 0 .342-.006.43-.02.168-.024.291-.083.367-.174a.51.51 0 0 0 .114-.337.37.37 0 0 0-.18-.34.81.81 0 0 0-.428-.11.709.709 0 0 0-.452.147 1.376 1.376 0 0 0-.325.377l-.323-.218c.093-.15.195-.277.307-.381.112-.104.24-.179.389-.225.147-.046.299-.069.455-.069.316 0 .56.069.733.207a.68.68 0 0 1 .26.562.808.808 0 0 1-.139.48.694.694 0 0 1-.405.263c.19.025.34.09.449.193.11.104.164.259.164.462 0 .312-.1.55-.303.712-.203.162-.481.243-.835.243ZM50.052 4.165l.192-2.978h.483l.808 2.254.823-2.254h.446l.214 2.978h-.417l-.142-2.173-.821 2.173h-.235l-.797-2.186-.136 2.186h-.418ZM55.022 4.233a1.22 1.22 0 0 1-.585-.134 1.23 1.23 0 0 1-.414-.356 1.62 1.62 0 0 1-.25-.506 1.992 1.992 0 0 1 .098-1.408c.122-.258.288-.442.5-.553.21-.11.428-.165.65-.165.313 0 .574.088.785.265.21.177.355.388.433.634.079.245.117.466.117.662 0 .308-.067.593-.2.856-.132.262-.3.445-.502.549a1.37 1.37 0 0 1-.632.156Zm0-.387a.726.726 0 0 0 .512-.2 1 1 0 0 0 .291-.48c.051-.188.076-.355.076-.5 0-.23-.043-.44-.13-.634-.086-.194-.196-.332-.331-.415a.784.784 0 0 0-.417-.125.734.734 0 0 0-.538.212.984.984 0 0 0-.278.475 2.083 2.083 0 0 0-.063.48c0 .238.041.456.126.653.084.198.194.336.329.415.134.08.276.119.424.119h-.001ZM56.616 4.165l.828-1.598a1.51 1.51 0 0 1-.14-.19 5.414 5.414 0 0 1-.208-.366 6.93 6.93 0 0 0-.228-.391c-.021-.027-.071-.04-.151-.04h-.152v-.394h.228c.14 0 .24.024.303.072a.748.748 0 0 1 .184.228c.059.103.118.21.177.318.118.23.205.384.262.466.057.081.103.13.14.146a.255.255 0 0 0 .11.025h.183V1.186h.443v1.255h.177c.11 0 .28-.212.513-.637.126-.241.207-.389.244-.443a.356.356 0 0 1 .164-.128.653.653 0 0 1 .256-.047h.228v.393h-.152c-.084 0-.146.025-.183.075-.038.05-.103.169-.196.356-.14.262-.255.443-.348.543l.842 1.611h-.5l-.672-1.342h-.37v1.342h-.444V2.822h-.375l-.668 1.342h-.495ZM61.794 4.233c-.43 0-.771-.134-1.025-.402-.252-.269-.379-.659-.379-1.171 0-.342.065-.637.193-.887.129-.25.292-.423.49-.518.198-.096.397-.144.595-.144.3 0 .548.077.747.231.197.154.333.354.407.6.074.245.111.48.111.705h-2.087c0 .375.083.668.247.88.164.213.402.32.714.32.185 0 .35-.032.493-.094.143-.063.272-.142.386-.238l.12.394a1.077 1.077 0 0 1-.427.23 1.879 1.879 0 0 1-.585.094Zm-.904-1.966h1.517a.864.864 0 0 0-.136-.444.658.658 0 0 0-.3-.259.842.842 0 0 0-.303-.071c-.19 0-.355.06-.494.177-.139.119-.234.318-.284.596ZM63.564 4.165l.192-2.978h.482l.809 2.254.823-2.254h.446l.214 2.978h-.418l-.142-2.173-.82 2.173h-.235l-.797-2.186-.136 2.186h-.418ZM68.534 4.233a1.22 1.22 0 0 1-.585-.134 1.23 1.23 0 0 1-.414-.356 1.619 1.619 0 0 1-.25-.506 1.992 1.992 0 0 1 .098-1.408c.123-.258.289-.442.5-.553.211-.11.428-.165.651-.165.312 0 .574.088.784.265.211.177.355.388.434.634.078.245.116.466.116.662 0 .308-.066.593-.199.856-.132.262-.3.445-.502.549a1.37 1.37 0 0 1-.633.156Zm0-.387a.726.726 0 0 0 .512-.2 1 1 0 0 0 .292-.48c.05-.188.076-.355.076-.5 0-.23-.043-.44-.13-.634-.087-.194-.197-.332-.332-.415a.784.784 0 0 0-.417-.125.734.734 0 0 0-.538.212.984.984 0 0 0-.278.475 2.078 2.078 0 0 0-.063.48c0 .238.042.456.126.653.085.198.194.336.33.415.134.08.275.119.423.119Z" fill="#fff"/></g><defs><clipPath id="a"><path fill="#fff" d="M0 0h78v23H0z"/></clipPath></defs></svg>