<svg width="79" height="25" fill="none" xmlns="http://www.w3.org/2000/svg"><g clip-path="url(#a)" fill="#fff"><path d="M13.835 24.48c-.022-.007-.044-.021-.066-.021a1.701 1.701 0 0 1-1.42-1.642 13.15 13.15 0 0 1 0-.77 1.69 1.69 0 0 1 1.568-1.664c.333 0 .665-.007.99.008.282.008.54.11.77.26a.58.58 0 0 0 .06.036l.946-.947c-.007-.015-.022-.037-.037-.066a1.64 1.64 0 0 1-.266-.843c-.007-.296-.007-.6.008-.895.007-.296.11-.57.273-.822l.022-.037-1.02-1.02c-.015.007-.045.021-.074.044a1.719 1.719 0 0 1-.873.26h-.769a1.676 1.676 0 0 1-1.649-1.487c-.021-.2-.015-.4-.015-.6 0-.17 0-.332.008-.502a1.68 1.68 0 0 1 .266-.762c.007-.015.022-.037.022-.037l-1.029-1.029s-.014 0-.021.008c-.26.163-.547.26-.858.26-.289.007-.577 0-.858-.008a1.582 1.582 0 0 1-.791-.244l-.052-.03-1.058 1.058c.06.14.134.281.185.429.06.155.081.325.081.495v.74a1.68 1.68 0 0 1-1.664 1.686c-.259 0-.517.008-.776 0a1.676 1.676 0 0 1-1.65-1.56 6.875 6.875 0 0 1 .008-1.028c.052-.672.555-1.271 1.242-1.45.156-.044.326-.059.481-.059.244-.007.488 0 .732.008.31.007.585.096.843.259l.037.022 1.065-1.066a1.89 1.89 0 0 1-.118-.214 1.566 1.566 0 0 1-.163-.68c-.007-.297-.007-.6.008-.896.007-.273.103-.525.244-.754.015-.022.022-.037.03-.052l-1.03-1.027-.08.044c-.274.17-.57.26-.895.26-.281 0-.555 0-.836-.008a1.557 1.557 0 0 1-.724-.215c-.022-.015-.045-.022-.052-.03L3.867 8.907s.015.03.021.052c.141.244.222.503.222.784.007.281.007.57 0 .85a1.676 1.676 0 0 1-1.575 1.613c-.318.015-.636.015-.954 0a1.67 1.67 0 0 1-1.509-1.25A2.866 2.866 0 0 0 0 10.72V9.594c.015-.036.037-.073.044-.118a1.702 1.702 0 0 1 1.605-1.368c.296-.008.598-.008.894 0 .281.007.54.103.777.252.037.021.066.044.089.052l.984-.984a1.575 1.575 0 0 1-.26-.577c-.021-.119-.051-.237-.051-.355-.008-.304-.015-.607.007-.91a1.698 1.698 0 0 1 1.693-1.56h.733a1.68 1.68 0 0 1 1.663 1.709v.672c.007.318-.074.614-.237.888-.007.015-.015.037-.03.052l1.036 1.035a1.61 1.61 0 0 1 .917-.289c.274 0 .54-.007.814 0 .895.03 1.604.755 1.627 1.642.007.252.007.51 0 .77 0 .332-.097.643-.281.924-.008.008-.008.022-.008.015l1.035 1.035s.022-.007.045-.022c.28-.162.584-.236.902-.236.244 0 .488.007.732.007.296 0 .57.09.828.244.022.015.045.022.052.03.34-.34.68-.68 1.028-1.021-.008-.008-.015-.03-.03-.052a1.672 1.672 0 0 1-.28-.947v-.703A1.691 1.691 0 0 1 17.937 8.1c.289-.007.585-.007.873 0 .827.03 1.523.673 1.604 1.494.037.385.037.762 0 1.147-.074.688-.65 1.302-1.346 1.428-.089.015-.17.03-.26.03-.332 0-.664.007-.99-.016a1.537 1.537 0 0 1-.702-.244l-1.035 1.035c.007.008.015.03.029.052.178.289.266.607.259.947 0 .17-.008.34 0 .518.015.384-.06.747-.266 1.072.045.081.917.961 1.02 1.035.156-.066.304-.14.46-.184.155-.044.31-.067.473-.074.236-.015.48 0 .717 0 .939 0 1.693.754 1.693 1.7v.733c0 .903-.74 1.657-1.641 1.672-.274.008-.54.008-.814 0a1.7 1.7 0 0 1-.762-.207c-.029-.015-.059-.037-.08-.045l-.977.977c.008.015.03.052.044.089.141.259.208.532.208.828 0 .295.007.584-.015.872a1.688 1.688 0 0 1-1.383 1.494l-.074.022c-.37.008-.754.008-1.14.008l.002-.003ZM14.796 0l.222.044c.717.134 1.294.733 1.36 1.465.03.377.03.762 0 1.132-.066.732-.672 1.346-1.397 1.457-.11.015-.23.022-.347.022h-.659a1.68 1.68 0 0 1-1.671-1.48c-.022-.222-.015-.443-.015-.665 0-.2-.008-.407.037-.607.155-.717.74-1.25 1.464-1.339.037-.007.066-.015.103-.021.296-.008.6-.008.903-.008ZM78.507 16.27l-.045.282c-.2 1.168-.85 1.996-1.915 2.5-.503.236-1.035.37-1.582.45-.607.097-1.22.12-1.835.104-.665-.015-1.33-.081-1.974-.274a3.855 3.855 0 0 1-1.494-.798c-.525-.466-.842-1.05-.99-1.73a4.344 4.344 0 0 1-.096-1.021c0-.03.007-.053.007-.097h2.13c.421 0 .695.192.843.577.147.392.414.665.79.836.304.14.622.214.954.244.34.037.688.037 1.028-.022.237-.037.459-.11.665-.215.141-.074.274-.163.378-.288a.792.792 0 0 0 .184-.4.664.664 0 0 0-.177-.599 1.55 1.55 0 0 0-.415-.303 3.877 3.877 0 0 0-1.168-.378 18.338 18.338 0 0 1-1.974-.488 8.037 8.037 0 0 1-1.465-.577 3.227 3.227 0 0 1-.983-.799 2.51 2.51 0 0 1-.54-1.346 3.486 3.486 0 0 1 .147-1.486 3.257 3.257 0 0 1 1.597-1.901 5.13 5.13 0 0 1 1.804-.555 8.37 8.37 0 0 1 1.775-.022c.732.067 1.442.237 2.108.585.872.451 1.404 1.176 1.693 2.093.052.155.089.325.096.488.015.296-.2.51-.495.51-.429 0-.858.008-1.294 0a1.304 1.304 0 0 1-1.102-.591c-.281-.407-.651-.68-1.147-.777a3.59 3.59 0 0 0-1.538.037c-.118.03-.229.074-.333.126-.34.178-.444.525-.422.821.008.14.097.252.2.347.163.148.355.244.554.326.407.17.836.28 1.265.384.192.044.384.104.577.148.089.022.192.03.28.044.149.03.29.052.43.09.606.162 1.197.354 1.767.62.177.09.355.185.525.282.584.34.924.858 1.087 1.509.022.103.037.207.052.303.007.03.015.052.022.074.021.31.021.6.021.888h.005ZM34.665 14h-.126c-.554 0-1.108-.007-1.664 0-.776.016-1.493-.687-1.478-1.478.007-.289 0-.585 0-.873v-.126c.037-.007.066-.007.096-.007h4.902c.562 0 1.013.459 1.028 1.035v6.834c-.015.008-.03.022-.037.015-.34-.007-.688.008-1.028-.022-.503-.044-.866-.31-1.087-.769-.11-.237-.155-.488-.215-.732-.015-.052-.022-.103-.044-.178-.03.037-.06.066-.074.089-.266.37-.577.703-.932.991-.503.415-1.087.659-1.715.799-.65.148-1.31.185-1.974.148a7.387 7.387 0 0 1-1.797-.318 5.912 5.912 0 0 1-2.58-1.65c-.917-.99-1.465-2.16-1.723-3.476a10.131 10.131 0 0 1-.192-1.767c-.022-.68.007-1.36.103-2.041.148-1.035.436-2.027.99-2.921.954-1.553 2.315-2.537 4.112-2.914.71-.148 1.427-.185 2.152-.148a8.62 8.62 0 0 1 1.686.244c.569.148 1.116.355 1.627.643.872.489 1.53 1.184 2.026 2.049.207.362.362.754.48 1.153.074.266.022.504-.192.696a.566.566 0 0 1-.384.133c-.451 0-.91 0-1.36-.007-.533-.015-.917-.281-1.184-.733a3.086 3.086 0 0 0-.333-.48c-.421-.51-.968-.828-1.62-.977a4.712 4.712 0 0 0-1.98-.044c-.991.192-1.754.732-2.286 1.59-.347.562-.554 1.176-.672 1.819a8.32 8.32 0 0 0-.134 1.657c.008.725.097 1.442.318 2.13.215.643.533 1.228 1.013 1.715.4.407.88.696 1.435.858.769.223 1.545.252 2.329.067.924-.222 1.604-.762 2.063-1.598.229-.42.37-.88.459-1.353-.008-.015-.008-.022-.008-.052ZM45.609 12.647v-.119a3.32 3.32 0 0 0-.237-1.005c-.236-.57-.665-.925-1.265-1.066a2.67 2.67 0 0 0-.998-.044 1.96 1.96 0 0 0-1.212.628c-.348.384-.496.843-.547 1.347l-.022.259h4.281Zm3.024 1.908h-7.29c-.008.03-.016.052-.008.074.021.37.066.74.184 1.095.126.384.347.71.643.976.274.244.607.377.97.429.406.06.82.052 1.22-.06.207-.06.399-.14.576-.259.141-.089.26-.215.363-.347.2-.266.443-.444.769-.496.096-.015.2-.022.296-.022h2.122c0 .037 0 .06-.008.081-.214.777-.562 1.494-1.124 2.078a4.667 4.667 0 0 1-2.137 1.28c-.473.133-.947.2-1.434.221-.465.015-.932 0-1.39-.074-1.515-.259-2.625-1.072-3.342-2.425-.303-.563-.473-1.177-.577-1.805a9.875 9.875 0 0 1-.11-2.041c.036-.843.17-1.664.495-2.448.407-.976 1.043-1.752 1.974-2.277.466-.26.961-.43 1.486-.51a6.667 6.667 0 0 1 2.81.118 4.43 4.43 0 0 1 2.085 1.183c.429.43.732.947.961 1.502.222.54.355 1.095.436 1.672.082.606.082 1.213.082 1.827a.704.704 0 0 0-.052.229ZM67.829 8.18v.147c0 2.204.008 4.409 0 6.62 0 .725-.089 1.442-.325 2.13a3.273 3.273 0 0 1-.673 1.16c-.215.23-.466.408-.747.555a6.464 6.464 0 0 1-2.44.777c-1.05.118-2.055-.052-3.031-.436-.31-.118-.6-.274-.895-.429-.577-.318-.976-.784-1.235-1.383-.192-.436-.296-.903-.362-1.368a9.652 9.652 0 0 1-.074-1.309V8.868c0-.104.008-.208.06-.303a.63.63 0 0 1 .606-.378h1.664a.639.639 0 0 1 .636.629v6.508c0 .193.022.392.052.585.088.518.391.887.85 1.132.79.414 1.767.31 2.455-.26.28-.236.428-.54.495-.887a3.1 3.1 0 0 0 .053-.525V9.652c0-.451.155-.821.495-1.124.266-.237.591-.333.947-.333h1.294c.052-.015.103-.015.178-.015h-.003ZM49.787 4.91c.044 0 .074-.007.096-.007.488 0 .984-.007 1.471 0 .57.015.984.289 1.25.784.089.17.126.363.133.555V18.8c0 .06 0 .119-.007.178a.511.511 0 0 1-.518.421h-1.878c-.325 0-.54-.214-.547-.54V4.911ZM54.031 8.187c.045 0 .074-.007.104-.007h1.427a1.432 1.432 0 0 1 1.428 1.405c0 3.091 0 6.19.007 9.282 0 .31-.221.525-.525.525a80.267 80.267 0 0 0-1.9 0c-.326.008-.54-.23-.533-.54.008-1.235 0-2.463 0-3.698V8.335c-.008-.037-.008-.089-.008-.148ZM56.974 7.218c-.036 0-.066.008-.096.008h-2.344a.48.48 0 0 1-.488-.378c-.008-.036-.015-.073-.015-.103V4.978c0-.015 0-.03.007-.06.037 0 .074-.007.111-.007.473 0 .94.007 1.412 0 .725-.015 1.398.606 1.42 1.346.008.303 0 .607 0 .91 0 .007-.007.029-.007.051Z"/></g><defs><clipPath id="a"><path fill="#fff" d="M0 0h78.507v24.48H0z"/></clipPath></defs></svg>