<svg width="73" height="15" viewBox="0 0 73 15" fill="none" xmlns="http://www.w3.org/2000/svg"><g clip-path="url(#a)" fill="#fff"><path d="M69.651.199a4.88 4.88 0 0 1 1.826 1.1c.384.36.65.804.706 1.345 0 3.08.002 6.158.004 9.237-.137.32-.282.635-.41.96-.244.614-.83.85-1.316 1.195-.498.353-1.069.423-1.665.421a1054.89 1054.89 0 0 0-6.656.005c-.673.002-1.339-.049-1.915-.424-1.053-.684-1.74-1.64-1.759-2.915-.04-2.574-.014-5.149-.009-7.723.004-1.405 1.025-2.833 2.55-3.142 2.8.005 5.6.01 8.399.01.08 0 .163-.043.244-.067l.001-.002Zm-1.177 10.689c.044-.152.126-.302.126-.454.007-2.06.005-4.117-.002-6.177 0-.143-.064-.285-.1-.428-.033-.117-.063-.234-.1-.349-.254-.818-.897-1.35-1.711-1.363-.941-.012-1.885 0-2.826.028-.67.02-1.516.827-1.521 1.49-.021 2.381-.03 4.762-.007 7.141.005.583.198 1.157.781 1.438.361.173.768.313 1.162.342.729.054 1.465.02 2.197.014.137 0 .284-.003.41-.049.792-.288 1.384-.778 1.59-1.635v.002ZM46.783 2.974c.007 1.079.018 2.156.02 3.234.003 2.575-.006 5.15.008 7.724.002.384-.061.55-.506.53-.976-.04-1.957-.019-2.935-.008-.27.003-.42-.044-.42-.364.008-4.557.006-9.116.01-13.673 0-.049.03-.098.046-.147.453-.001.909-.005 1.363-.007l9.906-.005c.837.131 1.402.662 1.852 1.318.222.325.363.703.54 1.058-.006 3.676-.007 7.353-.018 11.029 0 .195-.077.39-.09.588-.003.04.118.09.183.135-.447.02-.895.054-1.342.06-.7.011-1.398-.01-2.097.01-.275.006-.391-.074-.361-.35.01-.103 0-.207 0-.312 0-3.166-.016-6.334.012-9.5.007-.838-.237-1.494-.927-1.976-.103-.316-.34-.384-.645-.382-1.15.007-2.3.003-3.451-.004-.154 0-.354.02-.452-.063-.386-.324-.764.047-.819.194-.094.253-.28.665.127.91l-.004.001Zm6.302 6.172-.001-4.95c0-.093-.035-.183-.055-.276-.014.084-.038.166-.038.25a9507.24 9507.24 0 0 0 0 9.847c0 .084.026.166.04.25.02-.093.054-.183.054-.276.004-1.614.002-3.23 0-4.845ZM16.176 2.684c.21-.633.454-1.225 1.025-1.661.426-.325.79-.716 1.363-.763l8.412.009c.156 0 .313.003.466.031.066.012.119.094.178.143-.19.196.03.252.121.353.025-.12.051-.243.07-.363.011-.068.007-.138.01-.208.011.501.001 1.004.038 1.505.024.347-.128.394-.428.392-1.778-.012-3.558-.005-5.337-.005-.19 0-.383-.003-.574.01-.946.07-1.507.636-1.575 1.59-.015.208-.025.418-.015.625.055 1.048.808 1.776 1.868 1.78 1.831.01 3.664.004 5.495.004.55 0 .555 0 .552.573-.004.433-.018.867-.027 1.3-2.477-.003-4.953-.009-7.43-.005-.142 0-.286.07-.428.106-.014.252.074.479.042.76-.096.829-.134 1.701.023 2.513.112.581.692.95 1.328 1.08-.012.013-.028.021-.037.037-.007.012-.007.03-.01.045.145.018.29.051.436.051 2.026.005 4.05.005 6.075.007v.215c-.093.028-.247.031-.27.087-.086.211-.13.44-.19.661.537.11.05.435.14.625.041.086.202.116.31.17-.155.036-.31.103-.465.104-2.651.006-5.302.028-7.951-.014-1.132-.019-2.113-.474-2.747-1.46-.216-.336-.317-.742-.47-1.118 0-3.06.002-6.117.004-9.177l-.002-.002ZM29.592 2.962c.036-.71.348-1.267.863-1.761.486-.464.978-.875 1.66-.997.152.023.304.065.457.065 2.74.001 5.48 0 8.22-.004.07 0 .14.007.21 0 .048-.005.096-.03.143-.047-.047-.016-.095-.044-.142-.047-.123-.007-.244 0-.366-.002C37.914.166 35.19.162 32.468.161c.28-.014.556-.04.834-.04 2.481-.004 4.964-.004 7.445-.002.718 0 .566-.01.58.595.007.295-.024.593.007.886.042.404-.082.536-.513.53-1.624-.029-3.25-.011-4.876-.013-.246 0-.49.01-.734 0-.649-.033-1.137.327-1.576.71-.18.16-.241.526-.243.798a318.538 318.538 0 0 0-.005 7.203c.008.618.282 1.177.951 1.416.179.063.349.15.524.227-.068.01-.137.019-.205.03.031.03.06.076.096.083.067.014.139.005.207.005 2.117 0 4.235-.001 6.351-.003.007.52.004 1.042.027 1.562.01.265-.11.316-.344.314-2.775-.005-5.55.032-8.324-.028-.797-.017-1.54-.357-2.129-1.003-.475-.52-.829-1.063-.95-1.753 0-2.906 0-5.81.002-8.716h-.001ZM5.58 14.366c-.017-.115-.046-.228-.046-.343-.002-3.758 0-7.516 0-11.274 0-.63-.002-.632-.615-.632-1.276 0-2.551.002-3.827-.002-.17 0-.34-.031-.508-.048.245-.032.233-.025.128-.203-.05-.082-.046-.199-.05-.3C.655 1.32.657 1.079.657.834c0-.56 0-.565.578-.565 3.224 0 6.45 0 9.673-.002.959 0 1.917-.016 2.876-.023.103.01.206.02.311.028-.056.185-.268.363.014.55.442.292-.292.208-.155.477.12.239.1.55.14.83-1.04-.026-2.08-.085-3.117-.066-.482.009-.946.265-1.165.702-.202.401-.353.876-.356 1.32-.03 3.267-.016 6.536-.018 9.805 0 .569-.003.572-.553.569-.925-.005-1.85-.014-2.774-.023-.147-.223-.441-.276-.436-.686.037-3.386.017-6.774.026-10.16 0-.283.105-.564.114-.848.005-.154-.088-.31-.14-.466-.004-.01-.028-.014-.042-.02-.014.13-.033.26-.042.388-.007.086 0 .173 0 .26l-.007 11.464-.004-.002Z"/><path d="M13.779.244c-.958.009-1.917.023-2.875.023-3.224.003-6.45 0-9.673.002-.577 0-.579.005-.579.565 0 .243 0 .485.007.73.004.101 0 .218.05.3.105.178.117.17-.128.202C.567 1.511.538.958.547.405.55.318.712.208.824.155c.086-.04.205-.01.31-.01 4.037 0 8.072 0 12.109.003.179 0 .357.063.538.098l-.002-.002ZM46.783 2.974c-.408-.246-.22-.656-.126-.91.054-.144.435-.518.818-.193.098.084.298.063.452.063 1.151.005 2.3.01 3.452.003.305-.001.543.067.645.383-.423-.076-.843-.201-1.267-.213-1.113-.03-2.225-.01-3.34-.006-.672.004-.616-.06-.618.615 0 .085-.012.173-.018.258h.002ZM5.58 14.366l.006-11.463c0-.088-.007-.175 0-.26.009-.13.028-.259.042-.388.014.007.039.01.042.02.051.155.144.312.14.465-.008.285-.113.566-.113.848-.01 3.387.01 6.774-.027 10.16-.005.41.291.463.437.686-.176-.022-.35-.047-.526-.07l-.002.002ZM56.74 14.389c-.063-.045-.184-.094-.182-.134.014-.198.09-.393.09-.589.01-3.675.013-7.353.017-11.029.037.166.107.33.107.496.009 3.686.01 7.37.01 11.057 0 .066-.028.133-.043.2l.001-.001ZM54.275.262c-3.303 0-6.605.003-9.906.005-.454 0-.91.003-1.363.007.135-.044.268-.126.402-.126C46.83.143 50.252.143 53.674.15c.2 0 .401.073.601.113V.262ZM27.82.225c-.003.07 0 .14-.01.208-.02.122-.048.242-.07.363-.091-.101-.312-.157-.121-.353-.06-.05-.112-.13-.179-.143a2.593 2.593 0 0 0-.466-.031C24.171.265 21.366.262 18.562.26c.22-.038.436-.112.655-.112C21.955.14 24.692.141 27.43.145c.13 0 .26.052.39.082V.225ZM16.176 2.684c0 3.06-.002 6.118-.004 9.178-.038-.201-.112-.4-.112-.6-.007-2.66-.008-5.319 0-7.979 0-.2.076-.4.118-.6l-.002.001ZM72.187 11.88c0-3.078-.002-6.157-.004-9.236.039.236.11.47.11.705.007 2.625.007 5.252-.001 7.877 0 .218-.069.435-.105.653v.002ZM32.467.16c2.723.004 5.445.008 8.168.01.123 0 .245-.006.366.001.047.002.095.03.142.047-.047.016-.095.04-.144.047-.068.009-.14 0-.208 0-2.74.002-5.48.005-8.22.004-.153 0-.306-.042-.458-.065.117-.014.235-.03.352-.043h.002ZM29.592 2.962c0 2.906 0 5.81-.002 8.716-.034-.183-.093-.368-.093-.551a1332.42 1332.42 0 0 1-.007-7.507c0-.218.067-.436.103-.656l-.001-.002ZM69.651.199c-.08.023-.163.068-.243.068-2.8 0-5.6-.007-8.4-.01.167-.037.331-.107.498-.107 2.579-.007 5.158-.007 7.737-.003.137 0 .273.034.412.054L69.65.199ZM19.959 8.1c.142-.036.285-.106.427-.106 2.478-.004 4.953 0 7.43.005-.12.038-.241.11-.362.11-2.498.002-4.997-.003-7.495-.007V8.1ZM41.311 12.584c-2.116 0-4.234.002-6.351.004-.07 0-.14.009-.207-.005-.037-.008-.065-.056-.096-.084l.205-.03c1.98 0 3.958 0 5.938.007.17 0 .341.07.511.108ZM27.815 12.593c-2.026 0-4.05-.002-6.075-.007-.145 0-.29-.033-.436-.05.004-.016.002-.034.01-.046.01-.014.025-.024.038-.037 1.985.006 3.97.009 5.955.023.17 0 .338.075.508.117ZM14.09 2.13c-.043-.28-.02-.59-.141-.831-.137-.27.597-.186.156-.477-.282-.187-.07-.367-.014-.55.215-.052.326.005.319.252-.012.415-.005.832-.004 1.248 0 .216-.05.378-.317.356v.001ZM27.806 14.35c-.107-.053-.268-.083-.308-.169-.09-.19.396-.515-.14-.624.06-.222.103-.45.189-.662.023-.056.175-.06.27-.087l-.009 1.543h-.002ZM68.474 10.888l.025-7.059c.035.143.1.285.1.428.006 2.06.008 4.117.001 6.177 0 .152-.082.302-.126.454ZM53.087 9.146c0 1.614 0 3.23-.002 4.845 0 .093-.035.183-.054.276-.014-.084-.04-.166-.04-.25-.002-3.283 0-6.564 0-9.847 0-.084.024-.166.038-.25.02.093.055.183.055.276.003 1.65.001 3.299.003 4.95Z"/></g><defs><clipPath id="a"><path fill="#fff" transform="translate(.545 .117)" d="M0 0h71.753v14.351H0z"/></clipPath></defs></svg>