<svg width="81" height="14" viewBox="0 0 81 14" fill="none" xmlns="http://www.w3.org/2000/svg"><g clip-path="url(#a)" fill="#fff"><path d="M.818.731v12.654h2.639V7.943h8.268v5.442h2.643V.731h-2.643v4.907H3.457V.731H.818ZM22.311 8.333l2.552-5.15 2.463 5.15h-5.015ZM23.696.73l-6.424 12.654h2.663l1.297-2.747h7.213l1.341 2.747h2.968L26.247.731h-2.551ZM40.67 3.037h5.21V.73H32.818v2.306h5.21v10.348h2.642V3.037ZM51.407 11.08V3.037h8.709v8.043h-8.71Zm-2.639-.686c0 .54 0 1.717.615 2.38.552.59 1.472.616 2.198.616h8.356c.726 0 1.65-.027 2.199-.615.614-.664.614-1.841.614-2.38V3.722c0-.54 0-1.717-.614-2.38-.552-.59-1.473-.616-2.199-.616h-8.356c-.726 0-1.65.027-2.198.615-.615.664-.615 1.84-.615 2.38v6.672ZM75.332 2.89c.111 0 .552 0 .77.195.286.244.286.615.286.81v1.544c0 .195 0 .566-.286.81-.198.146-.552.194-.726.194h-6.047V2.891h6.003ZM66.691.732v12.654h2.638V8.602h2.484l4.575 4.783h3.78l-5.233-4.783h1.54c.504 0 1.409-.048 1.936-.566.31-.292.615-.858.615-1.84V3.178c0-.513-.044-1.371-.682-1.938-.528-.464-1.342-.513-1.87-.513h-9.788l.004.005Z"/></g><defs><clipPath id="a"><path fill="#fff" transform="translate(.818 .727)" d="M0 0h79.351v12.662H0z"/></clipPath></defs></svg>